<?xml version="1.0" encoding="UTF-8" standalone="no"?>
<!DOCTYPE svg PUBLIC "-//W3C//DTD SVG 1.1//EN"
 "http://www.w3.org/Graphics/SVG/1.1/DTD/svg11.dtd">
<!-- Generated by graphviz version 2.40.1 (20161225.0304)
 -->
<!-- Title: dependencies Pages: 1 -->
<svg width="2984pt" height="284pt"
 viewBox="0.00 0.00 2984.00 284.00" xmlns="http://www.w3.org/2000/svg" xmlns:xlink="http://www.w3.org/1999/xlink">
<g id="graph0" class="graph" transform="scale(1 1) rotate(0) translate(4 280)">
<title>dependencies</title>
<polygon fill="#ffffff" stroke="transparent" points="-4,4 -4,-280 2980,-280 2980,4 -4,4"/>
<text text-anchor="start" x="1467.0091" y="-42.4" font-family="sans-serif" font-weight="bold" font-size="14.00" fill="#000000">Legend</text>
<polygon fill="#ffffb3" stroke="transparent" points="1254,-10 1254,-30 1274,-30 1274,-10 1254,-10"/>
<text text-anchor="start" x="1277.629" y="-15.4" font-family="sans-serif" font-size="14.00" fill="#000000"> &#160;Declarations</text>
<polygon fill="#8dd3c7" stroke="transparent" points="1367,-10 1367,-30 1387,-30 1387,-10 1367,-10"/>
<text text-anchor="start" x="1390.7251" y="-15.4" font-family="sans-serif" font-size="14.00" fill="#000000"> &#160;Module</text>
<polygon fill="#80b1d3" stroke="transparent" points="1453,-10 1453,-30 1473,-30 1473,-10 1453,-10"/>
<text text-anchor="start" x="1476.7812" y="-15.4" font-family="sans-serif" font-size="14.00" fill="#000000"> &#160;Bootstrap</text>
<polygon fill="#fdb462" stroke="transparent" points="1550,-10 1550,-30 1570,-30 1570,-10 1550,-10"/>
<text text-anchor="start" x="1573.6732" y="-15.4" font-family="sans-serif" font-size="14.00" fill="#000000"> &#160;Providers</text>
<polygon fill="#fb8072" stroke="transparent" points="1646,-10 1646,-30 1666,-30 1666,-10 1646,-10"/>
<text text-anchor="start" x="1669.7258" y="-15.4" font-family="sans-serif" font-size="14.00" fill="#000000"> &#160;Exports</text>
<g id="clust1" class="cluster">
<title>cluster_SharedCoreModule</title>
<polygon fill="none" stroke="#000000" stroke-dasharray="1,5" points="8,-70 8,-268 2968,-268 2968,-70 8,-70"/>
</g>
<g id="clust2" class="cluster">
<title>cluster_SharedCoreModule_declarations</title>
<polygon fill="none" stroke="#000000" points="43,-78 43,-130 2931,-130 2931,-78 43,-78"/>
</g>
<g id="clust21" class="cluster">
<title>cluster_SharedCoreModule_exports</title>
<polygon fill="none" stroke="#000000" points="16,-208 16,-260 2960,-260 2960,-208 16,-208"/>
</g>
<!-- CoreBreadcrumbComponent -->
<g id="node1" class="node">
<title>CoreBreadcrumbComponent</title>
<polygon fill="#ffffb3" stroke="#000000" points="2922.7366,-122 2745.2634,-122 2745.2634,-86 2922.7366,-86 2922.7366,-122"/>
<text text-anchor="middle" x="2834" y="-99.8" font-family="Times,serif" font-size="14.00" fill="#000000">CoreBreadcrumbComponent</text>
</g>
<!-- SharedCoreModule -->
<g id="node18" class="node">
<title>SharedCoreModule</title>
<polygon fill="#8dd3c7" stroke="#000000" points="1545.6345,-187 1542.6345,-191 1521.6345,-191 1518.6345,-187 1420.3655,-187 1420.3655,-151 1545.6345,-151 1545.6345,-187"/>
<text text-anchor="middle" x="1483" y="-164.8" font-family="Times,serif" font-size="14.00" fill="#000000">SharedCoreModule</text>
</g>
<!-- CoreBreadcrumbComponent&#45;&gt;SharedCoreModule -->
<g id="edge1" class="edge">
<title>CoreBreadcrumbComponent&#45;&gt;SharedCoreModule</title>
<path fill="none" stroke="#000000" d="M2748.8806,-122.1686C2748.8806,-141.0898 2748.8806,-168 2748.8806,-168 2748.8806,-168 1555.7752,-168 1555.7752,-168"/>
<polygon fill="#000000" stroke="#000000" points="1555.7753,-164.5001 1545.7752,-168 1555.7752,-171.5001 1555.7753,-164.5001"/>
</g>
<!-- DateComponent -->
<g id="node2" class="node">
<title>DateComponent</title>
<polygon fill="#ffffb3" stroke="#000000" points="2726.7591,-122 2619.2409,-122 2619.2409,-86 2726.7591,-86 2726.7591,-122"/>
<text text-anchor="middle" x="2673" y="-99.8" font-family="Times,serif" font-size="14.00" fill="#000000">DateComponent</text>
</g>
<!-- DateComponent&#45;&gt;SharedCoreModule -->
<g id="edge2" class="edge">
<title>DateComponent&#45;&gt;SharedCoreModule</title>
<path fill="none" stroke="#000000" d="M2632.492,-122.2667C2632.492,-140.5552 2632.492,-166 2632.492,-166 2632.492,-166 1556.0279,-166 1556.0279,-166"/>
<polygon fill="#000000" stroke="#000000" points="1556.028,-162.5001 1546.0279,-166 1556.0279,-169.5001 1556.028,-162.5001"/>
</g>
<!-- DateFieldFormatDirective -->
<g id="node3" class="node">
<title>DateFieldFormatDirective</title>
<polygon fill="#ffffb3" stroke="#000000" points="2600.7268,-122 2437.2732,-122 2437.2732,-86 2600.7268,-86 2600.7268,-122"/>
<text text-anchor="middle" x="2519" y="-99.8" font-family="Times,serif" font-size="14.00" fill="#000000">DateFieldFormatDirective</text>
</g>
<!-- DateFieldFormatDirective&#45;&gt;SharedCoreModule -->
<g id="edge3" class="edge">
<title>DateFieldFormatDirective&#45;&gt;SharedCoreModule</title>
<path fill="none" stroke="#000000" d="M2447.2532,-122.002C2447.2532,-139.6754 2447.2532,-164 2447.2532,-164 2447.2532,-164 1555.8954,-164 1555.8954,-164"/>
<polygon fill="#000000" stroke="#000000" points="1555.8954,-160.5001 1545.8954,-164 1555.8954,-167.5001 1555.8954,-160.5001"/>
</g>
<!-- DatepickerComponent -->
<g id="node4" class="node">
<title>DatepickerComponent</title>
<polygon fill="#ffffb3" stroke="#000000" points="2419.2394,-122 2276.7606,-122 2276.7606,-86 2419.2394,-86 2419.2394,-122"/>
<text text-anchor="middle" x="2348" y="-99.8" font-family="Times,serif" font-size="14.00" fill="#000000">DatepickerComponent</text>
</g>
<!-- DatepickerComponent&#45;&gt;SharedCoreModule -->
<g id="edge4" class="edge">
<title>DatepickerComponent&#45;&gt;SharedCoreModule</title>
<path fill="none" stroke="#000000" d="M2284.2554,-122.0336C2284.2554,-139.0597 2284.2554,-162 2284.2554,-162 2284.2554,-162 1555.8732,-162 1555.8732,-162"/>
<polygon fill="#000000" stroke="#000000" points="1555.8732,-158.5001 1545.8732,-162 1555.8731,-165.5001 1555.8732,-158.5001"/>
</g>
<!-- DayValidationDirective -->
<g id="node5" class="node">
<title>DayValidationDirective</title>
<polygon fill="#ffffb3" stroke="#000000" points="2258.003,-122 2107.997,-122 2107.997,-86 2258.003,-86 2258.003,-122"/>
<text text-anchor="middle" x="2183" y="-99.8" font-family="Times,serif" font-size="14.00" fill="#000000">DayValidationDirective</text>
</g>
<!-- DayValidationDirective&#45;&gt;SharedCoreModule -->
<g id="edge5" class="edge">
<title>DayValidationDirective&#45;&gt;SharedCoreModule</title>
<path fill="none" stroke="#000000" d="M2113.8739,-122.027C2113.8739,-138.3976 2113.8739,-160 2113.8739,-160 2113.8739,-160 1555.797,-160 1555.797,-160"/>
<polygon fill="#000000" stroke="#000000" points="1555.7971,-156.5001 1545.797,-160 1555.797,-163.5001 1555.7971,-156.5001"/>
</g>
<!-- DropdownComponent -->
<g id="node6" class="node">
<title>DropdownComponent</title>
<polygon fill="#ffffb3" stroke="#000000" points="2089.7064,-122 1948.2936,-122 1948.2936,-86 2089.7064,-86 2089.7064,-122"/>
<text text-anchor="middle" x="2019" y="-99.8" font-family="Times,serif" font-size="14.00" fill="#000000">DropdownComponent</text>
</g>
<!-- DropdownComponent&#45;&gt;SharedCoreModule -->
<g id="edge6" class="edge">
<title>DropdownComponent&#45;&gt;SharedCoreModule</title>
<path fill="none" stroke="#000000" d="M1953.0219,-122.2819C1953.0219,-137.9478 1953.0219,-158 1953.0219,-158 1953.0219,-158 1555.9015,-158 1555.9015,-158"/>
<polygon fill="#000000" stroke="#000000" points="1555.9016,-154.5001 1545.9015,-158 1555.9015,-161.5001 1555.9016,-154.5001"/>
</g>
<!-- FileUploaderComponent -->
<g id="node7" class="node">
<title>FileUploaderComponent</title>
<polygon fill="#ffffb3" stroke="#000000" points="1930.6979,-122 1775.3021,-122 1775.3021,-86 1930.6979,-86 1930.6979,-122"/>
<text text-anchor="middle" x="1853" y="-99.8" font-family="Times,serif" font-size="14.00" fill="#000000">FileUploaderComponent</text>
</g>
<!-- FileUploaderComponent&#45;&gt;SharedCoreModule -->
<g id="edge7" class="edge">
<title>FileUploaderComponent&#45;&gt;SharedCoreModule</title>
<path fill="none" stroke="#000000" d="M1880.6163,-122.1871C1880.6163,-137.1824 1880.6163,-156 1880.6163,-156 1880.6163,-156 1556.0035,-156 1556.0035,-156"/>
<polygon fill="#000000" stroke="#000000" points="1556.0035,-152.5001 1546.0035,-156 1556.0034,-159.5001 1556.0035,-152.5001"/>
</g>
<!-- FormActionBarComponent -->
<g id="node8" class="node">
<title>FormActionBarComponent</title>
<polygon fill="#ffffb3" stroke="#000000" points="1756.9804,-122 1587.0196,-122 1587.0196,-86 1756.9804,-86 1756.9804,-122"/>
<text text-anchor="middle" x="1672" y="-99.8" font-family="Times,serif" font-size="14.00" fill="#000000">FormActionBarComponent</text>
</g>
<!-- FormActionBarComponent&#45;&gt;SharedCoreModule -->
<g id="edge8" class="edge">
<title>FormActionBarComponent&#45;&gt;SharedCoreModule</title>
<path fill="none" stroke="#000000" d="M1701.0801,-122.0511C1701.0801,-136.373 1701.0801,-154 1701.0801,-154 1701.0801,-154 1555.7852,-154 1555.7852,-154"/>
<polygon fill="#000000" stroke="#000000" points="1555.7852,-150.5001 1545.7852,-154 1555.7852,-157.5001 1555.7852,-150.5001"/>
</g>
<!-- FormSubmitBarComponent -->
<g id="node9" class="node">
<title>FormSubmitBarComponent</title>
<polygon fill="#ffffb3" stroke="#000000" points="1569.3327,-122 1396.6673,-122 1396.6673,-86 1569.3327,-86 1569.3327,-122"/>
<text text-anchor="middle" x="1483" y="-99.8" font-family="Times,serif" font-size="14.00" fill="#000000">FormSubmitBarComponent</text>
</g>
<!-- FormSubmitBarComponent&#45;&gt;SharedCoreModule -->
<g id="edge9" class="edge">
<title>FormSubmitBarComponent&#45;&gt;SharedCoreModule</title>
<path fill="none" stroke="#000000" d="M1483,-122.1061C1483,-122.1061 1483,-140.991 1483,-140.991"/>
<polygon fill="#000000" stroke="#000000" points="1479.5001,-140.9909 1483,-150.991 1486.5001,-140.991 1479.5001,-140.9909"/>
</g>
<!-- PageFrameworkComponent -->
<g id="node10" class="node">
<title>PageFrameworkComponent</title>
<polygon fill="#ffffb3" stroke="#000000" points="1378.5744,-122 1205.4256,-122 1205.4256,-86 1378.5744,-86 1378.5744,-122"/>
<text text-anchor="middle" x="1292" y="-99.8" font-family="Times,serif" font-size="14.00" fill="#000000">PageFrameworkComponent</text>
</g>
<!-- PageFrameworkComponent&#45;&gt;SharedCoreModule -->
<g id="edge10" class="edge">
<title>PageFrameworkComponent&#45;&gt;SharedCoreModule</title>
<path fill="none" stroke="#000000" d="M1320.0124,-122.0511C1320.0124,-136.373 1320.0124,-154 1320.0124,-154 1320.0124,-154 1409.9847,-154 1409.9847,-154"/>
<polygon fill="#000000" stroke="#000000" points="1409.9848,-157.5001 1419.9847,-154 1409.9847,-150.5001 1409.9848,-157.5001"/>
</g>
<!-- PageSectionComponent -->
<g id="node11" class="node">
<title>PageSectionComponent</title>
<polygon fill="#ffffb3" stroke="#000000" points="1187.0379,-122 1036.9621,-122 1036.9621,-86 1187.0379,-86 1187.0379,-122"/>
<text text-anchor="middle" x="1112" y="-99.8" font-family="Times,serif" font-size="14.00" fill="#000000">PageSectionComponent</text>
</g>
<!-- PageSectionComponent&#45;&gt;SharedCoreModule -->
<g id="edge11" class="edge">
<title>PageSectionComponent&#45;&gt;SharedCoreModule</title>
<path fill="none" stroke="#000000" d="M1134.2562,-122.1871C1134.2562,-137.1824 1134.2562,-156 1134.2562,-156 1134.2562,-156 1410.2488,-156 1410.2488,-156"/>
<polygon fill="#000000" stroke="#000000" points="1410.2489,-159.5001 1420.2488,-156 1410.2488,-152.5001 1410.2489,-159.5001"/>
</g>
<!-- PasswordComponent -->
<g id="node12" class="node">
<title>PasswordComponent</title>
<polygon fill="#ffffb3" stroke="#000000" points="1018.486,-122 883.514,-122 883.514,-86 1018.486,-86 1018.486,-122"/>
<text text-anchor="middle" x="951" y="-99.8" font-family="Times,serif" font-size="14.00" fill="#000000">PasswordComponent</text>
</g>
<!-- PasswordComponent&#45;&gt;SharedCoreModule -->
<g id="edge12" class="edge">
<title>PasswordComponent&#45;&gt;SharedCoreModule</title>
<path fill="none" stroke="#000000" d="M1014.868,-122.2819C1014.868,-137.9478 1014.868,-158 1014.868,-158 1014.868,-158 1410.3514,-158 1410.3514,-158"/>
<polygon fill="#000000" stroke="#000000" points="1410.3514,-161.5001 1420.3514,-158 1410.3513,-154.5001 1410.3514,-161.5001"/>
</g>
<!-- PostalCodeComponent -->
<g id="node13" class="node">
<title>PostalCodeComponent</title>
<polygon fill="#ffffb3" stroke="#000000" points="865.6066,-122 720.3934,-122 720.3934,-86 865.6066,-86 865.6066,-122"/>
<text text-anchor="middle" x="793" y="-99.8" font-family="Times,serif" font-size="14.00" fill="#000000">PostalCodeComponent</text>
</g>
<!-- PostalCodeComponent&#45;&gt;SharedCoreModule -->
<g id="edge13" class="edge">
<title>PostalCodeComponent&#45;&gt;SharedCoreModule</title>
<path fill="none" stroke="#000000" d="M859.9283,-122.027C859.9283,-138.3976 859.9283,-160 859.9283,-160 859.9283,-160 1410.1165,-160 1410.1165,-160"/>
<polygon fill="#000000" stroke="#000000" points="1410.1165,-163.5001 1420.1165,-160 1410.1164,-156.5001 1410.1165,-163.5001"/>
</g>
<!-- ThumbnailComponent -->
<g id="node14" class="node">
<title>ThumbnailComponent</title>
<polygon fill="#ffffb3" stroke="#000000" points="702.2716,-122 559.7284,-122 559.7284,-86 702.2716,-86 702.2716,-122"/>
<text text-anchor="middle" x="631" y="-99.8" font-family="Times,serif" font-size="14.00" fill="#000000">ThumbnailComponent</text>
</g>
<!-- ThumbnailComponent&#45;&gt;SharedCoreModule -->
<g id="edge14" class="edge">
<title>ThumbnailComponent&#45;&gt;SharedCoreModule</title>
<path fill="none" stroke="#000000" d="M695.2607,-122.0336C695.2607,-139.0597 695.2607,-162 695.2607,-162 695.2607,-162 1410.1986,-162 1410.1986,-162"/>
<polygon fill="#000000" stroke="#000000" points="1410.1987,-165.5001 1420.1986,-162 1410.1986,-158.5001 1410.1987,-165.5001"/>
</g>
<!-- ToggleComponent -->
<g id="node15" class="node">
<title>ToggleComponent</title>
<polygon fill="#ffffb3" stroke="#000000" points="541.4902,-122 420.5098,-122 420.5098,-86 541.4902,-86 541.4902,-122"/>
<text text-anchor="middle" x="481" y="-99.8" font-family="Times,serif" font-size="14.00" fill="#000000">ToggleComponent</text>
</g>
<!-- ToggleComponent&#45;&gt;SharedCoreModule -->
<g id="edge15" class="edge">
<title>ToggleComponent&#45;&gt;SharedCoreModule</title>
<path fill="none" stroke="#000000" d="M532.8701,-122.002C532.8701,-139.6754 532.8701,-164 532.8701,-164 532.8701,-164 1410.2919,-164 1410.2919,-164"/>
<polygon fill="#000000" stroke="#000000" points="1410.2919,-167.5001 1420.2919,-164 1410.2918,-160.5001 1410.2919,-167.5001"/>
</g>
<!-- WizardProgressBarComponent -->
<g id="node16" class="node">
<title>WizardProgressBarComponent</title>
<polygon fill="#ffffb3" stroke="#000000" points="402.4468,-122 211.5532,-122 211.5532,-86 402.4468,-86 402.4468,-122"/>
<text text-anchor="middle" x="307" y="-99.8" font-family="Times,serif" font-size="14.00" fill="#000000">WizardProgressBarComponent</text>
</g>
<!-- WizardProgressBarComponent&#45;&gt;SharedCoreModule -->
<g id="edge16" class="edge">
<title>WizardProgressBarComponent&#45;&gt;SharedCoreModule</title>
<path fill="none" stroke="#000000" d="M390.9892,-122.2667C390.9892,-140.5552 390.9892,-166 390.9891,-166 390.9891,-166 1409.9683,-166 1409.9683,-166"/>
<polygon fill="#000000" stroke="#000000" points="1409.9683,-169.5001 1419.9683,-166 1409.9682,-162.5001 1409.9683,-169.5001"/>
</g>
<!-- YearValidateDirective -->
<g id="node17" class="node">
<title>YearValidateDirective</title>
<polygon fill="#ffffb3" stroke="#000000" points="193.2017,-122 50.7983,-122 50.7983,-86 193.2017,-86 193.2017,-122"/>
<text text-anchor="middle" x="122" y="-99.8" font-family="Times,serif" font-size="14.00" fill="#000000">YearValidateDirective</text>
</g>
<!-- YearValidateDirective&#45;&gt;SharedCoreModule -->
<g id="edge17" class="edge">
<title>YearValidateDirective&#45;&gt;SharedCoreModule</title>
<path fill="none" stroke="#000000" d="M178.9387,-122.1686C178.9387,-141.0898 178.9387,-168 178.9387,-168 178.9387,-168 1410.1024,-168 1410.1024,-168"/>
<polygon fill="#000000" stroke="#000000" points="1410.1024,-171.5001 1420.1024,-168 1410.1024,-164.5001 1410.1024,-171.5001"/>
</g>
<!-- CoreBreadcrumbComponent  -->
<g id="node19" class="node">
<title>CoreBreadcrumbComponent </title>
<polygon fill="#fb8072" stroke="#000000" points="2951.7366,-252 2770.2634,-252 2770.2634,-216 2951.7366,-216 2951.7366,-252"/>
<text text-anchor="middle" x="2861" y="-229.8" font-family="Times,serif" font-size="14.00" fill="#000000">CoreBreadcrumbComponent </text>
</g>
<!-- SharedCoreModule&#45;&gt;CoreBreadcrumbComponent  -->
<g id="edge18" class="edge">
<title>SharedCoreModule&#45;&gt;CoreBreadcrumbComponent </title>
<path fill="none" stroke="#000000" stroke-dasharray="5,2" d="M1546.0356,-171C1814.2192,-171 2846.625,-171 2846.625,-171 2846.625,-171 2846.625,-205.7778 2846.625,-205.7778"/>
<polygon fill="#000000" stroke="#000000" points="2843.1251,-205.7778 2846.625,-215.7778 2850.1251,-205.7778 2843.1251,-205.7778"/>
</g>
<!-- DateComponent  -->
<g id="node20" class="node">
<title>DateComponent </title>
<polygon fill="#fb8072" stroke="#000000" points="2752.7591,-252 2641.2409,-252 2641.2409,-216 2752.7591,-216 2752.7591,-252"/>
<text text-anchor="middle" x="2697" y="-229.8" font-family="Times,serif" font-size="14.00" fill="#000000">DateComponent </text>
</g>
<!-- SharedCoreModule&#45;&gt;DateComponent  -->
<g id="edge19" class="edge">
<title>SharedCoreModule&#45;&gt;DateComponent </title>
<path fill="none" stroke="#000000" stroke-dasharray="5,2" d="M1545.8866,-173C1793.027,-173 2684.125,-173 2684.125,-173 2684.125,-173 2684.125,-205.698 2684.125,-205.698"/>
<polygon fill="#000000" stroke="#000000" points="2680.6251,-205.698 2684.125,-215.698 2687.6251,-205.698 2680.6251,-205.698"/>
</g>
<!-- DateFieldFormatDirective  -->
<g id="node21" class="node">
<title>DateFieldFormatDirective </title>
<polygon fill="#fb8072" stroke="#000000" points="2623.7268,-252 2456.2732,-252 2456.2732,-216 2623.7268,-216 2623.7268,-252"/>
<text text-anchor="middle" x="2540" y="-229.8" font-family="Times,serif" font-size="14.00" fill="#000000">DateFieldFormatDirective </text>
</g>
<!-- SharedCoreModule&#45;&gt;DateFieldFormatDirective  -->
<g id="edge20" class="edge">
<title>SharedCoreModule&#45;&gt;DateFieldFormatDirective </title>
<path fill="none" stroke="#000000" stroke-dasharray="5,2" d="M1545.665,-175C1771.2502,-175 2528.625,-175 2528.625,-175 2528.625,-175 2528.625,-205.9775 2528.625,-205.9775"/>
<polygon fill="#000000" stroke="#000000" points="2525.1251,-205.9774 2528.625,-215.9775 2532.1251,-205.9775 2525.1251,-205.9774"/>
</g>
<!-- DatepickerComponent  -->
<g id="node22" class="node">
<title>DatepickerComponent </title>
<polygon fill="#fb8072" stroke="#000000" points="2438.2394,-252 2291.7606,-252 2291.7606,-216 2438.2394,-216 2438.2394,-252"/>
<text text-anchor="middle" x="2365" y="-229.8" font-family="Times,serif" font-size="14.00" fill="#000000">DatepickerComponent </text>
</g>
<!-- SharedCoreModule&#45;&gt;DatepickerComponent  -->
<g id="edge21" class="edge">
<title>SharedCoreModule&#45;&gt;DatepickerComponent </title>
<path fill="none" stroke="#000000" stroke-dasharray="5,2" d="M1545.757,-177C1745.8421,-177 2355.625,-177 2355.625,-177 2355.625,-177 2355.625,-205.9648 2355.625,-205.9648"/>
<polygon fill="#000000" stroke="#000000" points="2352.1251,-205.9648 2355.625,-215.9648 2359.1251,-205.9649 2352.1251,-205.9648"/>
</g>
<!-- DayValidationDirective  -->
<g id="node23" class="node">
<title>DayValidationDirective </title>
<polygon fill="#fb8072" stroke="#000000" points="2274.0022,-252 2119.9978,-252 2119.9978,-216 2274.0022,-216 2274.0022,-252"/>
<text text-anchor="middle" x="2197" y="-229.8" font-family="Times,serif" font-size="14.00" fill="#000000">DayValidationDirective </text>
</g>
<!-- SharedCoreModule&#45;&gt;DayValidationDirective  -->
<g id="edge22" class="edge">
<title>SharedCoreModule&#45;&gt;DayValidationDirective </title>
<path fill="none" stroke="#000000" stroke-dasharray="5,2" d="M1545.6639,-179C1718.4792,-179 2189.125,-179 2189.125,-179 2189.125,-179 2189.125,-205.9909 2189.125,-205.9909"/>
<polygon fill="#000000" stroke="#000000" points="2185.6251,-205.9909 2189.125,-215.9909 2192.6251,-205.991 2185.6251,-205.9909"/>
</g>
<!-- DropdownComponent  -->
<g id="node24" class="node">
<title>DropdownComponent </title>
<polygon fill="#fb8072" stroke="#000000" points="2102.2065,-252 1957.7935,-252 1957.7935,-216 2102.2065,-216 2102.2065,-252"/>
<text text-anchor="middle" x="2030" y="-229.8" font-family="Times,serif" font-size="14.00" fill="#000000">DropdownComponent </text>
</g>
<!-- SharedCoreModule&#45;&gt;DropdownComponent  -->
<g id="edge23" class="edge">
<title>SharedCoreModule&#45;&gt;DropdownComponent </title>
<path fill="none" stroke="#000000" stroke-dasharray="5,2" d="M1545.8094,-181C1688.2699,-181 2023.625,-181 2023.625,-181 2023.625,-181 2023.625,-205.7604 2023.625,-205.7604"/>
<polygon fill="#000000" stroke="#000000" points="2020.1251,-205.7604 2023.625,-215.7604 2027.1251,-205.7604 2020.1251,-205.7604"/>
</g>
<!-- FileUploaderComponent  -->
<g id="node25" class="node">
<title>FileUploaderComponent </title>
<polygon fill="#fb8072" stroke="#000000" points="1939.1981,-252 1780.8019,-252 1780.8019,-216 1939.1981,-216 1939.1981,-252"/>
<text text-anchor="middle" x="1860" y="-229.8" font-family="Times,serif" font-size="14.00" fill="#000000">FileUploaderComponent </text>
</g>
<!-- SharedCoreModule&#45;&gt;FileUploaderComponent  -->
<g id="edge24" class="edge">
<title>SharedCoreModule&#45;&gt;FileUploaderComponent </title>
<path fill="none" stroke="#000000" stroke-dasharray="5,2" d="M1545.9538,-183C1646.1323,-183 1830.6337,-183 1830.6337,-183 1830.6337,-183 1830.6337,-205.8757 1830.6337,-205.8757"/>
<polygon fill="#000000" stroke="#000000" points="1827.1338,-205.8757 1830.6337,-215.8757 1834.1338,-205.8757 1827.1338,-205.8757"/>
</g>
<!-- FormActionBarComponent  -->
<g id="node26" class="node">
<title>FormActionBarComponent </title>
<polygon fill="#fb8072" stroke="#000000" points="1762.9811,-252 1589.0189,-252 1589.0189,-216 1762.9811,-216 1762.9811,-252"/>
<text text-anchor="middle" x="1676" y="-229.8" font-family="Times,serif" font-size="14.00" fill="#000000">FormActionBarComponent </text>
</g>
<!-- SharedCoreModule&#45;&gt;FormActionBarComponent  -->
<g id="edge25" class="edge">
<title>SharedCoreModule&#45;&gt;FormActionBarComponent </title>
<path fill="none" stroke="#000000" stroke-dasharray="5,2" d="M1545.6991,-185C1591.3337,-185 1645.1699,-185 1645.1699,-185 1645.1699,-185 1645.1699,-205.7542 1645.1699,-205.7542"/>
<polygon fill="#000000" stroke="#000000" points="1641.67,-205.7542 1645.1699,-215.7542 1648.67,-205.7542 1641.67,-205.7542"/>
</g>
<!-- FormSubmitBarComponent  -->
<g id="node27" class="node">
<title>FormSubmitBarComponent </title>
<polygon fill="#fb8072" stroke="#000000" points="1570.8325,-252 1395.1675,-252 1395.1675,-216 1570.8325,-216 1570.8325,-252"/>
<text text-anchor="middle" x="1483" y="-229.8" font-family="Times,serif" font-size="14.00" fill="#000000">FormSubmitBarComponent </text>
</g>
<!-- SharedCoreModule&#45;&gt;FormSubmitBarComponent  -->
<g id="edge26" class="edge">
<title>SharedCoreModule&#45;&gt;FormSubmitBarComponent </title>
<path fill="none" stroke="#000000" stroke-dasharray="5,2" d="M1483,-187.1061C1483,-187.1061 1483,-205.991 1483,-205.991"/>
<polygon fill="#000000" stroke="#000000" points="1479.5001,-205.9909 1483,-215.991 1486.5001,-205.991 1479.5001,-205.9909"/>
</g>
<!-- PageFrameworkComponent  -->
<g id="node28" class="node">
<title>PageFrameworkComponent </title>
<polygon fill="#fb8072" stroke="#000000" points="1377.0749,-252 1200.9251,-252 1200.9251,-216 1377.0749,-216 1377.0749,-252"/>
<text text-anchor="middle" x="1289" y="-229.8" font-family="Times,serif" font-size="14.00" fill="#000000">PageFrameworkComponent </text>
</g>
<!-- SharedCoreModule&#45;&gt;PageFrameworkComponent  -->
<g id="edge27" class="edge">
<title>SharedCoreModule&#45;&gt;PageFrameworkComponent </title>
<path fill="none" stroke="#000000" stroke-dasharray="5,2" d="M1420.1764,-185C1355.0728,-185 1262.7376,-185 1262.7376,-185 1262.7376,-185 1262.7376,-205.7542 1262.7376,-205.7542"/>
<polygon fill="#000000" stroke="#000000" points="1259.2377,-205.7542 1262.7376,-215.7542 1266.2377,-205.7542 1259.2377,-205.7542"/>
</g>
<!-- PageSectionComponent  -->
<g id="node29" class="node">
<title>PageSectionComponent </title>
<polygon fill="#fb8072" stroke="#000000" points="1183.0372,-252 1028.9628,-252 1028.9628,-216 1183.0372,-216 1183.0372,-252"/>
<text text-anchor="middle" x="1106" y="-229.8" font-family="Times,serif" font-size="14.00" fill="#000000">PageSectionComponent </text>
</g>
<!-- SharedCoreModule&#45;&gt;PageSectionComponent  -->
<g id="edge28" class="edge">
<title>SharedCoreModule&#45;&gt;PageSectionComponent </title>
<path fill="none" stroke="#000000" stroke-dasharray="5,2" d="M1420.014,-183C1307.928,-183 1085.4938,-183 1085.4938,-183 1085.4938,-183 1085.4938,-205.8757 1085.4938,-205.8757"/>
<polygon fill="#000000" stroke="#000000" points="1081.9939,-205.8757 1085.4938,-215.8757 1088.9939,-205.8757 1081.9939,-205.8757"/>
</g>
<!-- PasswordComponent  -->
<g id="node30" class="node">
<title>PasswordComponent </title>
<polygon fill="#fb8072" stroke="#000000" points="1011.4869,-252 872.5131,-252 872.5131,-216 1011.4869,-216 1011.4869,-252"/>
<text text-anchor="middle" x="942" y="-229.8" font-family="Times,serif" font-size="14.00" fill="#000000">PasswordComponent </text>
</g>
<!-- SharedCoreModule&#45;&gt;PasswordComponent  -->
<g id="edge29" class="edge">
<title>SharedCoreModule&#45;&gt;PasswordComponent </title>
<path fill="none" stroke="#000000" stroke-dasharray="5,2" d="M1420.2456,-181C1278.8052,-181 947.375,-181 947.375,-181 947.375,-181 947.375,-205.7604 947.375,-205.7604"/>
<polygon fill="#000000" stroke="#000000" points="943.8751,-205.7604 947.375,-215.7604 950.8751,-205.7604 943.8751,-205.7604"/>
</g>
<!-- PostalCodeComponent  -->
<g id="node31" class="node">
<title>PostalCodeComponent </title>
<polygon fill="#fb8072" stroke="#000000" points="854.1071,-252 705.8929,-252 705.8929,-216 854.1071,-216 854.1071,-252"/>
<text text-anchor="middle" x="780" y="-229.8" font-family="Times,serif" font-size="14.00" fill="#000000">PostalCodeComponent </text>
</g>
<!-- SharedCoreModule&#45;&gt;PostalCodeComponent  -->
<g id="edge30" class="edge">
<title>SharedCoreModule&#45;&gt;PostalCodeComponent </title>
<path fill="none" stroke="#000000" stroke-dasharray="5,2" d="M1420.3487,-179C1249.3601,-179 787.375,-179 787.375,-179 787.375,-179 787.375,-205.9909 787.375,-205.9909"/>
<polygon fill="#000000" stroke="#000000" points="783.8751,-205.9909 787.375,-215.9909 790.8751,-205.991 783.8751,-205.9909"/>
</g>
<!-- ThumbnailComponent  -->
<g id="node32" class="node">
<title>ThumbnailComponent </title>
<polygon fill="#fb8072" stroke="#000000" points="688.2717,-252 541.7283,-252 541.7283,-216 688.2717,-216 688.2717,-252"/>
<text text-anchor="middle" x="615" y="-229.8" font-family="Times,serif" font-size="14.00" fill="#000000">ThumbnailComponent </text>
</g>
<!-- SharedCoreModule&#45;&gt;ThumbnailComponent  -->
<g id="edge31" class="edge">
<title>SharedCoreModule&#45;&gt;ThumbnailComponent </title>
<path fill="none" stroke="#000000" stroke-dasharray="5,2" d="M1420.1746,-177C1222.1221,-177 623.875,-177 623.875,-177 623.875,-177 623.875,-205.9648 623.875,-205.9648"/>
<polygon fill="#000000" stroke="#000000" points="620.3751,-205.9648 623.875,-215.9648 627.3751,-205.9649 620.3751,-205.9648"/>
</g>
<!-- ToggleComponent  -->
<g id="node33" class="node">
<title>ToggleComponent </title>
<polygon fill="#fb8072" stroke="#000000" points="524.4912,-252 399.5088,-252 399.5088,-216 524.4912,-216 524.4912,-252"/>
<text text-anchor="middle" x="462" y="-229.8" font-family="Times,serif" font-size="14.00" fill="#000000">ToggleComponent </text>
</g>
<!-- SharedCoreModule&#45;&gt;ToggleComponent  -->
<g id="edge32" class="edge">
<title>SharedCoreModule&#45;&gt;ToggleComponent </title>
<path fill="none" stroke="#000000" stroke-dasharray="5,2" d="M1420.1627,-175C1199.3672,-175 472.375,-175 472.375,-175 472.375,-175 472.375,-205.9775 472.375,-205.9775"/>
<polygon fill="#000000" stroke="#000000" points="468.8751,-205.9774 472.375,-215.9775 475.8751,-205.9775 468.8751,-205.9774"/>
</g>
<!-- WizardProgressBarComponent  -->
<g id="node34" class="node">
<title>WizardProgressBarComponent </title>
<polygon fill="#fb8072" stroke="#000000" points="382.4473,-252 187.5527,-252 187.5527,-216 382.4473,-216 382.4473,-252"/>
<text text-anchor="middle" x="285" y="-229.8" font-family="Times,serif" font-size="14.00" fill="#000000">WizardProgressBarComponent </text>
</g>
<!-- SharedCoreModule&#45;&gt;WizardProgressBarComponent  -->
<g id="edge33" class="edge">
<title>SharedCoreModule&#45;&gt;WizardProgressBarComponent </title>
<path fill="none" stroke="#000000" stroke-dasharray="5,2" d="M1420.0662,-173C1174.8504,-173 296.875,-173 296.875,-173 296.875,-173 296.875,-205.698 296.875,-205.698"/>
<polygon fill="#000000" stroke="#000000" points="293.3751,-205.698 296.875,-215.698 300.3751,-205.698 293.3751,-205.698"/>
</g>
<!-- YearValidateDirective  -->
<g id="node35" class="node">
<title>YearValidateDirective </title>
<polygon fill="#fb8072" stroke="#000000" points="170.2015,-252 23.7985,-252 23.7985,-216 170.2015,-216 170.2015,-252"/>
<text text-anchor="middle" x="97" y="-229.8" font-family="Times,serif" font-size="14.00" fill="#000000">YearValidateDirective </text>
</g>
<!-- SharedCoreModule&#45;&gt;YearValidateDirective  -->
<g id="edge34" class="edge">
<title>SharedCoreModule&#45;&gt;YearValidateDirective </title>
<path fill="none" stroke="#000000" stroke-dasharray="5,2" d="M1420.0021,-171C1150.7614,-171 110.375,-171 110.375,-171 110.375,-171 110.375,-205.7778 110.375,-205.7778"/>
<polygon fill="#000000" stroke="#000000" points="106.8751,-205.7778 110.375,-215.7778 113.8751,-205.7778 106.8751,-205.7778"/>
</g>
</g>
</svg>
