<?xml version="1.0" encoding="UTF-8" standalone="no"?>
<!DOCTYPE svg PUBLIC "-//W3C//DTD SVG 1.1//EN"
 "http://www.w3.org/Graphics/SVG/1.1/DTD/svg11.dtd">
<!-- Generated by graphviz version 2.40.1 (20161225.0304)
 -->
<!-- Title: dependencies Pages: 1 -->
<svg width="3697pt" height="284pt"
 viewBox="0.00 0.00 3697.00 284.00" xmlns="http://www.w3.org/2000/svg" xmlns:xlink="http://www.w3.org/1999/xlink">
<g id="graph0" class="graph" transform="scale(1 1) rotate(0) translate(4 280)">
<title>dependencies</title>
<polygon fill="#ffffff" stroke="transparent" points="-4,4 -4,-280 3693,-280 3693,4 -4,4"/>
<text text-anchor="start" x="1823.5091" y="-42.4" font-family="sans-serif" font-weight="bold" font-size="14.00" fill="#000000">Legend</text>
<polygon fill="#ffffb3" stroke="transparent" points="1610.5,-10 1610.5,-30 1630.5,-30 1630.5,-10 1610.5,-10"/>
<text text-anchor="start" x="1634.129" y="-15.4" font-family="sans-serif" font-size="14.00" fill="#000000"> &#160;Declarations</text>
<polygon fill="#8dd3c7" stroke="transparent" points="1723.5,-10 1723.5,-30 1743.5,-30 1743.5,-10 1723.5,-10"/>
<text text-anchor="start" x="1747.2251" y="-15.4" font-family="sans-serif" font-size="14.00" fill="#000000"> &#160;Module</text>
<polygon fill="#80b1d3" stroke="transparent" points="1809.5,-10 1809.5,-30 1829.5,-30 1829.5,-10 1809.5,-10"/>
<text text-anchor="start" x="1833.2812" y="-15.4" font-family="sans-serif" font-size="14.00" fill="#000000"> &#160;Bootstrap</text>
<polygon fill="#fdb462" stroke="transparent" points="1906.5,-10 1906.5,-30 1926.5,-30 1926.5,-10 1906.5,-10"/>
<text text-anchor="start" x="1930.1732" y="-15.4" font-family="sans-serif" font-size="14.00" fill="#000000"> &#160;Providers</text>
<polygon fill="#fb8072" stroke="transparent" points="2002.5,-10 2002.5,-30 2022.5,-30 2022.5,-10 2002.5,-10"/>
<text text-anchor="start" x="2026.2258" y="-15.4" font-family="sans-serif" font-size="14.00" fill="#000000"> &#160;Exports</text>
<g id="clust1" class="cluster">
<title>cluster_SharedCoreModule</title>
<polygon fill="none" stroke="#000000" stroke-dasharray="1,5" points="8,-70 8,-268 3681,-268 3681,-70 8,-70"/>
</g>
<g id="clust2" class="cluster">
<title>cluster_SharedCoreModule_declarations</title>
<polygon fill="none" stroke="#000000" points="62,-78 62,-130 3644,-130 3644,-78 62,-78"/>
</g>
<g id="clust26" class="cluster">
<title>cluster_SharedCoreModule_exports</title>
<polygon fill="none" stroke="#000000" points="16,-208 16,-260 3673,-260 3673,-208 16,-208"/>
</g>
<!-- AddressComponent -->
<g id="node1" class="node">
<title>AddressComponent</title>
<polygon fill="#ffffb3" stroke="#000000" points="3635.7036,-122 3508.2964,-122 3508.2964,-86 3635.7036,-86 3635.7036,-122"/>
<text text-anchor="middle" x="3572" y="-99.8" font-family="Times,serif" font-size="14.00" fill="#000000">AddressComponent</text>
</g>
<!-- SharedCoreModule -->
<g id="node23" class="node">
<title>SharedCoreModule</title>
<polygon fill="#8dd3c7" stroke="#000000" points="1862.6345,-187 1859.6345,-191 1838.6345,-191 1835.6345,-187 1737.3655,-187 1737.3655,-151 1862.6345,-151 1862.6345,-187"/>
<text text-anchor="middle" x="1800" y="-164.8" font-family="Times,serif" font-size="14.00" fill="#000000">SharedCoreModule</text>
</g>
<!-- AddressComponent&#45;&gt;SharedCoreModule -->
<g id="edge1" class="edge">
<title>AddressComponent&#45;&gt;SharedCoreModule</title>
<path fill="none" stroke="#000000" d="M3512.4367,-122.1061C3512.4367,-141.3391 3512.4367,-169 3512.4367,-169 3512.4367,-169 1872.7219,-169 1872.7219,-169"/>
<polygon fill="#000000" stroke="#000000" points="1872.7219,-165.5001 1862.7219,-169 1872.7219,-172.5001 1872.7219,-165.5001"/>
</g>
<!-- CityComponent -->
<g id="node2" class="node">
<title>CityComponent</title>
<polygon fill="#ffffb3" stroke="#000000" points="3490.9512,-122 3385.0488,-122 3385.0488,-86 3490.9512,-86 3490.9512,-122"/>
<text text-anchor="middle" x="3438" y="-99.8" font-family="Times,serif" font-size="14.00" fill="#000000">CityComponent</text>
</g>
<!-- CityComponent&#45;&gt;SharedCoreModule -->
<g id="edge2" class="edge">
<title>CityComponent&#45;&gt;SharedCoreModule</title>
<path fill="none" stroke="#000000" d="M3398.5716,-122.2222C3398.5716,-140.8285 3398.5716,-167 3398.5716,-167 3398.5716,-167 1872.6659,-167 1872.6659,-167"/>
<polygon fill="#000000" stroke="#000000" points="1872.6659,-163.5001 1862.6659,-167 1872.6659,-170.5001 1872.6659,-163.5001"/>
</g>
<!-- CoreBreadcrumbComponent -->
<g id="node3" class="node">
<title>CoreBreadcrumbComponent</title>
<polygon fill="#ffffb3" stroke="#000000" points="3366.7366,-122 3189.2634,-122 3189.2634,-86 3366.7366,-86 3366.7366,-122"/>
<text text-anchor="middle" x="3278" y="-99.8" font-family="Times,serif" font-size="14.00" fill="#000000">CoreBreadcrumbComponent</text>
</g>
<!-- CoreBreadcrumbComponent&#45;&gt;SharedCoreModule -->
<g id="edge3" class="edge">
<title>CoreBreadcrumbComponent&#45;&gt;SharedCoreModule</title>
<path fill="none" stroke="#000000" d="M3199.371,-122.2667C3199.371,-140.5552 3199.371,-166 3199.371,-166 3199.371,-166 1872.8466,-166 1872.8466,-166"/>
<polygon fill="#000000" stroke="#000000" points="1872.8467,-162.5001 1862.8466,-166 1872.8466,-169.5001 1872.8467,-162.5001"/>
</g>
<!-- CountryComponent -->
<g id="node4" class="node">
<title>CountryComponent</title>
<polygon fill="#ffffb3" stroke="#000000" points="3171.7204,-122 3044.2796,-122 3044.2796,-86 3171.7204,-86 3171.7204,-122"/>
<text text-anchor="middle" x="3108" y="-99.8" font-family="Times,serif" font-size="14.00" fill="#000000">CountryComponent</text>
</g>
<!-- CountryComponent&#45;&gt;SharedCoreModule -->
<g id="edge4" class="edge">
<title>CountryComponent&#45;&gt;SharedCoreModule</title>
<path fill="none" stroke="#000000" d="M3052.0149,-122.002C3052.0149,-139.6754 3052.0149,-164 3052.0149,-164 3052.0149,-164 1872.9456,-164 1872.9456,-164"/>
<polygon fill="#000000" stroke="#000000" points="1872.9457,-160.5001 1862.9456,-164 1872.9456,-167.5001 1872.9457,-160.5001"/>
</g>
<!-- DateComponent -->
<g id="node5" class="node">
<title>DateComponent</title>
<polygon fill="#ffffb3" stroke="#000000" points="3026.7591,-122 2919.2409,-122 2919.2409,-86 3026.7591,-86 3026.7591,-122"/>
<text text-anchor="middle" x="2973" y="-99.8" font-family="Times,serif" font-size="14.00" fill="#000000">DateComponent</text>
</g>
<!-- DateComponent&#45;&gt;SharedCoreModule -->
<g id="edge5" class="edge">
<title>DateComponent&#45;&gt;SharedCoreModule</title>
<path fill="none" stroke="#000000" d="M2924.7456,-122.0336C2924.7456,-139.0597 2924.7456,-162 2924.7456,-162 2924.7456,-162 1872.8813,-162 1872.8813,-162"/>
<polygon fill="#000000" stroke="#000000" points="1872.8813,-158.5001 1862.8813,-162 1872.8812,-165.5001 1872.8813,-158.5001"/>
</g>
<!-- DateFieldFormatDirective -->
<g id="node6" class="node">
<title>DateFieldFormatDirective</title>
<polygon fill="#ffffb3" stroke="#000000" points="2900.7268,-122 2737.2732,-122 2737.2732,-86 2900.7268,-86 2900.7268,-122"/>
<text text-anchor="middle" x="2819" y="-99.8" font-family="Times,serif" font-size="14.00" fill="#000000">DateFieldFormatDirective</text>
</g>
<!-- DateFieldFormatDirective&#45;&gt;SharedCoreModule -->
<g id="edge6" class="edge">
<title>DateFieldFormatDirective&#45;&gt;SharedCoreModule</title>
<path fill="none" stroke="#000000" d="M2741.2617,-122.0352C2741.2617,-138.7344 2741.2617,-161 2741.2617,-161 2741.2617,-161 1872.8536,-161 1872.8536,-161"/>
<polygon fill="#000000" stroke="#000000" points="1872.8537,-157.5001 1862.8536,-161 1872.8536,-164.5001 1872.8537,-157.5001"/>
</g>
<!-- DatepickerComponent -->
<g id="node7" class="node">
<title>DatepickerComponent</title>
<polygon fill="#ffffb3" stroke="#000000" points="2719.2394,-122 2576.7606,-122 2576.7606,-86 2719.2394,-86 2719.2394,-122"/>
<text text-anchor="middle" x="2648" y="-99.8" font-family="Times,serif" font-size="14.00" fill="#000000">DatepickerComponent</text>
</g>
<!-- DatepickerComponent&#45;&gt;SharedCoreModule -->
<g id="edge7" class="edge">
<title>DatepickerComponent&#45;&gt;SharedCoreModule</title>
<path fill="none" stroke="#000000" d="M2673.2065,-122.0091C2673.2065,-138.0494 2673.2065,-159 2673.2065,-159 2673.2065,-159 1872.7989,-159 1872.7989,-159"/>
<polygon fill="#000000" stroke="#000000" points="1872.7989,-155.5001 1862.7989,-159 1872.7988,-162.5001 1872.7989,-155.5001"/>
</g>
<!-- DayValidationDirective -->
<g id="node8" class="node">
<title>DayValidationDirective</title>
<polygon fill="#ffffb3" stroke="#000000" points="2558.003,-122 2407.997,-122 2407.997,-86 2558.003,-86 2558.003,-122"/>
<text text-anchor="middle" x="2483" y="-99.8" font-family="Times,serif" font-size="14.00" fill="#000000">DayValidationDirective</text>
</g>
<!-- DayValidationDirective&#45;&gt;SharedCoreModule -->
<g id="edge8" class="edge">
<title>DayValidationDirective&#45;&gt;SharedCoreModule</title>
<path fill="none" stroke="#000000" d="M2508.5004,-122.2819C2508.5004,-137.9478 2508.5004,-158 2508.5004,-158 2508.5004,-158 1872.8747,-158 1872.8747,-158"/>
<polygon fill="#000000" stroke="#000000" points="1872.8747,-154.5001 1862.8747,-158 1872.8746,-161.5001 1872.8747,-154.5001"/>
</g>
<!-- DropdownComponent -->
<g id="node9" class="node">
<title>DropdownComponent</title>
<polygon fill="#ffffb3" stroke="#000000" points="2389.7064,-122 2248.2936,-122 2248.2936,-86 2389.7064,-86 2389.7064,-122"/>
<text text-anchor="middle" x="2319" y="-99.8" font-family="Times,serif" font-size="14.00" fill="#000000">DropdownComponent</text>
</g>
<!-- DropdownComponent&#45;&gt;SharedCoreModule -->
<g id="edge9" class="edge">
<title>DropdownComponent&#45;&gt;SharedCoreModule</title>
<path fill="none" stroke="#000000" d="M2295.4656,-122.1871C2295.4656,-137.1824 2295.4656,-156 2295.4656,-156 2295.4656,-156 1872.7511,-156 1872.7511,-156"/>
<polygon fill="#000000" stroke="#000000" points="1872.7511,-152.5001 1862.7511,-156 1872.751,-159.5001 1872.7511,-152.5001"/>
</g>
<!-- FileUploaderComponent -->
<g id="node10" class="node">
<title>FileUploaderComponent</title>
<polygon fill="#ffffb3" stroke="#000000" points="2230.6979,-122 2075.3021,-122 2075.3021,-86 2230.6979,-86 2230.6979,-122"/>
<text text-anchor="middle" x="2153" y="-99.8" font-family="Times,serif" font-size="14.00" fill="#000000">FileUploaderComponent</text>
</g>
<!-- FileUploaderComponent&#45;&gt;SharedCoreModule -->
<g id="edge10" class="edge">
<title>FileUploaderComponent&#45;&gt;SharedCoreModule</title>
<path fill="none" stroke="#000000" d="M2126.3837,-122.1243C2126.3837,-136.7832 2126.3837,-155 2126.3837,-155 2126.3837,-155 1872.9301,-155 1872.9301,-155"/>
<polygon fill="#000000" stroke="#000000" points="1872.9301,-151.5001 1862.9301,-155 1872.93,-158.5001 1872.9301,-151.5001"/>
</g>
<!-- FormActionBarComponent -->
<g id="node11" class="node">
<title>FormActionBarComponent</title>
<polygon fill="#ffffb3" stroke="#000000" points="2056.9804,-122 1887.0196,-122 1887.0196,-86 2056.9804,-86 2056.9804,-122"/>
<text text-anchor="middle" x="1972" y="-99.8" font-family="Times,serif" font-size="14.00" fill="#000000">FormActionBarComponent</text>
</g>
<!-- FormActionBarComponent&#45;&gt;SharedCoreModule -->
<g id="edge11" class="edge">
<title>FormActionBarComponent&#45;&gt;SharedCoreModule</title>
<path fill="none" stroke="#000000" d="M1969.375,-122.2458C1969.375,-136.1772 1969.375,-153 1969.375,-153 1969.375,-153 1873.069,-153 1873.069,-153"/>
<polygon fill="#000000" stroke="#000000" points="1873.069,-149.5001 1863.069,-153 1873.069,-156.5001 1873.069,-149.5001"/>
</g>
<!-- FormSubmitBarComponent -->
<g id="node12" class="node">
<title>FormSubmitBarComponent</title>
<polygon fill="#ffffb3" stroke="#000000" points="1869.3327,-122 1696.6673,-122 1696.6673,-86 1869.3327,-86 1869.3327,-122"/>
<text text-anchor="middle" x="1783" y="-99.8" font-family="Times,serif" font-size="14.00" fill="#000000">FormSubmitBarComponent</text>
</g>
<!-- FormSubmitBarComponent&#45;&gt;SharedCoreModule -->
<g id="edge12" class="edge">
<title>FormSubmitBarComponent&#45;&gt;SharedCoreModule</title>
<path fill="none" stroke="#000000" d="M1800,-122.1061C1800,-122.1061 1800,-140.991 1800,-140.991"/>
<polygon fill="#000000" stroke="#000000" points="1796.5001,-140.9909 1800,-150.991 1803.5001,-140.991 1796.5001,-140.9909"/>
</g>
<!-- PageFrameworkComponent -->
<g id="node13" class="node">
<title>PageFrameworkComponent</title>
<polygon fill="#ffffb3" stroke="#000000" points="1678.5744,-122 1505.4256,-122 1505.4256,-86 1678.5744,-86 1678.5744,-122"/>
<text text-anchor="middle" x="1592" y="-99.8" font-family="Times,serif" font-size="14.00" fill="#000000">PageFrameworkComponent</text>
</g>
<!-- PageFrameworkComponent&#45;&gt;SharedCoreModule -->
<g id="edge13" class="edge">
<title>PageFrameworkComponent&#45;&gt;SharedCoreModule</title>
<path fill="none" stroke="#000000" d="M1672.4122,-122.2458C1672.4122,-136.1772 1672.4122,-153 1672.4122,-153 1672.4122,-153 1727.3274,-153 1727.3274,-153"/>
<polygon fill="#000000" stroke="#000000" points="1727.3275,-156.5001 1737.3274,-153 1727.3274,-149.5001 1727.3275,-156.5001"/>
</g>
<!-- PageSectionComponent -->
<g id="node14" class="node">
<title>PageSectionComponent</title>
<polygon fill="#ffffb3" stroke="#000000" points="1487.0379,-122 1336.9621,-122 1336.9621,-86 1487.0379,-86 1487.0379,-122"/>
<text text-anchor="middle" x="1412" y="-99.8" font-family="Times,serif" font-size="14.00" fill="#000000">PageSectionComponent</text>
</g>
<!-- PageSectionComponent&#45;&gt;SharedCoreModule -->
<g id="edge14" class="edge">
<title>PageSectionComponent&#45;&gt;SharedCoreModule</title>
<path fill="none" stroke="#000000" d="M1479.6436,-122.1243C1479.6436,-136.7832 1479.6436,-155 1479.6436,-155 1479.6436,-155 1727.0901,-155 1727.0901,-155"/>
<polygon fill="#000000" stroke="#000000" points="1727.0902,-158.5001 1737.0901,-155 1727.0901,-151.5001 1727.0902,-158.5001"/>
</g>
<!-- PasswordComponent -->
<g id="node15" class="node">
<title>PasswordComponent</title>
<polygon fill="#ffffb3" stroke="#000000" points="1318.486,-122 1183.514,-122 1183.514,-86 1318.486,-86 1318.486,-122"/>
<text text-anchor="middle" x="1251" y="-99.8" font-family="Times,serif" font-size="14.00" fill="#000000">PasswordComponent</text>
</g>
<!-- PasswordComponent&#45;&gt;SharedCoreModule -->
<g id="edge15" class="edge">
<title>PasswordComponent&#45;&gt;SharedCoreModule</title>
<path fill="none" stroke="#000000" d="M1309.1122,-122.2396C1309.1122,-137.5706 1309.1122,-157 1309.1122,-157 1309.1122,-157 1727.3301,-157 1727.3301,-157"/>
<polygon fill="#000000" stroke="#000000" points="1727.3301,-160.5001 1737.3301,-157 1727.3301,-153.5001 1727.3301,-160.5001"/>
</g>
<!-- PostalCodeComponent -->
<g id="node16" class="node">
<title>PostalCodeComponent</title>
<polygon fill="#ffffb3" stroke="#000000" points="1165.6066,-122 1020.3934,-122 1020.3934,-86 1165.6066,-86 1165.6066,-122"/>
<text text-anchor="middle" x="1093" y="-99.8" font-family="Times,serif" font-size="14.00" fill="#000000">PostalCodeComponent</text>
</g>
<!-- PostalCodeComponent&#45;&gt;SharedCoreModule -->
<g id="edge16" class="edge">
<title>PostalCodeComponent&#45;&gt;SharedCoreModule</title>
<path fill="none" stroke="#000000" d="M1152.5302,-122.2819C1152.5302,-137.9478 1152.5302,-158 1152.5302,-158 1152.5302,-158 1727.3296,-158 1727.3296,-158"/>
<polygon fill="#000000" stroke="#000000" points="1727.3296,-161.5001 1737.3296,-158 1727.3295,-154.5001 1727.3296,-161.5001"/>
</g>
<!-- ProvinceComponent -->
<g id="node17" class="node">
<title>ProvinceComponent</title>
<polygon fill="#ffffb3" stroke="#000000" points="1002.5954,-122 871.4046,-122 871.4046,-86 1002.5954,-86 1002.5954,-122"/>
<text text-anchor="middle" x="937" y="-99.8" font-family="Times,serif" font-size="14.00" fill="#000000">ProvinceComponent</text>
</g>
<!-- ProvinceComponent&#45;&gt;SharedCoreModule -->
<g id="edge17" class="edge">
<title>ProvinceComponent&#45;&gt;SharedCoreModule</title>
<path fill="none" stroke="#000000" d="M998.6222,-122.027C998.6222,-138.3976 998.6222,-160 998.6222,-160 998.6222,-160 1727.1172,-160 1727.1172,-160"/>
<polygon fill="#000000" stroke="#000000" points="1727.1173,-163.5001 1737.1172,-160 1727.1172,-156.5001 1727.1173,-163.5001"/>
</g>
<!-- StreetComponent -->
<g id="node18" class="node">
<title>StreetComponent</title>
<polygon fill="#ffffb3" stroke="#000000" points="852.986,-122 739.014,-122 739.014,-86 852.986,-86 852.986,-122"/>
<text text-anchor="middle" x="796" y="-99.8" font-family="Times,serif" font-size="14.00" fill="#000000">StreetComponent</text>
</g>
<!-- StreetComponent&#45;&gt;SharedCoreModule -->
<g id="edge18" class="edge">
<title>StreetComponent&#45;&gt;SharedCoreModule</title>
<path fill="none" stroke="#000000" d="M847.3477,-122.0336C847.3477,-139.0597 847.3477,-162 847.3477,-162 847.3477,-162 1727.1254,-162 1727.1254,-162"/>
<polygon fill="#000000" stroke="#000000" points="1727.1254,-165.5001 1737.1254,-162 1727.1254,-158.5001 1727.1254,-165.5001"/>
</g>
<!-- ThumbnailComponent -->
<g id="node19" class="node">
<title>ThumbnailComponent</title>
<polygon fill="#ffffb3" stroke="#000000" points="721.2716,-122 578.7284,-122 578.7284,-86 721.2716,-86 721.2716,-122"/>
<text text-anchor="middle" x="650" y="-99.8" font-family="Times,serif" font-size="14.00" fill="#000000">ThumbnailComponent</text>
</g>
<!-- ThumbnailComponent&#45;&gt;SharedCoreModule -->
<g id="edge19" class="edge">
<title>ThumbnailComponent&#45;&gt;SharedCoreModule</title>
<path fill="none" stroke="#000000" d="M713.8214,-122.0225C713.8214,-139.3734 713.8214,-163 713.8214,-163 713.8214,-163 1727.3049,-163 1727.3049,-163"/>
<polygon fill="#000000" stroke="#000000" points="1727.3049,-166.5001 1737.3049,-163 1727.3049,-159.5001 1727.3049,-166.5001"/>
</g>
<!-- ToggleComponent -->
<g id="node20" class="node">
<title>ToggleComponent</title>
<polygon fill="#ffffb3" stroke="#000000" points="560.4902,-122 439.5098,-122 439.5098,-86 560.4902,-86 560.4902,-122"/>
<text text-anchor="middle" x="500" y="-99.8" font-family="Times,serif" font-size="14.00" fill="#000000">ToggleComponent</text>
</g>
<!-- ToggleComponent&#45;&gt;SharedCoreModule -->
<g id="edge20" class="edge">
<title>ToggleComponent&#45;&gt;SharedCoreModule</title>
<path fill="none" stroke="#000000" d="M551.1797,-122.302C551.1797,-140.2699 551.1797,-165 551.1797,-165 551.1797,-165 1727.215,-165 1727.215,-165"/>
<polygon fill="#000000" stroke="#000000" points="1727.215,-168.5001 1737.215,-165 1727.2149,-161.5001 1727.215,-168.5001"/>
</g>
<!-- WizardProgressBarComponent -->
<g id="node21" class="node">
<title>WizardProgressBarComponent</title>
<polygon fill="#ffffb3" stroke="#000000" points="421.4468,-122 230.5532,-122 230.5532,-86 421.4468,-86 421.4468,-122"/>
<text text-anchor="middle" x="326" y="-99.8" font-family="Times,serif" font-size="14.00" fill="#000000">WizardProgressBarComponent</text>
</g>
<!-- WizardProgressBarComponent&#45;&gt;SharedCoreModule -->
<g id="edge21" class="edge">
<title>WizardProgressBarComponent&#45;&gt;SharedCoreModule</title>
<path fill="none" stroke="#000000" d="M410.6142,-122.2222C410.6142,-140.8285 410.6142,-167 410.6141,-167 410.6141,-167 1727.147,-167 1727.147,-167"/>
<polygon fill="#000000" stroke="#000000" points="1727.147,-170.5001 1737.147,-167 1727.1469,-163.5001 1727.147,-170.5001"/>
</g>
<!-- YearValidateDirective -->
<g id="node22" class="node">
<title>YearValidateDirective</title>
<polygon fill="#ffffb3" stroke="#000000" points="212.2017,-122 69.7983,-122 69.7983,-86 212.2017,-86 212.2017,-122"/>
<text text-anchor="middle" x="141" y="-99.8" font-family="Times,serif" font-size="14.00" fill="#000000">YearValidateDirective</text>
</g>
<!-- YearValidateDirective&#45;&gt;SharedCoreModule -->
<g id="edge22" class="edge">
<title>YearValidateDirective&#45;&gt;SharedCoreModule</title>
<path fill="none" stroke="#000000" d="M200.0637,-122.1061C200.0637,-141.3391 200.0637,-169 200.0637,-169 200.0637,-169 1727.2806,-169 1727.2806,-169"/>
<polygon fill="#000000" stroke="#000000" points="1727.2806,-172.5001 1737.2806,-169 1727.2806,-165.5001 1727.2806,-172.5001"/>
</g>
<!-- AddressComponent  -->
<g id="node24" class="node">
<title>AddressComponent </title>
<polygon fill="#fb8072" stroke="#000000" points="3665.2037,-252 3534.7963,-252 3534.7963,-216 3665.2037,-216 3665.2037,-252"/>
<text text-anchor="middle" x="3600" y="-229.8" font-family="Times,serif" font-size="14.00" fill="#000000">AddressComponent </text>
</g>
<!-- SharedCoreModule&#45;&gt;AddressComponent  -->
<g id="edge23" class="edge">
<title>SharedCoreModule&#45;&gt;AddressComponent </title>
<path fill="none" stroke="#000000" stroke-dasharray="5,2" d="M1862.7478,-170C2179.2148,-170 3585.125,-170 3585.125,-170 3585.125,-170 3585.125,-205.8314 3585.125,-205.8314"/>
<polygon fill="#000000" stroke="#000000" points="3581.6251,-205.8313 3585.125,-215.8314 3588.6251,-205.8314 3581.6251,-205.8313"/>
</g>
<!-- CityComponent  -->
<g id="node25" class="node">
<title>CityComponent </title>
<polygon fill="#fb8072" stroke="#000000" points="3516.4502,-252 3407.5498,-252 3407.5498,-216 3516.4502,-216 3516.4502,-252"/>
<text text-anchor="middle" x="3462" y="-229.8" font-family="Times,serif" font-size="14.00" fill="#000000">CityComponent </text>
</g>
<!-- SharedCoreModule&#45;&gt;CityComponent  -->
<g id="edge24" class="edge">
<title>SharedCoreModule&#45;&gt;CityComponent </title>
<path fill="none" stroke="#000000" stroke-dasharray="5,2" d="M1862.884,-172C2164.5772,-172 3449.125,-172 3449.125,-172 3449.125,-172 3449.125,-205.7333 3449.125,-205.7333"/>
<polygon fill="#000000" stroke="#000000" points="3445.6251,-205.7333 3449.125,-215.7333 3452.6251,-205.7333 3445.6251,-205.7333"/>
</g>
<!-- CoreBreadcrumbComponent  -->
<g id="node26" class="node">
<title>CoreBreadcrumbComponent </title>
<polygon fill="#fb8072" stroke="#000000" points="3389.7366,-252 3208.2634,-252 3208.2634,-216 3389.7366,-216 3389.7366,-252"/>
<text text-anchor="middle" x="3299" y="-229.8" font-family="Times,serif" font-size="14.00" fill="#000000">CoreBreadcrumbComponent </text>
</g>
<!-- SharedCoreModule&#45;&gt;CoreBreadcrumbComponent  -->
<g id="edge25" class="edge">
<title>SharedCoreModule&#45;&gt;CoreBreadcrumbComponent </title>
<path fill="none" stroke="#000000" stroke-dasharray="5,2" d="M1862.9712,-173C2146.1184,-173 3287.625,-173 3287.625,-173 3287.625,-173 3287.625,-205.698 3287.625,-205.698"/>
<polygon fill="#000000" stroke="#000000" points="3284.1251,-205.698 3287.625,-215.698 3291.1251,-205.698 3284.1251,-205.698"/>
</g>
<!-- CountryComponent  -->
<g id="node27" class="node">
<title>CountryComponent </title>
<polygon fill="#fb8072" stroke="#000000" points="3190.2205,-252 3059.7795,-252 3059.7795,-216 3190.2205,-216 3190.2205,-252"/>
<text text-anchor="middle" x="3125" y="-229.8" font-family="Times,serif" font-size="14.00" fill="#000000">CountryComponent </text>
</g>
<!-- SharedCoreModule&#45;&gt;CountryComponent  -->
<g id="edge26" class="edge">
<title>SharedCoreModule&#45;&gt;CountryComponent </title>
<path fill="none" stroke="#000000" stroke-dasharray="5,2" d="M1863.0121,-175C2125.1419,-175 3115.625,-175 3115.625,-175 3115.625,-175 3115.625,-205.9775 3115.625,-205.9775"/>
<polygon fill="#000000" stroke="#000000" points="3112.1251,-205.9774 3115.625,-215.9775 3119.1251,-205.9775 3112.1251,-205.9774"/>
</g>
<!-- DateComponent  -->
<g id="node28" class="node">
<title>DateComponent </title>
<polygon fill="#fb8072" stroke="#000000" points="3041.7591,-252 2930.2409,-252 2930.2409,-216 3041.7591,-216 3041.7591,-252"/>
<text text-anchor="middle" x="2986" y="-229.8" font-family="Times,serif" font-size="14.00" fill="#000000">DateComponent </text>
</g>
<!-- SharedCoreModule&#45;&gt;DateComponent  -->
<g id="edge27" class="edge">
<title>SharedCoreModule&#45;&gt;DateComponent </title>
<path fill="none" stroke="#000000" stroke-dasharray="5,2" d="M1862.9513,-177C2107.1911,-177 2978.625,-177 2978.625,-177 2978.625,-177 2978.625,-205.9648 2978.625,-205.9648"/>
<polygon fill="#000000" stroke="#000000" points="2975.1251,-205.9648 2978.625,-215.9648 2982.1251,-205.9649 2975.1251,-205.9648"/>
</g>
<!-- DateFieldFormatDirective  -->
<g id="node29" class="node">
<title>DateFieldFormatDirective </title>
<polygon fill="#fb8072" stroke="#000000" points="2912.7268,-252 2745.2732,-252 2745.2732,-216 2912.7268,-216 2912.7268,-252"/>
<text text-anchor="middle" x="2829" y="-229.8" font-family="Times,serif" font-size="14.00" fill="#000000">DateFieldFormatDirective </text>
</g>
<!-- SharedCoreModule&#45;&gt;DateFieldFormatDirective  -->
<g id="edge28" class="edge">
<title>SharedCoreModule&#45;&gt;DateFieldFormatDirective </title>
<path fill="none" stroke="#000000" stroke-dasharray="5,2" d="M1862.8444,-178C2085.4451,-178 2823.125,-178 2823.125,-178 2823.125,-178 2823.125,-205.973 2823.125,-205.973"/>
<polygon fill="#000000" stroke="#000000" points="2819.6251,-205.973 2823.125,-215.973 2826.6251,-205.973 2819.6251,-205.973"/>
</g>
<!-- DatepickerComponent  -->
<g id="node30" class="node">
<title>DatepickerComponent </title>
<polygon fill="#fb8072" stroke="#000000" points="2727.2394,-252 2580.7606,-252 2580.7606,-216 2727.2394,-216 2727.2394,-252"/>
<text text-anchor="middle" x="2654" y="-229.8" font-family="Times,serif" font-size="14.00" fill="#000000">DatepickerComponent </text>
</g>
<!-- SharedCoreModule&#45;&gt;DatepickerComponent  -->
<g id="edge29" class="edge">
<title>SharedCoreModule&#45;&gt;DatepickerComponent </title>
<path fill="none" stroke="#000000" stroke-dasharray="5,2" d="M1862.8415,-180C2055.8443,-180 2627.0435,-180 2627.0435,-180 2627.0435,-180 2627.0435,-205.7181 2627.0435,-205.7181"/>
<polygon fill="#000000" stroke="#000000" points="2623.5436,-205.718 2627.0435,-215.7181 2630.5436,-205.7181 2623.5436,-205.718"/>
</g>
<!-- DayValidationDirective  -->
<g id="node31" class="node">
<title>DayValidationDirective </title>
<polygon fill="#fb8072" stroke="#000000" points="2563.0022,-252 2408.9978,-252 2408.9978,-216 2563.0022,-216 2563.0022,-252"/>
<text text-anchor="middle" x="2486" y="-229.8" font-family="Times,serif" font-size="14.00" fill="#000000">DayValidationDirective </text>
</g>
<!-- SharedCoreModule&#45;&gt;DayValidationDirective  -->
<g id="edge30" class="edge">
<title>SharedCoreModule&#45;&gt;DayValidationDirective </title>
<path fill="none" stroke="#000000" stroke-dasharray="5,2" d="M1862.8653,-181C2027.5231,-181 2458.7496,-181 2458.7496,-181 2458.7496,-181 2458.7496,-205.7604 2458.7496,-205.7604"/>
<polygon fill="#000000" stroke="#000000" points="2455.2497,-205.7604 2458.7496,-215.7604 2462.2497,-205.7604 2455.2497,-205.7604"/>
</g>
<!-- DropdownComponent  -->
<g id="node32" class="node">
<title>DropdownComponent </title>
<polygon fill="#fb8072" stroke="#000000" points="2391.2065,-252 2246.7935,-252 2246.7935,-216 2391.2065,-216 2391.2065,-252"/>
<text text-anchor="middle" x="2319" y="-229.8" font-family="Times,serif" font-size="14.00" fill="#000000">DropdownComponent </text>
</g>
<!-- SharedCoreModule&#45;&gt;DropdownComponent  -->
<g id="edge31" class="edge">
<title>SharedCoreModule&#45;&gt;DropdownComponent </title>
<path fill="none" stroke="#000000" stroke-dasharray="5,2" d="M1862.7656,-183C2005.5774,-183 2342.5344,-183 2342.5344,-183 2342.5344,-183 2342.5344,-205.8757 2342.5344,-205.8757"/>
<polygon fill="#000000" stroke="#000000" points="2339.0345,-205.8757 2342.5344,-215.8757 2346.0345,-205.8757 2339.0345,-205.8757"/>
</g>
<!-- FileUploaderComponent  -->
<g id="node33" class="node">
<title>FileUploaderComponent </title>
<polygon fill="#fb8072" stroke="#000000" points="2228.1981,-252 2069.8019,-252 2069.8019,-216 2228.1981,-216 2228.1981,-252"/>
<text text-anchor="middle" x="2149" y="-229.8" font-family="Times,serif" font-size="14.00" fill="#000000">FileUploaderComponent </text>
</g>
<!-- SharedCoreModule&#45;&gt;FileUploaderComponent  -->
<g id="edge32" class="edge">
<title>SharedCoreModule&#45;&gt;FileUploaderComponent </title>
<path fill="none" stroke="#000000" stroke-dasharray="5,2" d="M1862.738,-184C1970.0436,-184 2177.3663,-184 2177.3663,-184 2177.3663,-184 2177.3663,-205.9489 2177.3663,-205.9489"/>
<polygon fill="#000000" stroke="#000000" points="2173.8664,-205.9488 2177.3663,-215.9489 2180.8664,-205.9489 2173.8664,-205.9488"/>
</g>
<!-- FormActionBarComponent  -->
<g id="node34" class="node">
<title>FormActionBarComponent </title>
<polygon fill="#fb8072" stroke="#000000" points="2051.9811,-252 1878.0189,-252 1878.0189,-216 2051.9811,-216 2051.9811,-252"/>
<text text-anchor="middle" x="1965" y="-229.8" font-family="Times,serif" font-size="14.00" fill="#000000">FormActionBarComponent </text>
</g>
<!-- SharedCoreModule&#45;&gt;FormActionBarComponent  -->
<g id="edge33" class="edge">
<title>SharedCoreModule&#45;&gt;FormActionBarComponent </title>
<path fill="none" stroke="#000000" stroke-dasharray="5,2" d="M1863.0515,-186C1874.362,-186 1882.6348,-186 1882.6348,-186 1882.6348,-186 1882.6348,-205.8533 1882.6348,-205.8533"/>
<polygon fill="#000000" stroke="#000000" points="1879.1349,-205.8532 1882.6348,-215.8533 1886.1349,-205.8533 1879.1349,-205.8532"/>
</g>
<!-- FormSubmitBarComponent  -->
<g id="node35" class="node">
<title>FormSubmitBarComponent </title>
<polygon fill="#fb8072" stroke="#000000" points="1859.8325,-252 1684.1675,-252 1684.1675,-216 1859.8325,-216 1859.8325,-252"/>
<text text-anchor="middle" x="1772" y="-229.8" font-family="Times,serif" font-size="14.00" fill="#000000">FormSubmitBarComponent </text>
</g>
<!-- SharedCoreModule&#45;&gt;FormSubmitBarComponent  -->
<g id="edge34" class="edge">
<title>SharedCoreModule&#45;&gt;FormSubmitBarComponent </title>
<path fill="none" stroke="#000000" stroke-dasharray="5,2" d="M1798.5496,-187.1061C1798.5496,-187.1061 1798.5496,-205.991 1798.5496,-205.991"/>
<polygon fill="#000000" stroke="#000000" points="1795.0497,-205.9909 1798.5496,-215.991 1802.0497,-205.991 1795.0497,-205.9909"/>
</g>
<!-- PageFrameworkComponent  -->
<g id="node36" class="node">
<title>PageFrameworkComponent </title>
<polygon fill="#fb8072" stroke="#000000" points="1666.0749,-252 1489.9251,-252 1489.9251,-216 1666.0749,-216 1666.0749,-252"/>
<text text-anchor="middle" x="1578" y="-229.8" font-family="Times,serif" font-size="14.00" fill="#000000">PageFrameworkComponent </text>
</g>
<!-- SharedCoreModule&#45;&gt;PageFrameworkComponent  -->
<g id="edge35" class="edge">
<title>SharedCoreModule&#45;&gt;PageFrameworkComponent </title>
<path fill="none" stroke="#000000" stroke-dasharray="5,2" d="M1737.2022,-186C1674.0201,-186 1585.875,-186 1585.875,-186 1585.875,-186 1585.875,-205.8533 1585.875,-205.8533"/>
<polygon fill="#000000" stroke="#000000" points="1582.3751,-205.8532 1585.875,-215.8533 1589.3751,-205.8533 1582.3751,-205.8532"/>
</g>
<!-- PageSectionComponent  -->
<g id="node37" class="node">
<title>PageSectionComponent </title>
<polygon fill="#fb8072" stroke="#000000" points="1472.0372,-252 1317.9628,-252 1317.9628,-216 1472.0372,-216 1472.0372,-252"/>
<text text-anchor="middle" x="1395" y="-229.8" font-family="Times,serif" font-size="14.00" fill="#000000">PageSectionComponent </text>
</g>
<!-- SharedCoreModule&#45;&gt;PageSectionComponent  -->
<g id="edge36" class="edge">
<title>SharedCoreModule&#45;&gt;PageSectionComponent </title>
<path fill="none" stroke="#000000" stroke-dasharray="5,2" d="M1737.312,-184C1625.7565,-184 1404.375,-184 1404.375,-184 1404.375,-184 1404.375,-205.9489 1404.375,-205.9489"/>
<polygon fill="#000000" stroke="#000000" points="1400.8751,-205.9488 1404.375,-215.9489 1407.8751,-205.9489 1400.8751,-205.9488"/>
</g>
<!-- PasswordComponent  -->
<g id="node38" class="node">
<title>PasswordComponent </title>
<polygon fill="#fb8072" stroke="#000000" points="1300.4869,-252 1161.5131,-252 1161.5131,-216 1300.4869,-216 1300.4869,-252"/>
<text text-anchor="middle" x="1231" y="-229.8" font-family="Times,serif" font-size="14.00" fill="#000000">PasswordComponent </text>
</g>
<!-- SharedCoreModule&#45;&gt;PasswordComponent  -->
<g id="edge37" class="edge">
<title>SharedCoreModule&#45;&gt;PasswordComponent </title>
<path fill="none" stroke="#000000" stroke-dasharray="5,2" d="M1737.331,-182C1591.5283,-182 1241.875,-182 1241.875,-182 1241.875,-182 1241.875,-205.8129 1241.875,-205.8129"/>
<polygon fill="#000000" stroke="#000000" points="1238.3751,-205.8129 1241.875,-215.8129 1245.3751,-205.813 1238.3751,-205.8129"/>
</g>
<!-- PostalCodeComponent  -->
<g id="node39" class="node">
<title>PostalCodeComponent </title>
<polygon fill="#fb8072" stroke="#000000" points="1143.1071,-252 994.8929,-252 994.8929,-216 1143.1071,-216 1143.1071,-252"/>
<text text-anchor="middle" x="1069" y="-229.8" font-family="Times,serif" font-size="14.00" fill="#000000">PostalCodeComponent </text>
</g>
<!-- SharedCoreModule&#45;&gt;PostalCodeComponent  -->
<g id="edge38" class="edge">
<title>SharedCoreModule&#45;&gt;PostalCodeComponent </title>
<path fill="none" stroke="#000000" stroke-dasharray="5,2" d="M1737.2143,-181C1562.2382,-181 1081.875,-181 1081.875,-181 1081.875,-181 1081.875,-205.7604 1081.875,-205.7604"/>
<polygon fill="#000000" stroke="#000000" points="1078.3751,-205.7604 1081.875,-215.7604 1085.3751,-205.7604 1078.3751,-205.7604"/>
</g>
<!-- ProvinceComponent  -->
<g id="node40" class="node">
<title>ProvinceComponent </title>
<polygon fill="#fb8072" stroke="#000000" points="976.096,-252 841.904,-252 841.904,-216 976.096,-216 976.096,-252"/>
<text text-anchor="middle" x="909" y="-229.8" font-family="Times,serif" font-size="14.00" fill="#000000">ProvinceComponent </text>
</g>
<!-- SharedCoreModule&#45;&gt;ProvinceComponent  -->
<g id="edge39" class="edge">
<title>SharedCoreModule&#45;&gt;ProvinceComponent </title>
<path fill="none" stroke="#000000" stroke-dasharray="5,2" d="M1737.3429,-179C1536.8191,-179 923.875,-179 923.875,-179 923.875,-179 923.875,-205.9909 923.875,-205.9909"/>
<polygon fill="#000000" stroke="#000000" points="920.3751,-205.9909 923.875,-215.9909 927.3751,-205.991 920.3751,-205.9909"/>
</g>
<!-- StreetComponent  -->
<g id="node41" class="node">
<title>StreetComponent </title>
<polygon fill="#fb8072" stroke="#000000" points="823.987,-252 706.013,-252 706.013,-216 823.987,-216 823.987,-252"/>
<text text-anchor="middle" x="765" y="-229.8" font-family="Times,serif" font-size="14.00" fill="#000000">StreetComponent </text>
</g>
<!-- SharedCoreModule&#45;&gt;StreetComponent  -->
<g id="edge40" class="edge">
<title>SharedCoreModule&#45;&gt;StreetComponent </title>
<path fill="none" stroke="#000000" stroke-dasharray="5,2" d="M1737.0492,-177C1514.966,-177 781.375,-177 781.375,-177 781.375,-177 781.375,-205.9648 781.375,-205.9648"/>
<polygon fill="#000000" stroke="#000000" points="777.8751,-205.9648 781.375,-215.9648 784.8751,-205.9649 777.8751,-205.9648"/>
</g>
<!-- ThumbnailComponent  -->
<g id="node42" class="node">
<title>ThumbnailComponent </title>
<polygon fill="#fb8072" stroke="#000000" points="688.2717,-252 541.7283,-252 541.7283,-216 688.2717,-216 688.2717,-252"/>
<text text-anchor="middle" x="615" y="-229.8" font-family="Times,serif" font-size="14.00" fill="#000000">ThumbnailComponent </text>
</g>
<!-- SharedCoreModule&#45;&gt;ThumbnailComponent  -->
<g id="edge41" class="edge">
<title>SharedCoreModule&#45;&gt;ThumbnailComponent </title>
<path fill="none" stroke="#000000" stroke-dasharray="5,2" d="M1737.2772,-175C1494.9572,-175 633.375,-175 633.375,-175 633.375,-175 633.375,-205.9775 633.375,-205.9775"/>
<polygon fill="#000000" stroke="#000000" points="629.8751,-205.9774 633.375,-215.9775 636.8751,-205.9775 629.8751,-205.9774"/>
</g>
<!-- ToggleComponent  -->
<g id="node43" class="node">
<title>ToggleComponent </title>
<polygon fill="#fb8072" stroke="#000000" points="524.4912,-252 399.5088,-252 399.5088,-216 524.4912,-216 524.4912,-252"/>
<text text-anchor="middle" x="462" y="-229.8" font-family="Times,serif" font-size="14.00" fill="#000000">ToggleComponent </text>
</g>
<!-- SharedCoreModule&#45;&gt;ToggleComponent  -->
<g id="edge42" class="edge">
<title>SharedCoreModule&#45;&gt;ToggleComponent </title>
<path fill="none" stroke="#000000" stroke-dasharray="5,2" d="M1737.3108,-174C1475.3575,-174 481.875,-174 481.875,-174 481.875,-174 481.875,-205.998 481.875,-205.998"/>
<polygon fill="#000000" stroke="#000000" points="478.3751,-205.998 481.875,-215.998 485.3751,-205.9981 478.3751,-205.998"/>
</g>
<!-- WizardProgressBarComponent  -->
<g id="node44" class="node">
<title>WizardProgressBarComponent </title>
<polygon fill="#fb8072" stroke="#000000" points="382.4473,-252 187.5527,-252 187.5527,-216 382.4473,-216 382.4473,-252"/>
<text text-anchor="middle" x="285" y="-229.8" font-family="Times,serif" font-size="14.00" fill="#000000">WizardProgressBarComponent </text>
</g>
<!-- SharedCoreModule&#45;&gt;WizardProgressBarComponent  -->
<g id="edge43" class="edge">
<title>SharedCoreModule&#45;&gt;WizardProgressBarComponent </title>
<path fill="none" stroke="#000000" stroke-dasharray="5,2" d="M1737.2494,-172C1453.7637,-172 306.375,-172 306.375,-172 306.375,-172 306.375,-205.7333 306.375,-205.7333"/>
<polygon fill="#000000" stroke="#000000" points="302.8751,-205.7333 306.375,-215.7333 309.8751,-205.7333 302.8751,-205.7333"/>
</g>
<!-- YearValidateDirective  -->
<g id="node45" class="node">
<title>YearValidateDirective </title>
<polygon fill="#fb8072" stroke="#000000" points="170.2015,-252 23.7985,-252 23.7985,-216 170.2015,-216 170.2015,-252"/>
<text text-anchor="middle" x="97" y="-229.8" font-family="Times,serif" font-size="14.00" fill="#000000">YearValidateDirective </text>
</g>
<!-- SharedCoreModule&#45;&gt;YearValidateDirective  -->
<g id="edge44" class="edge">
<title>SharedCoreModule&#45;&gt;YearValidateDirective </title>
<path fill="none" stroke="#000000" stroke-dasharray="5,2" d="M1737.2035,-170C1432.1923,-170 119.875,-170 119.875,-170 119.875,-170 119.875,-205.8314 119.875,-205.8314"/>
<polygon fill="#000000" stroke="#000000" points="116.3751,-205.8313 119.875,-215.8314 123.3751,-205.8314 116.3751,-205.8313"/>
</g>
</g>
</svg>
