<?xml version="1.0" encoding="UTF-8" standalone="no"?>
<!DOCTYPE svg PUBLIC "-//W3C//DTD SVG 1.1//EN"
 "http://www.w3.org/Graphics/SVG/1.1/DTD/svg11.dtd">
<!-- Generated by graphviz version 2.40.1 (20161225.0304)
 -->
<!-- Title: dependencies Pages: 1 -->
<svg width="3874pt" height="284pt"
 viewBox="0.00 0.00 3874.00 284.00" xmlns="http://www.w3.org/2000/svg" xmlns:xlink="http://www.w3.org/1999/xlink">
<g id="graph0" class="graph" transform="scale(1 1) rotate(0) translate(4 280)">
<title>dependencies</title>
<polygon fill="#ffffff" stroke="transparent" points="-4,4 -4,-280 3870,-280 3870,4 -4,4"/>
<text text-anchor="start" x="1912.0091" y="-42.4" font-family="sans-serif" font-weight="bold" font-size="14.00" fill="#000000">Legend</text>
<polygon fill="#ffffb3" stroke="transparent" points="1699,-10 1699,-30 1719,-30 1719,-10 1699,-10"/>
<text text-anchor="start" x="1722.629" y="-15.4" font-family="sans-serif" font-size="14.00" fill="#000000"> &#160;Declarations</text>
<polygon fill="#8dd3c7" stroke="transparent" points="1812,-10 1812,-30 1832,-30 1832,-10 1812,-10"/>
<text text-anchor="start" x="1835.7251" y="-15.4" font-family="sans-serif" font-size="14.00" fill="#000000"> &#160;Module</text>
<polygon fill="#80b1d3" stroke="transparent" points="1898,-10 1898,-30 1918,-30 1918,-10 1898,-10"/>
<text text-anchor="start" x="1921.7812" y="-15.4" font-family="sans-serif" font-size="14.00" fill="#000000"> &#160;Bootstrap</text>
<polygon fill="#fdb462" stroke="transparent" points="1995,-10 1995,-30 2015,-30 2015,-10 1995,-10"/>
<text text-anchor="start" x="2018.6732" y="-15.4" font-family="sans-serif" font-size="14.00" fill="#000000"> &#160;Providers</text>
<polygon fill="#fb8072" stroke="transparent" points="2091,-10 2091,-30 2111,-30 2111,-10 2091,-10"/>
<text text-anchor="start" x="2114.7258" y="-15.4" font-family="sans-serif" font-size="14.00" fill="#000000"> &#160;Exports</text>
<g id="clust1" class="cluster">
<title>cluster_SharedCoreModule</title>
<polygon fill="none" stroke="#000000" stroke-dasharray="1,5" points="8,-70 8,-268 3858,-268 3858,-70 8,-70"/>
</g>
<g id="clust2" class="cluster">
<title>cluster_SharedCoreModule_declarations</title>
<polygon fill="none" stroke="#000000" points="55,-78 55,-130 3810,-130 3810,-78 55,-78"/>
</g>
<g id="clust27" class="cluster">
<title>cluster_SharedCoreModule_exports</title>
<polygon fill="none" stroke="#000000" points="16,-208 16,-260 3850,-260 3850,-208 16,-208"/>
</g>
<!-- AddressComponent -->
<g id="node1" class="node">
<title>AddressComponent</title>
<polygon fill="#ffffb3" stroke="#000000" points="3801.7036,-122 3674.2964,-122 3674.2964,-86 3801.7036,-86 3801.7036,-122"/>
<text text-anchor="middle" x="3738" y="-99.8" font-family="Times,serif" font-size="14.00" fill="#000000">AddressComponent</text>
</g>
<!-- SharedCoreModule -->
<g id="node24" class="node">
<title>SharedCoreModule</title>
<polygon fill="#8dd3c7" stroke="#000000" points="2027.6345,-187 2024.6345,-191 2003.6345,-191 2000.6345,-187 1902.3655,-187 1902.3655,-151 2027.6345,-151 2027.6345,-187"/>
<text text-anchor="middle" x="1965" y="-164.8" font-family="Times,serif" font-size="14.00" fill="#000000">SharedCoreModule</text>
</g>
<!-- AddressComponent&#45;&gt;SharedCoreModule -->
<g id="edge1" class="edge">
<title>AddressComponent&#45;&gt;SharedCoreModule</title>
<path fill="none" stroke="#000000" d="M3683.8785,-122.1061C3683.8785,-141.3391 3683.8785,-169 3683.8785,-169 3683.8785,-169 2037.7019,-169 2037.7019,-169"/>
<polygon fill="#000000" stroke="#000000" points="2037.7019,-165.5001 2027.7019,-169 2037.7018,-172.5001 2037.7019,-165.5001"/>
</g>
<!-- ButtonGroupComponent -->
<g id="node2" class="node">
<title>ButtonGroupComponent</title>
<polygon fill="#ffffb3" stroke="#000000" points="3656.7176,-122 3501.2824,-122 3501.2824,-86 3656.7176,-86 3656.7176,-122"/>
<text text-anchor="middle" x="3579" y="-99.8" font-family="Times,serif" font-size="14.00" fill="#000000">ButtonGroupComponent</text>
</g>
<!-- ButtonGroupComponent&#45;&gt;SharedCoreModule -->
<g id="edge2" class="edge">
<title>ButtonGroupComponent&#45;&gt;SharedCoreModule</title>
<path fill="none" stroke="#000000" d="M3508.9332,-122.2222C3508.9332,-140.8285 3508.9332,-167 3508.9332,-167 3508.9332,-167 2037.9185,-167 2037.9185,-167"/>
<polygon fill="#000000" stroke="#000000" points="2037.9185,-163.5001 2027.9185,-167 2037.9184,-170.5001 2037.9185,-163.5001"/>
</g>
<!-- CityComponent -->
<g id="node3" class="node">
<title>CityComponent</title>
<polygon fill="#ffffb3" stroke="#000000" points="3483.9512,-122 3378.0488,-122 3378.0488,-86 3483.9512,-86 3483.9512,-122"/>
<text text-anchor="middle" x="3431" y="-99.8" font-family="Times,serif" font-size="14.00" fill="#000000">CityComponent</text>
</g>
<!-- CityComponent&#45;&gt;SharedCoreModule -->
<g id="edge3" class="edge">
<title>CityComponent&#45;&gt;SharedCoreModule</title>
<path fill="none" stroke="#000000" d="M3383.9466,-122.2667C3383.9466,-140.5552 3383.9466,-166 3383.9466,-166 3383.9466,-166 2037.8012,-166 2037.8012,-166"/>
<polygon fill="#000000" stroke="#000000" points="2037.8013,-162.5001 2027.8012,-166 2037.8012,-169.5001 2037.8013,-162.5001"/>
</g>
<!-- CoreBreadcrumbComponent -->
<g id="node4" class="node">
<title>CoreBreadcrumbComponent</title>
<polygon fill="#ffffb3" stroke="#000000" points="3359.7366,-122 3182.2634,-122 3182.2634,-86 3359.7366,-86 3359.7366,-122"/>
<text text-anchor="middle" x="3271" y="-99.8" font-family="Times,serif" font-size="14.00" fill="#000000">CoreBreadcrumbComponent</text>
</g>
<!-- CoreBreadcrumbComponent&#45;&gt;SharedCoreModule -->
<g id="edge4" class="edge">
<title>CoreBreadcrumbComponent&#45;&gt;SharedCoreModule</title>
<path fill="none" stroke="#000000" d="M3186.246,-122.002C3186.246,-139.6754 3186.246,-164 3186.246,-164 3186.246,-164 2037.6637,-164 2037.6637,-164"/>
<polygon fill="#000000" stroke="#000000" points="2037.6637,-160.5001 2027.6637,-164 2037.6636,-167.5001 2037.6637,-160.5001"/>
</g>
<!-- CountryComponent -->
<g id="node5" class="node">
<title>CountryComponent</title>
<polygon fill="#ffffb3" stroke="#000000" points="3164.7204,-122 3037.2796,-122 3037.2796,-86 3164.7204,-86 3164.7204,-122"/>
<text text-anchor="middle" x="3101" y="-99.8" font-family="Times,serif" font-size="14.00" fill="#000000">CountryComponent</text>
</g>
<!-- CountryComponent&#45;&gt;SharedCoreModule -->
<g id="edge5" class="edge">
<title>CountryComponent&#45;&gt;SharedCoreModule</title>
<path fill="none" stroke="#000000" d="M3050.6347,-122.0336C3050.6347,-139.0597 3050.6347,-162 3050.6347,-162 3050.6347,-162 2037.6637,-162 2037.6637,-162"/>
<polygon fill="#000000" stroke="#000000" points="2037.6637,-158.5001 2027.6637,-162 2037.6637,-165.5001 2037.6637,-158.5001"/>
</g>
<!-- DateComponent -->
<g id="node6" class="node">
<title>DateComponent</title>
<polygon fill="#ffffb3" stroke="#000000" points="3019.7591,-122 2912.2409,-122 2912.2409,-86 3019.7591,-86 3019.7591,-122"/>
<text text-anchor="middle" x="2966" y="-99.8" font-family="Times,serif" font-size="14.00" fill="#000000">DateComponent</text>
</g>
<!-- DateComponent&#45;&gt;SharedCoreModule -->
<g id="edge6" class="edge">
<title>DateComponent&#45;&gt;SharedCoreModule</title>
<path fill="none" stroke="#000000" d="M2921.492,-122.0352C2921.492,-138.7344 2921.492,-161 2921.492,-161 2921.492,-161 2037.7581,-161 2037.7581,-161"/>
<polygon fill="#000000" stroke="#000000" points="2037.7581,-157.5001 2027.7581,-161 2037.7581,-164.5001 2037.7581,-157.5001"/>
</g>
<!-- DateFieldFormatDirective -->
<g id="node7" class="node">
<title>DateFieldFormatDirective</title>
<polygon fill="#ffffb3" stroke="#000000" points="2893.7268,-122 2730.2732,-122 2730.2732,-86 2893.7268,-86 2893.7268,-122"/>
<text text-anchor="middle" x="2812" y="-99.8" font-family="Times,serif" font-size="14.00" fill="#000000">DateFieldFormatDirective</text>
</g>
<!-- DateFieldFormatDirective&#45;&gt;SharedCoreModule -->
<g id="edge7" class="edge">
<title>DateFieldFormatDirective&#45;&gt;SharedCoreModule</title>
<path fill="none" stroke="#000000" d="M2737.7617,-122.0091C2737.7617,-138.0494 2737.7617,-159 2737.7617,-159 2737.7617,-159 2037.9107,-159 2037.9107,-159"/>
<polygon fill="#000000" stroke="#000000" points="2037.9107,-155.5001 2027.9107,-159 2037.9107,-162.5001 2037.9107,-155.5001"/>
</g>
<!-- DatepickerComponent -->
<g id="node8" class="node">
<title>DatepickerComponent</title>
<polygon fill="#ffffb3" stroke="#000000" points="2712.2394,-122 2569.7606,-122 2569.7606,-86 2712.2394,-86 2712.2394,-122"/>
<text text-anchor="middle" x="2641" y="-99.8" font-family="Times,serif" font-size="14.00" fill="#000000">DatepickerComponent</text>
</g>
<!-- DatepickerComponent&#45;&gt;SharedCoreModule -->
<g id="edge8" class="edge">
<title>DatepickerComponent&#45;&gt;SharedCoreModule</title>
<path fill="none" stroke="#000000" d="M2575.2554,-122.2819C2575.2554,-137.9478 2575.2554,-158 2575.2554,-158 2575.2554,-158 2037.7246,-158 2037.7246,-158"/>
<polygon fill="#000000" stroke="#000000" points="2037.7246,-154.5001 2027.7246,-158 2037.7246,-161.5001 2037.7246,-154.5001"/>
</g>
<!-- DayValidationDirective -->
<g id="node9" class="node">
<title>DayValidationDirective</title>
<polygon fill="#ffffb3" stroke="#000000" points="2551.003,-122 2400.997,-122 2400.997,-86 2551.003,-86 2551.003,-122"/>
<text text-anchor="middle" x="2476" y="-99.8" font-family="Times,serif" font-size="14.00" fill="#000000">DayValidationDirective</text>
</g>
<!-- DayValidationDirective&#45;&gt;SharedCoreModule -->
<g id="edge9" class="edge">
<title>DayValidationDirective&#45;&gt;SharedCoreModule</title>
<path fill="none" stroke="#000000" d="M2404.8739,-122.1871C2404.8739,-137.1824 2404.8739,-156 2404.8739,-156 2404.8739,-156 2038.0232,-156 2038.0232,-156"/>
<polygon fill="#000000" stroke="#000000" points="2038.0232,-152.5001 2028.0232,-156 2038.0232,-159.5001 2038.0232,-152.5001"/>
</g>
<!-- DropdownComponent -->
<g id="node10" class="node">
<title>DropdownComponent</title>
<polygon fill="#ffffb3" stroke="#000000" points="2382.7064,-122 2241.2936,-122 2241.2936,-86 2382.7064,-86 2382.7064,-122"/>
<text text-anchor="middle" x="2312" y="-99.8" font-family="Times,serif" font-size="14.00" fill="#000000">DropdownComponent</text>
</g>
<!-- DropdownComponent&#45;&gt;SharedCoreModule -->
<g id="edge10" class="edge">
<title>DropdownComponent&#45;&gt;SharedCoreModule</title>
<path fill="none" stroke="#000000" d="M2337.2844,-122.1243C2337.2844,-136.7832 2337.2844,-155 2337.2844,-155 2337.2844,-155 2037.732,-155 2037.732,-155"/>
<polygon fill="#000000" stroke="#000000" points="2037.732,-151.5001 2027.732,-155 2037.732,-158.5001 2037.732,-151.5001"/>
</g>
<!-- FileUploaderComponent -->
<g id="node11" class="node">
<title>FileUploaderComponent</title>
<polygon fill="#ffffb3" stroke="#000000" points="2223.6979,-122 2068.3021,-122 2068.3021,-86 2223.6979,-86 2223.6979,-122"/>
<text text-anchor="middle" x="2146" y="-99.8" font-family="Times,serif" font-size="14.00" fill="#000000">FileUploaderComponent</text>
</g>
<!-- FileUploaderComponent&#45;&gt;SharedCoreModule -->
<g id="edge11" class="edge">
<title>FileUploaderComponent&#45;&gt;SharedCoreModule</title>
<path fill="none" stroke="#000000" d="M2172.283,-122.2458C2172.283,-136.1772 2172.283,-153 2172.283,-153 2172.283,-153 2037.7542,-153 2037.7542,-153"/>
<polygon fill="#000000" stroke="#000000" points="2037.7543,-149.5001 2027.7542,-153 2037.7542,-156.5001 2037.7543,-149.5001"/>
</g>
<!-- FormActionBarComponent -->
<g id="node12" class="node">
<title>FormActionBarComponent</title>
<polygon fill="#ffffb3" stroke="#000000" points="2049.9804,-122 1880.0196,-122 1880.0196,-86 2049.9804,-86 2049.9804,-122"/>
<text text-anchor="middle" x="1965" y="-99.8" font-family="Times,serif" font-size="14.00" fill="#000000">FormActionBarComponent</text>
</g>
<!-- FormActionBarComponent&#45;&gt;SharedCoreModule -->
<g id="edge12" class="edge">
<title>FormActionBarComponent&#45;&gt;SharedCoreModule</title>
<path fill="none" stroke="#000000" d="M1965,-122.1061C1965,-122.1061 1965,-140.991 1965,-140.991"/>
<polygon fill="#000000" stroke="#000000" points="1961.5001,-140.9909 1965,-150.991 1968.5001,-140.991 1961.5001,-140.9909"/>
</g>
<!-- FormSubmitBarComponent -->
<g id="node13" class="node">
<title>FormSubmitBarComponent</title>
<polygon fill="#ffffb3" stroke="#000000" points="1862.3327,-122 1689.6673,-122 1689.6673,-86 1862.3327,-86 1862.3327,-122"/>
<text text-anchor="middle" x="1776" y="-99.8" font-family="Times,serif" font-size="14.00" fill="#000000">FormSubmitBarComponent</text>
</g>
<!-- FormSubmitBarComponent&#45;&gt;SharedCoreModule -->
<g id="edge13" class="edge">
<title>FormSubmitBarComponent&#45;&gt;SharedCoreModule</title>
<path fill="none" stroke="#000000" d="M1803.2221,-122.2458C1803.2221,-136.1772 1803.2221,-153 1803.2221,-153 1803.2221,-153 1891.9892,-153 1891.9892,-153"/>
<polygon fill="#000000" stroke="#000000" points="1891.9892,-156.5001 1901.9892,-153 1891.9892,-149.5001 1891.9892,-156.5001"/>
</g>
<!-- PageFrameworkComponent -->
<g id="node14" class="node">
<title>PageFrameworkComponent</title>
<polygon fill="#ffffb3" stroke="#000000" points="1671.5744,-122 1498.4256,-122 1498.4256,-86 1671.5744,-86 1671.5744,-122"/>
<text text-anchor="middle" x="1585" y="-99.8" font-family="Times,serif" font-size="14.00" fill="#000000">PageFrameworkComponent</text>
</g>
<!-- PageFrameworkComponent&#45;&gt;SharedCoreModule -->
<g id="edge14" class="edge">
<title>PageFrameworkComponent&#45;&gt;SharedCoreModule</title>
<path fill="none" stroke="#000000" d="M1610.3457,-122.1243C1610.3457,-136.7832 1610.3457,-155 1610.3457,-155 1610.3457,-155 1892.0036,-155 1892.0036,-155"/>
<polygon fill="#000000" stroke="#000000" points="1892.0036,-158.5001 1902.0036,-155 1892.0036,-151.5001 1892.0036,-158.5001"/>
</g>
<!-- PageSectionComponent -->
<g id="node15" class="node">
<title>PageSectionComponent</title>
<polygon fill="#ffffb3" stroke="#000000" points="1480.0379,-122 1329.9621,-122 1329.9621,-86 1480.0379,-86 1480.0379,-122"/>
<text text-anchor="middle" x="1405" y="-99.8" font-family="Times,serif" font-size="14.00" fill="#000000">PageSectionComponent</text>
</g>
<!-- PageSectionComponent&#45;&gt;SharedCoreModule -->
<g id="edge15" class="edge">
<title>PageSectionComponent&#45;&gt;SharedCoreModule</title>
<path fill="none" stroke="#000000" d="M1476.1436,-122.1871C1476.1436,-137.1824 1476.1436,-156 1476.1436,-156 1476.1436,-156 1892.0914,-156 1892.0914,-156"/>
<polygon fill="#000000" stroke="#000000" points="1892.0914,-159.5001 1902.0914,-156 1892.0913,-152.5001 1892.0914,-159.5001"/>
</g>
<!-- PasswordComponent -->
<g id="node16" class="node">
<title>PasswordComponent</title>
<polygon fill="#ffffb3" stroke="#000000" points="1311.486,-122 1176.514,-122 1176.514,-86 1311.486,-86 1311.486,-122"/>
<text text-anchor="middle" x="1244" y="-99.8" font-family="Times,serif" font-size="14.00" fill="#000000">PasswordComponent</text>
</g>
<!-- PasswordComponent&#45;&gt;SharedCoreModule -->
<g id="edge16" class="edge">
<title>PasswordComponent&#45;&gt;SharedCoreModule</title>
<path fill="none" stroke="#000000" d="M1305.868,-122.2819C1305.868,-137.9478 1305.868,-158 1305.868,-158 1305.868,-158 1892.0982,-158 1892.0982,-158"/>
<polygon fill="#000000" stroke="#000000" points="1892.0983,-161.5001 1902.0982,-158 1892.0982,-154.5001 1892.0983,-161.5001"/>
</g>
<!-- PostalCodeComponent -->
<g id="node17" class="node">
<title>PostalCodeComponent</title>
<polygon fill="#ffffb3" stroke="#000000" points="1158.6066,-122 1013.3934,-122 1013.3934,-86 1158.6066,-86 1158.6066,-122"/>
<text text-anchor="middle" x="1086" y="-99.8" font-family="Times,serif" font-size="14.00" fill="#000000">PostalCodeComponent</text>
</g>
<!-- PostalCodeComponent&#45;&gt;SharedCoreModule -->
<g id="edge17" class="edge">
<title>PostalCodeComponent&#45;&gt;SharedCoreModule</title>
<path fill="none" stroke="#000000" d="M1150.9283,-122.0091C1150.9283,-138.0494 1150.9283,-159 1150.9283,-159 1150.9283,-159 1892.1361,-159 1892.1361,-159"/>
<polygon fill="#000000" stroke="#000000" points="1892.1361,-162.5001 1902.1361,-159 1892.1361,-155.5001 1892.1361,-162.5001"/>
</g>
<!-- ProvinceComponent -->
<g id="node18" class="node">
<title>ProvinceComponent</title>
<polygon fill="#ffffb3" stroke="#000000" points="995.5954,-122 864.4046,-122 864.4046,-86 995.5954,-86 995.5954,-122"/>
<text text-anchor="middle" x="930" y="-99.8" font-family="Times,serif" font-size="14.00" fill="#000000">ProvinceComponent</text>
</g>
<!-- ProvinceComponent&#45;&gt;SharedCoreModule -->
<g id="edge18" class="edge">
<title>ProvinceComponent&#45;&gt;SharedCoreModule</title>
<path fill="none" stroke="#000000" d="M985.4972,-122.0352C985.4972,-138.7344 985.4972,-161 985.4972,-161 985.4972,-161 1892.2376,-161 1892.2376,-161"/>
<polygon fill="#000000" stroke="#000000" points="1892.2377,-164.5001 1902.2376,-161 1892.2376,-157.5001 1892.2377,-164.5001"/>
</g>
<!-- StreetComponent -->
<g id="node19" class="node">
<title>StreetComponent</title>
<polygon fill="#ffffb3" stroke="#000000" points="845.986,-122 732.014,-122 732.014,-86 845.986,-86 845.986,-122"/>
<text text-anchor="middle" x="789" y="-99.8" font-family="Times,serif" font-size="14.00" fill="#000000">StreetComponent</text>
</g>
<!-- StreetComponent&#45;&gt;SharedCoreModule -->
<g id="edge19" class="edge">
<title>StreetComponent&#45;&gt;SharedCoreModule</title>
<path fill="none" stroke="#000000" d="M832.7226,-122.0336C832.7226,-139.0597 832.7226,-162 832.7226,-162 832.7226,-162 1892.1049,-162 1892.1049,-162"/>
<polygon fill="#000000" stroke="#000000" points="1892.1049,-165.5001 1902.1049,-162 1892.1049,-158.5001 1892.1049,-165.5001"/>
</g>
<!-- ThumbnailComponent -->
<g id="node20" class="node">
<title>ThumbnailComponent</title>
<polygon fill="#ffffb3" stroke="#000000" points="714.2716,-122 571.7284,-122 571.7284,-86 714.2716,-86 714.2716,-122"/>
<text text-anchor="middle" x="643" y="-99.8" font-family="Times,serif" font-size="14.00" fill="#000000">ThumbnailComponent</text>
</g>
<!-- ThumbnailComponent&#45;&gt;SharedCoreModule -->
<g id="edge20" class="edge">
<title>ThumbnailComponent&#45;&gt;SharedCoreModule</title>
<path fill="none" stroke="#000000" d="M710.3214,-122.002C710.3214,-139.6754 710.3214,-164 710.3214,-164 710.3214,-164 1892.351,-164 1892.351,-164"/>
<polygon fill="#000000" stroke="#000000" points="1892.3511,-167.5001 1902.351,-164 1892.351,-160.5001 1892.3511,-167.5001"/>
</g>
<!-- ToggleComponent -->
<g id="node21" class="node">
<title>ToggleComponent</title>
<polygon fill="#ffffb3" stroke="#000000" points="553.4902,-122 432.5098,-122 432.5098,-86 553.4902,-86 553.4902,-122"/>
<text text-anchor="middle" x="493" y="-99.8" font-family="Times,serif" font-size="14.00" fill="#000000">ToggleComponent</text>
</g>
<!-- ToggleComponent&#45;&gt;SharedCoreModule -->
<g id="edge21" class="edge">
<title>ToggleComponent&#45;&gt;SharedCoreModule</title>
<path fill="none" stroke="#000000" d="M547.6797,-122.2667C547.6797,-140.5552 547.6797,-166 547.6797,-166 547.6797,-166 1892.2707,-166 1892.2707,-166"/>
<polygon fill="#000000" stroke="#000000" points="1892.2708,-169.5001 1902.2707,-166 1892.2707,-162.5001 1892.2708,-169.5001"/>
</g>
<!-- WizardProgressBarComponent -->
<g id="node22" class="node">
<title>WizardProgressBarComponent</title>
<polygon fill="#ffffb3" stroke="#000000" points="414.4468,-122 223.5532,-122 223.5532,-86 414.4468,-86 414.4468,-122"/>
<text text-anchor="middle" x="319" y="-99.8" font-family="Times,serif" font-size="14.00" fill="#000000">WizardProgressBarComponent</text>
</g>
<!-- WizardProgressBarComponent&#45;&gt;SharedCoreModule -->
<g id="edge22" class="edge">
<title>WizardProgressBarComponent&#45;&gt;SharedCoreModule</title>
<path fill="none" stroke="#000000" d="M407.1142,-122.2222C407.1142,-140.8285 407.1142,-167 407.1141,-167 407.1141,-167 1891.9995,-167 1891.9995,-167"/>
<polygon fill="#000000" stroke="#000000" points="1891.9996,-170.5001 1901.9995,-167 1891.9995,-163.5001 1891.9996,-170.5001"/>
</g>
<!-- YearValidateDirective -->
<g id="node23" class="node">
<title>YearValidateDirective</title>
<polygon fill="#ffffb3" stroke="#000000" points="205.2017,-122 62.7983,-122 62.7983,-86 205.2017,-86 205.2017,-122"/>
<text text-anchor="middle" x="134" y="-99.8" font-family="Times,serif" font-size="14.00" fill="#000000">YearValidateDirective</text>
</g>
<!-- YearValidateDirective&#45;&gt;SharedCoreModule -->
<g id="edge23" class="edge">
<title>YearValidateDirective&#45;&gt;SharedCoreModule</title>
<path fill="none" stroke="#000000" d="M196.5637,-122.1061C196.5637,-141.3391 196.5637,-169 196.5637,-169 196.5637,-169 1892.3204,-169 1892.3204,-169"/>
<polygon fill="#000000" stroke="#000000" points="1892.3204,-172.5001 1902.3204,-169 1892.3203,-165.5001 1892.3204,-172.5001"/>
</g>
<!-- AddressComponent  -->
<g id="node25" class="node">
<title>AddressComponent </title>
<polygon fill="#fb8072" stroke="#000000" points="3842.2037,-252 3711.7963,-252 3711.7963,-216 3842.2037,-216 3842.2037,-252"/>
<text text-anchor="middle" x="3777" y="-229.8" font-family="Times,serif" font-size="14.00" fill="#000000">AddressComponent </text>
</g>
<!-- SharedCoreModule&#45;&gt;AddressComponent  -->
<g id="edge24" class="edge">
<title>SharedCoreModule&#45;&gt;AddressComponent </title>
<path fill="none" stroke="#000000" stroke-dasharray="5,2" d="M2027.7144,-170C2344.8192,-170 3756.625,-170 3756.625,-170 3756.625,-170 3756.625,-205.8314 3756.625,-205.8314"/>
<polygon fill="#000000" stroke="#000000" points="3753.1251,-205.8313 3756.625,-215.8314 3760.1251,-205.8314 3753.1251,-205.8313"/>
</g>
<!-- ButtonGroupComponent  -->
<g id="node26" class="node">
<title>ButtonGroupComponent </title>
<polygon fill="#fb8072" stroke="#000000" points="3693.2177,-252 3534.7823,-252 3534.7823,-216 3693.2177,-216 3693.2177,-252"/>
<text text-anchor="middle" x="3614" y="-229.8" font-family="Times,serif" font-size="14.00" fill="#000000">ButtonGroupComponent </text>
</g>
<!-- SharedCoreModule&#45;&gt;ButtonGroupComponent  -->
<g id="edge25" class="edge">
<title>SharedCoreModule&#45;&gt;ButtonGroupComponent </title>
<path fill="none" stroke="#000000" stroke-dasharray="5,2" d="M2027.9233,-172C2327.5945,-172 3595.625,-172 3595.625,-172 3595.625,-172 3595.625,-205.7333 3595.625,-205.7333"/>
<polygon fill="#000000" stroke="#000000" points="3592.1251,-205.7333 3595.625,-215.7333 3599.1251,-205.7333 3592.1251,-205.7333"/>
</g>
<!-- CityComponent  -->
<g id="node27" class="node">
<title>CityComponent </title>
<polygon fill="#fb8072" stroke="#000000" points="3516.4502,-252 3407.5498,-252 3407.5498,-216 3516.4502,-216 3516.4502,-252"/>
<text text-anchor="middle" x="3462" y="-229.8" font-family="Times,serif" font-size="14.00" fill="#000000">CityComponent </text>
</g>
<!-- SharedCoreModule&#45;&gt;CityComponent  -->
<g id="edge26" class="edge">
<title>SharedCoreModule&#45;&gt;CityComponent </title>
<path fill="none" stroke="#000000" stroke-dasharray="5,2" d="M2027.6749,-173C2309.4897,-173 3445.625,-173 3445.625,-173 3445.625,-173 3445.625,-205.698 3445.625,-205.698"/>
<polygon fill="#000000" stroke="#000000" points="3442.1251,-205.698 3445.625,-215.698 3449.1251,-205.698 3442.1251,-205.698"/>
</g>
<!-- CoreBreadcrumbComponent  -->
<g id="node28" class="node">
<title>CoreBreadcrumbComponent </title>
<polygon fill="#fb8072" stroke="#000000" points="3389.7366,-252 3208.2634,-252 3208.2634,-216 3389.7366,-216 3389.7366,-252"/>
<text text-anchor="middle" x="3299" y="-229.8" font-family="Times,serif" font-size="14.00" fill="#000000">CoreBreadcrumbComponent </text>
</g>
<!-- SharedCoreModule&#45;&gt;CoreBreadcrumbComponent  -->
<g id="edge27" class="edge">
<title>SharedCoreModule&#45;&gt;CoreBreadcrumbComponent </title>
<path fill="none" stroke="#000000" stroke-dasharray="5,2" d="M2027.7367,-175C2289.8888,-175 3284.125,-175 3284.125,-175 3284.125,-175 3284.125,-205.9775 3284.125,-205.9775"/>
<polygon fill="#000000" stroke="#000000" points="3280.6251,-205.9774 3284.125,-215.9775 3287.6251,-205.9775 3280.6251,-205.9774"/>
</g>
<!-- CountryComponent  -->
<g id="node29" class="node">
<title>CountryComponent </title>
<polygon fill="#fb8072" stroke="#000000" points="3190.2205,-252 3059.7795,-252 3059.7795,-216 3190.2205,-216 3190.2205,-252"/>
<text text-anchor="middle" x="3125" y="-229.8" font-family="Times,serif" font-size="14.00" fill="#000000">CountryComponent </text>
</g>
<!-- SharedCoreModule&#45;&gt;CountryComponent  -->
<g id="edge28" class="edge">
<title>SharedCoreModule&#45;&gt;CountryComponent </title>
<path fill="none" stroke="#000000" stroke-dasharray="5,2" d="M2027.8981,-177C2267.8297,-177 3112.125,-177 3112.125,-177 3112.125,-177 3112.125,-205.9648 3112.125,-205.9648"/>
<polygon fill="#000000" stroke="#000000" points="3108.6251,-205.9648 3112.125,-215.9648 3115.6251,-205.9649 3108.6251,-205.9648"/>
</g>
<!-- DateComponent  -->
<g id="node30" class="node">
<title>DateComponent </title>
<polygon fill="#fb8072" stroke="#000000" points="3041.7591,-252 2930.2409,-252 2930.2409,-216 3041.7591,-216 3041.7591,-252"/>
<text text-anchor="middle" x="2986" y="-229.8" font-family="Times,serif" font-size="14.00" fill="#000000">DateComponent </text>
</g>
<!-- SharedCoreModule&#45;&gt;DateComponent  -->
<g id="edge29" class="edge">
<title>SharedCoreModule&#45;&gt;DateComponent </title>
<path fill="none" stroke="#000000" stroke-dasharray="5,2" d="M2027.8062,-178C2248.4924,-178 2975.125,-178 2975.125,-178 2975.125,-178 2975.125,-205.973 2975.125,-205.973"/>
<polygon fill="#000000" stroke="#000000" points="2971.6251,-205.973 2975.125,-215.973 2978.6251,-205.973 2971.6251,-205.973"/>
</g>
<!-- DateFieldFormatDirective  -->
<g id="node31" class="node">
<title>DateFieldFormatDirective </title>
<polygon fill="#fb8072" stroke="#000000" points="2912.7268,-252 2745.2732,-252 2745.2732,-216 2912.7268,-216 2912.7268,-252"/>
<text text-anchor="middle" x="2829" y="-229.8" font-family="Times,serif" font-size="14.00" fill="#000000">DateFieldFormatDirective </text>
</g>
<!-- SharedCoreModule&#45;&gt;DateFieldFormatDirective  -->
<g id="edge30" class="edge">
<title>SharedCoreModule&#45;&gt;DateFieldFormatDirective </title>
<path fill="none" stroke="#000000" stroke-dasharray="5,2" d="M2027.8426,-180C2225.2077,-180 2819.625,-180 2819.625,-180 2819.625,-180 2819.625,-205.7181 2819.625,-205.7181"/>
<polygon fill="#000000" stroke="#000000" points="2816.1251,-205.718 2819.625,-215.7181 2823.1251,-205.7181 2816.1251,-205.718"/>
</g>
<!-- DatepickerComponent  -->
<g id="node32" class="node">
<title>DatepickerComponent </title>
<polygon fill="#fb8072" stroke="#000000" points="2727.2394,-252 2580.7606,-252 2580.7606,-216 2727.2394,-216 2727.2394,-252"/>
<text text-anchor="middle" x="2654" y="-229.8" font-family="Times,serif" font-size="14.00" fill="#000000">DatepickerComponent </text>
</g>
<!-- SharedCoreModule&#45;&gt;DatepickerComponent  -->
<g id="edge31" class="edge">
<title>SharedCoreModule&#45;&gt;DatepickerComponent </title>
<path fill="none" stroke="#000000" stroke-dasharray="5,2" d="M2027.9039,-181C2196.646,-181 2646.625,-181 2646.625,-181 2646.625,-181 2646.625,-205.7604 2646.625,-205.7604"/>
<polygon fill="#000000" stroke="#000000" points="2643.1251,-205.7604 2646.625,-215.7604 2650.1251,-205.7604 2643.1251,-205.7604"/>
</g>
<!-- DayValidationDirective  -->
<g id="node33" class="node">
<title>DayValidationDirective </title>
<polygon fill="#fb8072" stroke="#000000" points="2563.0022,-252 2408.9978,-252 2408.9978,-216 2563.0022,-216 2563.0022,-252"/>
<text text-anchor="middle" x="2486" y="-229.8" font-family="Times,serif" font-size="14.00" fill="#000000">DayValidationDirective </text>
</g>
<!-- SharedCoreModule&#45;&gt;DayValidationDirective  -->
<g id="edge32" class="edge">
<title>SharedCoreModule&#45;&gt;DayValidationDirective </title>
<path fill="none" stroke="#000000" stroke-dasharray="5,2" d="M2027.6494,-183C2164.9311,-183 2480.125,-183 2480.125,-183 2480.125,-183 2480.125,-205.8757 2480.125,-205.8757"/>
<polygon fill="#000000" stroke="#000000" points="2476.6251,-205.8757 2480.125,-215.8757 2483.6251,-205.8757 2476.6251,-205.8757"/>
</g>
<!-- DropdownComponent  -->
<g id="node34" class="node">
<title>DropdownComponent </title>
<polygon fill="#fb8072" stroke="#000000" points="2391.2065,-252 2246.7935,-252 2246.7935,-216 2391.2065,-216 2391.2065,-252"/>
<text text-anchor="middle" x="2319" y="-229.8" font-family="Times,serif" font-size="14.00" fill="#000000">DropdownComponent </text>
</g>
<!-- SharedCoreModule&#45;&gt;DropdownComponent  -->
<g id="edge33" class="edge">
<title>SharedCoreModule&#45;&gt;DropdownComponent </title>
<path fill="none" stroke="#000000" stroke-dasharray="5,2" d="M2027.6554,-184C2122.5954,-184 2291.9656,-184 2291.9656,-184 2291.9656,-184 2291.9656,-205.9489 2291.9656,-205.9489"/>
<polygon fill="#000000" stroke="#000000" points="2288.4657,-205.9488 2291.9656,-215.9489 2295.4657,-205.9489 2288.4657,-205.9488"/>
</g>
<!-- FileUploaderComponent  -->
<g id="node35" class="node">
<title>FileUploaderComponent </title>
<polygon fill="#fb8072" stroke="#000000" points="2228.1981,-252 2069.8019,-252 2069.8019,-216 2228.1981,-216 2228.1981,-252"/>
<text text-anchor="middle" x="2149" y="-229.8" font-family="Times,serif" font-size="14.00" fill="#000000">FileUploaderComponent </text>
</g>
<!-- SharedCoreModule&#45;&gt;FileUploaderComponent  -->
<g id="edge34" class="edge">
<title>SharedCoreModule&#45;&gt;FileUploaderComponent </title>
<path fill="none" stroke="#000000" stroke-dasharray="5,2" d="M2027.9882,-186C2071.2748,-186 2120.967,-186 2120.967,-186 2120.967,-186 2120.967,-205.8533 2120.967,-205.8533"/>
<polygon fill="#000000" stroke="#000000" points="2117.4671,-205.8532 2120.967,-215.8533 2124.4671,-205.8533 2117.4671,-205.8532"/>
</g>
<!-- FormActionBarComponent  -->
<g id="node36" class="node">
<title>FormActionBarComponent </title>
<polygon fill="#fb8072" stroke="#000000" points="2051.9811,-252 1878.0189,-252 1878.0189,-216 2051.9811,-216 2051.9811,-252"/>
<text text-anchor="middle" x="1965" y="-229.8" font-family="Times,serif" font-size="14.00" fill="#000000">FormActionBarComponent </text>
</g>
<!-- SharedCoreModule&#45;&gt;FormActionBarComponent  -->
<g id="edge35" class="edge">
<title>SharedCoreModule&#45;&gt;FormActionBarComponent </title>
<path fill="none" stroke="#000000" stroke-dasharray="5,2" d="M1965,-187.1061C1965,-187.1061 1965,-205.991 1965,-205.991"/>
<polygon fill="#000000" stroke="#000000" points="1961.5001,-205.9909 1965,-215.991 1968.5001,-205.991 1961.5001,-205.9909"/>
</g>
<!-- FormSubmitBarComponent  -->
<g id="node37" class="node">
<title>FormSubmitBarComponent </title>
<polygon fill="#fb8072" stroke="#000000" points="1859.8325,-252 1684.1675,-252 1684.1675,-216 1859.8325,-216 1859.8325,-252"/>
<text text-anchor="middle" x="1772" y="-229.8" font-family="Times,serif" font-size="14.00" fill="#000000">FormSubmitBarComponent </text>
</g>
<!-- SharedCoreModule&#45;&gt;FormSubmitBarComponent  -->
<g id="edge36" class="edge">
<title>SharedCoreModule&#45;&gt;FormSubmitBarComponent </title>
<path fill="none" stroke="#000000" stroke-dasharray="5,2" d="M1902.1019,-186C1837.5609,-186 1746.5279,-186 1746.5279,-186 1746.5279,-186 1746.5279,-205.8533 1746.5279,-205.8533"/>
<polygon fill="#000000" stroke="#000000" points="1743.028,-205.8532 1746.5279,-215.8533 1750.028,-205.8533 1743.028,-205.8532"/>
</g>
<!-- PageFrameworkComponent  -->
<g id="node38" class="node">
<title>PageFrameworkComponent </title>
<polygon fill="#fb8072" stroke="#000000" points="1666.0749,-252 1489.9251,-252 1489.9251,-216 1666.0749,-216 1666.0749,-252"/>
<text text-anchor="middle" x="1578" y="-229.8" font-family="Times,serif" font-size="14.00" fill="#000000">PageFrameworkComponent </text>
</g>
<!-- SharedCoreModule&#45;&gt;PageFrameworkComponent  -->
<g id="edge37" class="edge">
<title>SharedCoreModule&#45;&gt;PageFrameworkComponent </title>
<path fill="none" stroke="#000000" stroke-dasharray="5,2" d="M1902.1924,-184C1787.1723,-184 1554.4043,-184 1554.4043,-184 1554.4043,-184 1554.4043,-205.9489 1554.4043,-205.9489"/>
<polygon fill="#000000" stroke="#000000" points="1550.9044,-205.9488 1554.4043,-215.9489 1557.9044,-205.9489 1550.9044,-205.9488"/>
</g>
<!-- PageSectionComponent  -->
<g id="node39" class="node">
<title>PageSectionComponent </title>
<polygon fill="#fb8072" stroke="#000000" points="1472.0372,-252 1317.9628,-252 1317.9628,-216 1472.0372,-216 1472.0372,-252"/>
<text text-anchor="middle" x="1395" y="-229.8" font-family="Times,serif" font-size="14.00" fill="#000000">PageSectionComponent </text>
</g>
<!-- SharedCoreModule&#45;&gt;PageSectionComponent  -->
<g id="edge38" class="edge">
<title>SharedCoreModule&#45;&gt;PageSectionComponent </title>
<path fill="none" stroke="#000000" stroke-dasharray="5,2" d="M1902.2018,-183C1755.1598,-183 1400.875,-183 1400.875,-183 1400.875,-183 1400.875,-205.8757 1400.875,-205.8757"/>
<polygon fill="#000000" stroke="#000000" points="1397.3751,-205.8757 1400.875,-215.8757 1404.3751,-205.8757 1397.3751,-205.8757"/>
</g>
<!-- PasswordComponent  -->
<g id="node40" class="node">
<title>PasswordComponent </title>
<polygon fill="#fb8072" stroke="#000000" points="1300.4869,-252 1161.5131,-252 1161.5131,-216 1300.4869,-216 1300.4869,-252"/>
<text text-anchor="middle" x="1231" y="-229.8" font-family="Times,serif" font-size="14.00" fill="#000000">PasswordComponent </text>
</g>
<!-- SharedCoreModule&#45;&gt;PasswordComponent  -->
<g id="edge39" class="edge">
<title>SharedCoreModule&#45;&gt;PasswordComponent </title>
<path fill="none" stroke="#000000" stroke-dasharray="5,2" d="M1902.104,-181C1725.5854,-181 1238.375,-181 1238.375,-181 1238.375,-181 1238.375,-205.7604 1238.375,-205.7604"/>
<polygon fill="#000000" stroke="#000000" points="1234.8751,-205.7604 1238.375,-215.7604 1241.8751,-205.7604 1234.8751,-205.7604"/>
</g>
<!-- PostalCodeComponent  -->
<g id="node41" class="node">
<title>PostalCodeComponent </title>
<polygon fill="#fb8072" stroke="#000000" points="1143.1071,-252 994.8929,-252 994.8929,-216 1143.1071,-216 1143.1071,-252"/>
<text text-anchor="middle" x="1069" y="-229.8" font-family="Times,serif" font-size="14.00" fill="#000000">PostalCodeComponent </text>
</g>
<!-- SharedCoreModule&#45;&gt;PostalCodeComponent  -->
<g id="edge40" class="edge">
<title>SharedCoreModule&#45;&gt;PostalCodeComponent </title>
<path fill="none" stroke="#000000" stroke-dasharray="5,2" d="M1902.301,-180C1700.1143,-180 1078.375,-180 1078.375,-180 1078.375,-180 1078.375,-205.7181 1078.375,-205.7181"/>
<polygon fill="#000000" stroke="#000000" points="1074.8751,-205.718 1078.375,-215.7181 1081.8751,-205.7181 1074.8751,-205.718"/>
</g>
<!-- ProvinceComponent  -->
<g id="node42" class="node">
<title>ProvinceComponent </title>
<polygon fill="#fb8072" stroke="#000000" points="976.096,-252 841.904,-252 841.904,-216 976.096,-216 976.096,-252"/>
<text text-anchor="middle" x="909" y="-229.8" font-family="Times,serif" font-size="14.00" fill="#000000">ProvinceComponent </text>
</g>
<!-- SharedCoreModule&#45;&gt;ProvinceComponent  -->
<g id="edge41" class="edge">
<title>SharedCoreModule&#45;&gt;ProvinceComponent </title>
<path fill="none" stroke="#000000" stroke-dasharray="5,2" d="M1902.0065,-178C1676.1575,-178 920.375,-178 920.375,-178 920.375,-178 920.375,-205.973 920.375,-205.973"/>
<polygon fill="#000000" stroke="#000000" points="916.8751,-205.973 920.375,-215.973 923.8751,-205.973 916.8751,-205.973"/>
</g>
<!-- StreetComponent  -->
<g id="node43" class="node">
<title>StreetComponent </title>
<polygon fill="#fb8072" stroke="#000000" points="823.987,-252 706.013,-252 706.013,-216 823.987,-216 823.987,-252"/>
<text text-anchor="middle" x="765" y="-229.8" font-family="Times,serif" font-size="14.00" fill="#000000">StreetComponent </text>
</g>
<!-- SharedCoreModule&#45;&gt;StreetComponent  -->
<g id="edge42" class="edge">
<title>SharedCoreModule&#45;&gt;StreetComponent </title>
<path fill="none" stroke="#000000" stroke-dasharray="5,2" d="M1902.0132,-177C1656.5906,-177 777.875,-177 777.875,-177 777.875,-177 777.875,-205.9648 777.875,-205.9648"/>
<polygon fill="#000000" stroke="#000000" points="774.3751,-205.9648 777.875,-215.9648 781.3751,-205.9649 774.3751,-205.9648"/>
</g>
<!-- ThumbnailComponent  -->
<g id="node44" class="node">
<title>ThumbnailComponent </title>
<polygon fill="#fb8072" stroke="#000000" points="688.2717,-252 541.7283,-252 541.7283,-216 688.2717,-216 688.2717,-252"/>
<text text-anchor="middle" x="615" y="-229.8" font-family="Times,serif" font-size="14.00" fill="#000000">ThumbnailComponent </text>
</g>
<!-- SharedCoreModule&#45;&gt;ThumbnailComponent  -->
<g id="edge43" class="edge">
<title>SharedCoreModule&#45;&gt;ThumbnailComponent </title>
<path fill="none" stroke="#000000" stroke-dasharray="5,2" d="M1901.9493,-175C1637.3028,-175 629.875,-175 629.875,-175 629.875,-175 629.875,-205.9775 629.875,-205.9775"/>
<polygon fill="#000000" stroke="#000000" points="626.3751,-205.9774 629.875,-215.9775 633.3751,-205.9775 626.3751,-205.9774"/>
</g>
<!-- ToggleComponent  -->
<g id="node45" class="node">
<title>ToggleComponent </title>
<polygon fill="#fb8072" stroke="#000000" points="524.4912,-252 399.5088,-252 399.5088,-216 524.4912,-216 524.4912,-252"/>
<text text-anchor="middle" x="462" y="-229.8" font-family="Times,serif" font-size="14.00" fill="#000000">ToggleComponent </text>
</g>
<!-- SharedCoreModule&#45;&gt;ToggleComponent  -->
<g id="edge44" class="edge">
<title>SharedCoreModule&#45;&gt;ToggleComponent </title>
<path fill="none" stroke="#000000" stroke-dasharray="5,2" d="M1902.0711,-173C1619.1143,-173 478.375,-173 478.375,-173 478.375,-173 478.375,-205.698 478.375,-205.698"/>
<polygon fill="#000000" stroke="#000000" points="474.8751,-205.698 478.375,-215.698 481.8751,-205.698 474.8751,-205.698"/>
</g>
<!-- WizardProgressBarComponent  -->
<g id="node46" class="node">
<title>WizardProgressBarComponent </title>
<polygon fill="#fb8072" stroke="#000000" points="382.4473,-252 187.5527,-252 187.5527,-216 382.4473,-216 382.4473,-252"/>
<text text-anchor="middle" x="285" y="-229.8" font-family="Times,serif" font-size="14.00" fill="#000000">WizardProgressBarComponent </text>
</g>
<!-- SharedCoreModule&#45;&gt;WizardProgressBarComponent  -->
<g id="edge45" class="edge">
<title>SharedCoreModule&#45;&gt;WizardProgressBarComponent </title>
<path fill="none" stroke="#000000" stroke-dasharray="5,2" d="M1902.124,-172C1598.9818,-172 302.875,-172 302.875,-172 302.875,-172 302.875,-205.7333 302.875,-205.7333"/>
<polygon fill="#000000" stroke="#000000" points="299.3751,-205.7333 302.875,-215.7333 306.3751,-205.7333 299.3751,-205.7333"/>
</g>
<!-- YearValidateDirective  -->
<g id="node47" class="node">
<title>YearValidateDirective </title>
<polygon fill="#fb8072" stroke="#000000" points="170.2015,-252 23.7985,-252 23.7985,-216 170.2015,-216 170.2015,-252"/>
<text text-anchor="middle" x="97" y="-229.8" font-family="Times,serif" font-size="14.00" fill="#000000">YearValidateDirective </text>
</g>
<!-- SharedCoreModule&#45;&gt;YearValidateDirective  -->
<g id="edge46" class="edge">
<title>SharedCoreModule&#45;&gt;YearValidateDirective </title>
<path fill="none" stroke="#000000" stroke-dasharray="5,2" d="M1902.1676,-170C1578.7113,-170 116.375,-170 116.375,-170 116.375,-170 116.375,-205.8314 116.375,-205.8314"/>
<polygon fill="#000000" stroke="#000000" points="112.8751,-205.8313 116.375,-215.8314 119.8751,-205.8314 112.8751,-205.8313"/>
</g>
</g>
</svg>
