<?xml version="1.0" encoding="UTF-8" standalone="no"?>
<!DOCTYPE svg PUBLIC "-//W3C//DTD SVG 1.1//EN"
 "http://www.w3.org/Graphics/SVG/1.1/DTD/svg11.dtd">
<!-- Generated by graphviz version 2.40.1 (20161225.0304)
 -->
<!-- Title: dependencies Pages: 1 -->
<svg width="2508pt" height="284pt"
 viewBox="0.00 0.00 2508.00 284.00" xmlns="http://www.w3.org/2000/svg" xmlns:xlink="http://www.w3.org/1999/xlink">
<g id="graph0" class="graph" transform="scale(1 1) rotate(0) translate(4 280)">
<title>dependencies</title>
<polygon fill="#ffffff" stroke="transparent" points="-4,4 -4,-280 2504,-280 2504,4 -4,4"/>
<text text-anchor="start" x="1229.0091" y="-42.4" font-family="sans-serif" font-weight="bold" font-size="14.00" fill="#000000">Legend</text>
<polygon fill="#ffffb3" stroke="transparent" points="1016,-10 1016,-30 1036,-30 1036,-10 1016,-10"/>
<text text-anchor="start" x="1039.629" y="-15.4" font-family="sans-serif" font-size="14.00" fill="#000000"> &#160;Declarations</text>
<polygon fill="#8dd3c7" stroke="transparent" points="1129,-10 1129,-30 1149,-30 1149,-10 1129,-10"/>
<text text-anchor="start" x="1152.7251" y="-15.4" font-family="sans-serif" font-size="14.00" fill="#000000"> &#160;Module</text>
<polygon fill="#80b1d3" stroke="transparent" points="1215,-10 1215,-30 1235,-30 1235,-10 1215,-10"/>
<text text-anchor="start" x="1238.7812" y="-15.4" font-family="sans-serif" font-size="14.00" fill="#000000"> &#160;Bootstrap</text>
<polygon fill="#fdb462" stroke="transparent" points="1312,-10 1312,-30 1332,-30 1332,-10 1312,-10"/>
<text text-anchor="start" x="1335.6732" y="-15.4" font-family="sans-serif" font-size="14.00" fill="#000000"> &#160;Providers</text>
<polygon fill="#fb8072" stroke="transparent" points="1408,-10 1408,-30 1428,-30 1428,-10 1408,-10"/>
<text text-anchor="start" x="1431.7258" y="-15.4" font-family="sans-serif" font-size="14.00" fill="#000000"> &#160;Exports</text>
<g id="clust1" class="cluster">
<title>cluster_SharedCoreModule</title>
<polygon fill="none" stroke="#000000" stroke-dasharray="1,5" points="8,-70 8,-268 2492,-268 2492,-70 8,-70"/>
</g>
<g id="clust2" class="cluster">
<title>cluster_SharedCoreModule_declarations</title>
<polygon fill="none" stroke="#000000" points="45,-78 45,-130 2466,-130 2466,-78 45,-78"/>
</g>
<g id="clust18" class="cluster">
<title>cluster_SharedCoreModule_exports</title>
<polygon fill="none" stroke="#000000" points="16,-208 16,-260 2484,-260 2484,-208 16,-208"/>
</g>
<!-- CoreBreadcrumbComponent -->
<g id="node1" class="node">
<title>CoreBreadcrumbComponent</title>
<polygon fill="#ffffb3" stroke="#000000" points="2457.7366,-122 2280.2634,-122 2280.2634,-86 2457.7366,-86 2457.7366,-122"/>
<text text-anchor="middle" x="2369" y="-99.8" font-family="Times,serif" font-size="14.00" fill="#000000">CoreBreadcrumbComponent</text>
</g>
<!-- SharedCoreModule -->
<g id="node15" class="node">
<title>SharedCoreModule</title>
<polygon fill="#8dd3c7" stroke="#000000" points="1250.6345,-187 1247.6345,-191 1226.6345,-191 1223.6345,-187 1125.3655,-187 1125.3655,-151 1250.6345,-151 1250.6345,-187"/>
<text text-anchor="middle" x="1188" y="-164.8" font-family="Times,serif" font-size="14.00" fill="#000000">SharedCoreModule</text>
</g>
<!-- CoreBreadcrumbComponent&#45;&gt;SharedCoreModule -->
<g id="edge1" class="edge">
<title>CoreBreadcrumbComponent&#45;&gt;SharedCoreModule</title>
<path fill="none" stroke="#000000" d="M2287.2568,-122.1686C2287.2568,-141.0898 2287.2568,-168 2287.2568,-168 2287.2568,-168 1260.6492,-168 1260.6492,-168"/>
<polygon fill="#000000" stroke="#000000" points="1260.6492,-164.5001 1250.6492,-168 1260.6491,-171.5001 1260.6492,-164.5001"/>
</g>
<!-- DateComponent -->
<g id="node2" class="node">
<title>DateComponent</title>
<polygon fill="#ffffb3" stroke="#000000" points="2261.7591,-122 2154.2409,-122 2154.2409,-86 2261.7591,-86 2261.7591,-122"/>
<text text-anchor="middle" x="2208" y="-99.8" font-family="Times,serif" font-size="14.00" fill="#000000">DateComponent</text>
</g>
<!-- DateComponent&#45;&gt;SharedCoreModule -->
<g id="edge2" class="edge">
<title>DateComponent&#45;&gt;SharedCoreModule</title>
<path fill="none" stroke="#000000" d="M2159.7456,-122.2667C2159.7456,-140.5552 2159.7456,-166 2159.7456,-166 2159.7456,-166 1260.6373,-166 1260.6373,-166"/>
<polygon fill="#000000" stroke="#000000" points="1260.6373,-162.5001 1250.6373,-166 1260.6372,-169.5001 1260.6373,-162.5001"/>
</g>
<!-- DateFieldFormatDirective -->
<g id="node3" class="node">
<title>DateFieldFormatDirective</title>
<polygon fill="#ffffb3" stroke="#000000" points="2135.7268,-122 1972.2732,-122 1972.2732,-86 2135.7268,-86 2135.7268,-122"/>
<text text-anchor="middle" x="2054" y="-99.8" font-family="Times,serif" font-size="14.00" fill="#000000">DateFieldFormatDirective</text>
</g>
<!-- DateFieldFormatDirective&#45;&gt;SharedCoreModule -->
<g id="edge3" class="edge">
<title>DateFieldFormatDirective&#45;&gt;SharedCoreModule</title>
<path fill="none" stroke="#000000" d="M1976.2617,-122.0225C1976.2617,-139.3734 1976.2617,-163 1976.2617,-163 1976.2617,-163 1260.843,-163 1260.843,-163"/>
<polygon fill="#000000" stroke="#000000" points="1260.843,-159.5001 1250.843,-163 1260.843,-166.5001 1260.843,-159.5001"/>
</g>
<!-- DatepickerComponent -->
<g id="node4" class="node">
<title>DatepickerComponent</title>
<polygon fill="#ffffb3" stroke="#000000" points="1954.2394,-122 1811.7606,-122 1811.7606,-86 1954.2394,-86 1954.2394,-122"/>
<text text-anchor="middle" x="1883" y="-99.8" font-family="Times,serif" font-size="14.00" fill="#000000">DatepickerComponent</text>
</g>
<!-- DatepickerComponent&#45;&gt;SharedCoreModule -->
<g id="edge4" class="edge">
<title>DatepickerComponent&#45;&gt;SharedCoreModule</title>
<path fill="none" stroke="#000000" d="M1908.2065,-122.0352C1908.2065,-138.7344 1908.2065,-161 1908.2065,-161 1908.2065,-161 1260.6537,-161 1260.6537,-161"/>
<polygon fill="#000000" stroke="#000000" points="1260.6538,-157.5001 1250.6537,-161 1260.6537,-164.5001 1260.6538,-157.5001"/>
</g>
<!-- DayValidationDirective -->
<g id="node5" class="node">
<title>DayValidationDirective</title>
<polygon fill="#ffffb3" stroke="#000000" points="1793.003,-122 1642.997,-122 1642.997,-86 1793.003,-86 1793.003,-122"/>
<text text-anchor="middle" x="1718" y="-99.8" font-family="Times,serif" font-size="14.00" fill="#000000">DayValidationDirective</text>
</g>
<!-- DayValidationDirective&#45;&gt;SharedCoreModule -->
<g id="edge5" class="edge">
<title>DayValidationDirective&#45;&gt;SharedCoreModule</title>
<path fill="none" stroke="#000000" d="M1743.5004,-122.0091C1743.5004,-138.0494 1743.5004,-159 1743.5004,-159 1743.5004,-159 1260.6431,-159 1260.6431,-159"/>
<polygon fill="#000000" stroke="#000000" points="1260.6432,-155.5001 1250.6431,-159 1260.6431,-162.5001 1260.6432,-155.5001"/>
</g>
<!-- FileUploaderComponent -->
<g id="node6" class="node">
<title>FileUploaderComponent</title>
<polygon fill="#ffffb3" stroke="#000000" points="1624.6979,-122 1469.3021,-122 1469.3021,-86 1624.6979,-86 1624.6979,-122"/>
<text text-anchor="middle" x="1547" y="-99.8" font-family="Times,serif" font-size="14.00" fill="#000000">FileUploaderComponent</text>
</g>
<!-- FileUploaderComponent&#45;&gt;SharedCoreModule -->
<g id="edge6" class="edge">
<title>FileUploaderComponent&#45;&gt;SharedCoreModule</title>
<path fill="none" stroke="#000000" d="M1521.1337,-122.1871C1521.1337,-137.1824 1521.1337,-156 1521.1337,-156 1521.1337,-156 1260.6599,-156 1260.6599,-156"/>
<polygon fill="#000000" stroke="#000000" points="1260.6599,-152.5001 1250.6599,-156 1260.6599,-159.5001 1260.6599,-152.5001"/>
</g>
<!-- FormActionBarComponent -->
<g id="node7" class="node">
<title>FormActionBarComponent</title>
<polygon fill="#ffffb3" stroke="#000000" points="1450.9804,-122 1281.0196,-122 1281.0196,-86 1450.9804,-86 1450.9804,-122"/>
<text text-anchor="middle" x="1366" y="-99.8" font-family="Times,serif" font-size="14.00" fill="#000000">FormActionBarComponent</text>
</g>
<!-- FormActionBarComponent&#45;&gt;SharedCoreModule -->
<g id="edge7" class="edge">
<title>FormActionBarComponent&#45;&gt;SharedCoreModule</title>
<path fill="none" stroke="#000000" d="M1337.2533,-122.0511C1337.2533,-136.373 1337.2533,-154 1337.2533,-154 1337.2533,-154 1260.8642,-154 1260.8642,-154"/>
<polygon fill="#000000" stroke="#000000" points="1260.8643,-150.5001 1250.8642,-154 1260.8642,-157.5001 1260.8643,-150.5001"/>
</g>
<!-- FormSubmitBarComponent -->
<g id="node8" class="node">
<title>FormSubmitBarComponent</title>
<polygon fill="#ffffb3" stroke="#000000" points="1263.3327,-122 1090.6673,-122 1090.6673,-86 1263.3327,-86 1263.3327,-122"/>
<text text-anchor="middle" x="1177" y="-99.8" font-family="Times,serif" font-size="14.00" fill="#000000">FormSubmitBarComponent</text>
</g>
<!-- FormSubmitBarComponent&#45;&gt;SharedCoreModule -->
<g id="edge8" class="edge">
<title>FormSubmitBarComponent&#45;&gt;SharedCoreModule</title>
<path fill="none" stroke="#000000" d="M1188,-122.1061C1188,-122.1061 1188,-140.991 1188,-140.991"/>
<polygon fill="#000000" stroke="#000000" points="1184.5001,-140.9909 1188,-150.991 1191.5001,-140.991 1184.5001,-140.9909"/>
</g>
<!-- PageFrameworkComponent -->
<g id="node9" class="node">
<title>PageFrameworkComponent</title>
<polygon fill="#ffffb3" stroke="#000000" points="1072.5744,-122 899.4256,-122 899.4256,-86 1072.5744,-86 1072.5744,-122"/>
<text text-anchor="middle" x="986" y="-99.8" font-family="Times,serif" font-size="14.00" fill="#000000">PageFrameworkComponent</text>
</g>
<!-- PageFrameworkComponent&#45;&gt;SharedCoreModule -->
<g id="edge9" class="edge">
<title>PageFrameworkComponent&#45;&gt;SharedCoreModule</title>
<path fill="none" stroke="#000000" d="M1068.4122,-122.0511C1068.4122,-136.373 1068.4122,-154 1068.4122,-154 1068.4122,-154 1115.0542,-154 1115.0542,-154"/>
<polygon fill="#000000" stroke="#000000" points="1115.0542,-157.5001 1125.0542,-154 1115.0542,-150.5001 1115.0542,-157.5001"/>
</g>
<!-- PasswordComponent -->
<g id="node10" class="node">
<title>PasswordComponent</title>
<polygon fill="#ffffb3" stroke="#000000" points="881.486,-122 746.514,-122 746.514,-86 881.486,-86 881.486,-122"/>
<text text-anchor="middle" x="814" y="-99.8" font-family="Times,serif" font-size="14.00" fill="#000000">PasswordComponent</text>
</g>
<!-- PasswordComponent&#45;&gt;SharedCoreModule -->
<g id="edge10" class="edge">
<title>PasswordComponent&#45;&gt;SharedCoreModule</title>
<path fill="none" stroke="#000000" d="M875.368,-122.2396C875.368,-137.5706 875.368,-157 875.368,-157 875.368,-157 1115.1103,-157 1115.1103,-157"/>
<polygon fill="#000000" stroke="#000000" points="1115.1104,-160.5001 1125.1103,-157 1115.1103,-153.5001 1115.1104,-160.5001"/>
</g>
<!-- PostalCodeComponent -->
<g id="node11" class="node">
<title>PostalCodeComponent</title>
<polygon fill="#ffffb3" stroke="#000000" points="728.6066,-122 583.3934,-122 583.3934,-86 728.6066,-86 728.6066,-122"/>
<text text-anchor="middle" x="656" y="-99.8" font-family="Times,serif" font-size="14.00" fill="#000000">PostalCodeComponent</text>
</g>
<!-- PostalCodeComponent&#45;&gt;SharedCoreModule -->
<g id="edge11" class="edge">
<title>PostalCodeComponent&#45;&gt;SharedCoreModule</title>
<path fill="none" stroke="#000000" d="M720.4283,-122.027C720.4283,-138.3976 720.4283,-160 720.4283,-160 720.4283,-160 1114.9412,-160 1114.9412,-160"/>
<polygon fill="#000000" stroke="#000000" points="1114.9412,-163.5001 1124.9412,-160 1114.9412,-156.5001 1114.9412,-163.5001"/>
</g>
<!-- ThumbnailComponent -->
<g id="node12" class="node">
<title>ThumbnailComponent</title>
<polygon fill="#ffffb3" stroke="#000000" points="565.2716,-122 422.7284,-122 422.7284,-86 565.2716,-86 565.2716,-122"/>
<text text-anchor="middle" x="494" y="-99.8" font-family="Times,serif" font-size="14.00" fill="#000000">ThumbnailComponent</text>
</g>
<!-- ThumbnailComponent&#45;&gt;SharedCoreModule -->
<g id="edge12" class="edge">
<title>ThumbnailComponent&#45;&gt;SharedCoreModule</title>
<path fill="none" stroke="#000000" d="M554.9162,-122.0225C554.9162,-139.3734 554.9162,-163 554.9162,-163 554.9162,-163 1115.2742,-163 1115.2742,-163"/>
<polygon fill="#000000" stroke="#000000" points="1115.2743,-166.5001 1125.2742,-163 1115.2742,-159.5001 1115.2743,-166.5001"/>
</g>
<!-- WizardProgressBarComponent -->
<g id="node13" class="node">
<title>WizardProgressBarComponent</title>
<polygon fill="#ffffb3" stroke="#000000" points="404.4468,-122 213.5532,-122 213.5532,-86 404.4468,-86 404.4468,-122"/>
<text text-anchor="middle" x="309" y="-99.8" font-family="Times,serif" font-size="14.00" fill="#000000">WizardProgressBarComponent</text>
</g>
<!-- WizardProgressBarComponent&#45;&gt;SharedCoreModule -->
<g id="edge13" class="edge">
<title>WizardProgressBarComponent&#45;&gt;SharedCoreModule</title>
<path fill="none" stroke="#000000" d="M391.0439,-122.302C391.0439,-140.2699 391.0439,-165 391.0439,-165 391.0439,-165 1115.1315,-165 1115.1315,-165"/>
<polygon fill="#000000" stroke="#000000" points="1115.1315,-168.5001 1125.1315,-165 1115.1315,-161.5001 1115.1315,-168.5001"/>
</g>
<!-- YearValidateDirective -->
<g id="node14" class="node">
<title>YearValidateDirective</title>
<polygon fill="#ffffb3" stroke="#000000" points="195.2017,-122 52.7983,-122 52.7983,-86 195.2017,-86 195.2017,-122"/>
<text text-anchor="middle" x="124" y="-99.8" font-family="Times,serif" font-size="14.00" fill="#000000">YearValidateDirective</text>
</g>
<!-- YearValidateDirective&#45;&gt;SharedCoreModule -->
<g id="edge14" class="edge">
<title>YearValidateDirective&#45;&gt;SharedCoreModule</title>
<path fill="none" stroke="#000000" d="M191.5637,-122.1686C191.5637,-141.0898 191.5637,-168 191.5637,-168 191.5637,-168 1115.291,-168 1115.291,-168"/>
<polygon fill="#000000" stroke="#000000" points="1115.291,-171.5001 1125.291,-168 1115.2909,-164.5001 1115.291,-171.5001"/>
</g>
<!-- CoreBreadcrumbComponent  -->
<g id="node16" class="node">
<title>CoreBreadcrumbComponent </title>
<polygon fill="#fb8072" stroke="#000000" points="2475.7366,-252 2294.2634,-252 2294.2634,-216 2475.7366,-216 2475.7366,-252"/>
<text text-anchor="middle" x="2385" y="-229.8" font-family="Times,serif" font-size="14.00" fill="#000000">CoreBreadcrumbComponent </text>
</g>
<!-- SharedCoreModule&#45;&gt;CoreBreadcrumbComponent  -->
<g id="edge15" class="edge">
<title>SharedCoreModule&#45;&gt;CoreBreadcrumbComponent </title>
<path fill="none" stroke="#000000" stroke-dasharray="5,2" d="M1251.0399,-171C1496.6692,-171 2376.125,-171 2376.125,-171 2376.125,-171 2376.125,-205.7778 2376.125,-205.7778"/>
<polygon fill="#000000" stroke="#000000" points="2372.6251,-205.7778 2376.125,-215.7778 2379.6251,-205.7778 2372.6251,-205.7778"/>
</g>
<!-- DateComponent  -->
<g id="node17" class="node">
<title>DateComponent </title>
<polygon fill="#fb8072" stroke="#000000" points="2276.7591,-252 2165.2409,-252 2165.2409,-216 2276.7591,-216 2276.7591,-252"/>
<text text-anchor="middle" x="2221" y="-229.8" font-family="Times,serif" font-size="14.00" fill="#000000">DateComponent </text>
</g>
<!-- SharedCoreModule&#45;&gt;DateComponent  -->
<g id="edge16" class="edge">
<title>SharedCoreModule&#45;&gt;DateComponent </title>
<path fill="none" stroke="#000000" stroke-dasharray="5,2" d="M1250.998,-173C1474.1426,-173 2213.625,-173 2213.625,-173 2213.625,-173 2213.625,-205.698 2213.625,-205.698"/>
<polygon fill="#000000" stroke="#000000" points="2210.1251,-205.698 2213.625,-215.698 2217.1251,-205.698 2210.1251,-205.698"/>
</g>
<!-- DateFieldFormatDirective  -->
<g id="node18" class="node">
<title>DateFieldFormatDirective </title>
<polygon fill="#fb8072" stroke="#000000" points="2147.7268,-252 1980.2732,-252 1980.2732,-216 2147.7268,-216 2147.7268,-252"/>
<text text-anchor="middle" x="2064" y="-229.8" font-family="Times,serif" font-size="14.00" fill="#000000">DateFieldFormatDirective </text>
</g>
<!-- SharedCoreModule&#45;&gt;DateFieldFormatDirective  -->
<g id="edge17" class="edge">
<title>SharedCoreModule&#45;&gt;DateFieldFormatDirective </title>
<path fill="none" stroke="#000000" stroke-dasharray="5,2" d="M1250.9273,-175C1450.7992,-175 2058.125,-175 2058.125,-175 2058.125,-175 2058.125,-205.9775 2058.125,-205.9775"/>
<polygon fill="#000000" stroke="#000000" points="2054.6251,-205.9774 2058.125,-215.9775 2061.6251,-205.9775 2054.6251,-205.9774"/>
</g>
<!-- DatepickerComponent  -->
<g id="node19" class="node">
<title>DatepickerComponent </title>
<polygon fill="#fb8072" stroke="#000000" points="1962.2394,-252 1815.7606,-252 1815.7606,-216 1962.2394,-216 1962.2394,-252"/>
<text text-anchor="middle" x="1889" y="-229.8" font-family="Times,serif" font-size="14.00" fill="#000000">DatepickerComponent </text>
</g>
<!-- SharedCoreModule&#45;&gt;DatepickerComponent  -->
<g id="edge18" class="edge">
<title>SharedCoreModule&#45;&gt;DatepickerComponent </title>
<path fill="none" stroke="#000000" stroke-dasharray="5,2" d="M1250.8071,-178C1418.1385,-178 1862.0435,-178 1862.0435,-178 1862.0435,-178 1862.0435,-205.973 1862.0435,-205.973"/>
<polygon fill="#000000" stroke="#000000" points="1858.5436,-205.973 1862.0435,-215.973 1865.5436,-205.973 1858.5436,-205.973"/>
</g>
<!-- DayValidationDirective  -->
<g id="node20" class="node">
<title>DayValidationDirective </title>
<polygon fill="#fb8072" stroke="#000000" points="1798.0022,-252 1643.9978,-252 1643.9978,-216 1798.0022,-216 1798.0022,-252"/>
<text text-anchor="middle" x="1721" y="-229.8" font-family="Times,serif" font-size="14.00" fill="#000000">DayValidationDirective </text>
</g>
<!-- SharedCoreModule&#45;&gt;DayValidationDirective  -->
<g id="edge19" class="edge">
<title>SharedCoreModule&#45;&gt;DayValidationDirective </title>
<path fill="none" stroke="#000000" stroke-dasharray="5,2" d="M1250.7763,-180C1386.221,-180 1693.7496,-180 1693.7496,-180 1693.7496,-180 1693.7496,-205.7181 1693.7496,-205.7181"/>
<polygon fill="#000000" stroke="#000000" points="1690.2497,-205.718 1693.7496,-215.7181 1697.2497,-205.7181 1690.2497,-205.718"/>
</g>
<!-- FileUploaderComponent  -->
<g id="node21" class="node">
<title>FileUploaderComponent </title>
<polygon fill="#fb8072" stroke="#000000" points="1626.1981,-252 1467.8019,-252 1467.8019,-216 1626.1981,-216 1626.1981,-252"/>
<text text-anchor="middle" x="1547" y="-229.8" font-family="Times,serif" font-size="14.00" fill="#000000">FileUploaderComponent </text>
</g>
<!-- SharedCoreModule&#45;&gt;FileUploaderComponent  -->
<g id="edge20" class="edge">
<title>SharedCoreModule&#45;&gt;FileUploaderComponent </title>
<path fill="none" stroke="#000000" stroke-dasharray="5,2" d="M1250.692,-183C1359.7484,-183 1572.8663,-183 1572.8663,-183 1572.8663,-183 1572.8663,-205.8757 1572.8663,-205.8757"/>
<polygon fill="#000000" stroke="#000000" points="1569.3664,-205.8757 1572.8663,-215.8757 1576.3664,-205.8757 1569.3664,-205.8757"/>
</g>
<!-- FormActionBarComponent  -->
<g id="node22" class="node">
<title>FormActionBarComponent </title>
<polygon fill="#fb8072" stroke="#000000" points="1449.9811,-252 1276.0189,-252 1276.0189,-216 1449.9811,-216 1449.9811,-252"/>
<text text-anchor="middle" x="1363" y="-229.8" font-family="Times,serif" font-size="14.00" fill="#000000">FormActionBarComponent </text>
</g>
<!-- SharedCoreModule&#45;&gt;FormActionBarComponent  -->
<g id="edge21" class="edge">
<title>SharedCoreModule&#45;&gt;FormActionBarComponent </title>
<path fill="none" stroke="#000000" stroke-dasharray="5,2" d="M1250.7724,-185C1311.2052,-185 1393.4967,-185 1393.4967,-185 1393.4967,-185 1393.4967,-205.7542 1393.4967,-205.7542"/>
<polygon fill="#000000" stroke="#000000" points="1389.9968,-205.7542 1393.4967,-215.7542 1396.9968,-205.7542 1389.9968,-205.7542"/>
</g>
<!-- FormSubmitBarComponent  -->
<g id="node23" class="node">
<title>FormSubmitBarComponent </title>
<polygon fill="#fb8072" stroke="#000000" points="1257.8325,-252 1082.1675,-252 1082.1675,-216 1257.8325,-216 1257.8325,-252"/>
<text text-anchor="middle" x="1170" y="-229.8" font-family="Times,serif" font-size="14.00" fill="#000000">FormSubmitBarComponent </text>
</g>
<!-- SharedCoreModule&#45;&gt;FormSubmitBarComponent  -->
<g id="edge22" class="edge">
<title>SharedCoreModule&#45;&gt;FormSubmitBarComponent </title>
<path fill="none" stroke="#000000" stroke-dasharray="5,2" d="M1188,-187.1061C1188,-187.1061 1188,-205.991 1188,-205.991"/>
<polygon fill="#000000" stroke="#000000" points="1184.5001,-205.9909 1188,-215.991 1191.5001,-205.991 1184.5001,-205.9909"/>
</g>
<!-- PageFrameworkComponent  -->
<g id="node24" class="node">
<title>PageFrameworkComponent </title>
<polygon fill="#fb8072" stroke="#000000" points="1064.0749,-252 887.9251,-252 887.9251,-216 1064.0749,-216 1064.0749,-252"/>
<text text-anchor="middle" x="976" y="-229.8" font-family="Times,serif" font-size="14.00" fill="#000000">PageFrameworkComponent </text>
</g>
<!-- SharedCoreModule&#45;&gt;PageFrameworkComponent  -->
<g id="edge23" class="edge">
<title>SharedCoreModule&#45;&gt;PageFrameworkComponent </title>
<path fill="none" stroke="#000000" stroke-dasharray="5,2" d="M1125.3162,-185C1064.6731,-185 981.875,-185 981.875,-185 981.875,-185 981.875,-205.7542 981.875,-205.7542"/>
<polygon fill="#000000" stroke="#000000" points="978.3751,-205.7542 981.875,-215.7542 985.3751,-205.7542 978.3751,-205.7542"/>
</g>
<!-- PasswordComponent  -->
<g id="node25" class="node">
<title>PasswordComponent </title>
<polygon fill="#fb8072" stroke="#000000" points="869.4869,-252 730.5131,-252 730.5131,-216 869.4869,-216 869.4869,-252"/>
<text text-anchor="middle" x="800" y="-229.8" font-family="Times,serif" font-size="14.00" fill="#000000">PasswordComponent </text>
</g>
<!-- SharedCoreModule&#45;&gt;PasswordComponent  -->
<g id="edge24" class="edge">
<title>SharedCoreModule&#45;&gt;PasswordComponent </title>
<path fill="none" stroke="#000000" stroke-dasharray="5,2" d="M1125.2301,-182C1017.2639,-182 807.875,-182 807.875,-182 807.875,-182 807.875,-205.8129 807.875,-205.8129"/>
<polygon fill="#000000" stroke="#000000" points="804.3751,-205.8129 807.875,-215.8129 811.3751,-205.813 804.3751,-205.8129"/>
</g>
<!-- PostalCodeComponent  -->
<g id="node26" class="node">
<title>PostalCodeComponent </title>
<polygon fill="#fb8072" stroke="#000000" points="712.1071,-252 563.8929,-252 563.8929,-216 712.1071,-216 712.1071,-252"/>
<text text-anchor="middle" x="638" y="-229.8" font-family="Times,serif" font-size="14.00" fill="#000000">PostalCodeComponent </text>
</g>
<!-- SharedCoreModule&#45;&gt;PostalCodeComponent  -->
<g id="edge25" class="edge">
<title>SharedCoreModule&#45;&gt;PostalCodeComponent </title>
<path fill="none" stroke="#000000" stroke-dasharray="5,2" d="M1125.2487,-179C982.92,-179 647.875,-179 647.875,-179 647.875,-179 647.875,-205.9909 647.875,-205.9909"/>
<polygon fill="#000000" stroke="#000000" points="644.3751,-205.9909 647.875,-215.9909 651.3751,-205.991 644.3751,-205.9909"/>
</g>
<!-- ThumbnailComponent  -->
<g id="node27" class="node">
<title>ThumbnailComponent </title>
<polygon fill="#fb8072" stroke="#000000" points="546.2717,-252 399.7283,-252 399.7283,-216 546.2717,-216 546.2717,-252"/>
<text text-anchor="middle" x="473" y="-229.8" font-family="Times,serif" font-size="14.00" fill="#000000">ThumbnailComponent </text>
</g>
<!-- SharedCoreModule&#45;&gt;ThumbnailComponent  -->
<g id="edge26" class="edge">
<title>SharedCoreModule&#45;&gt;ThumbnailComponent </title>
<path fill="none" stroke="#000000" stroke-dasharray="5,2" d="M1125.2487,-176C952.7937,-176 484.375,-176 484.375,-176 484.375,-176 484.375,-205.9664 484.375,-205.9664"/>
<polygon fill="#000000" stroke="#000000" points="480.8751,-205.9663 484.375,-215.9664 487.8751,-205.9664 480.8751,-205.9663"/>
</g>
<!-- WizardProgressBarComponent  -->
<g id="node28" class="node">
<title>WizardProgressBarComponent </title>
<polygon fill="#fb8072" stroke="#000000" points="382.4473,-252 187.5527,-252 187.5527,-216 382.4473,-216 382.4473,-252"/>
<text text-anchor="middle" x="285" y="-229.8" font-family="Times,serif" font-size="14.00" fill="#000000">WizardProgressBarComponent </text>
</g>
<!-- SharedCoreModule&#45;&gt;WizardProgressBarComponent  -->
<g id="edge27" class="edge">
<title>SharedCoreModule&#45;&gt;WizardProgressBarComponent </title>
<path fill="none" stroke="#000000" stroke-dasharray="5,2" d="M1125.0535,-174C922.0686,-174 297.875,-174 297.875,-174 297.875,-174 297.875,-205.998 297.875,-205.998"/>
<polygon fill="#000000" stroke="#000000" points="294.3751,-205.998 297.875,-215.998 301.3751,-205.9981 294.3751,-205.998"/>
</g>
<!-- YearValidateDirective  -->
<g id="node29" class="node">
<title>YearValidateDirective </title>
<polygon fill="#fb8072" stroke="#000000" points="170.2015,-252 23.7985,-252 23.7985,-216 170.2015,-216 170.2015,-252"/>
<text text-anchor="middle" x="97" y="-229.8" font-family="Times,serif" font-size="14.00" fill="#000000">YearValidateDirective </text>
</g>
<!-- SharedCoreModule&#45;&gt;YearValidateDirective  -->
<g id="edge28" class="edge">
<title>SharedCoreModule&#45;&gt;YearValidateDirective </title>
<path fill="none" stroke="#000000" stroke-dasharray="5,2" d="M1125.0676,-171C894.7873,-171 111.375,-171 111.375,-171 111.375,-171 111.375,-205.7778 111.375,-205.7778"/>
<polygon fill="#000000" stroke="#000000" points="107.8751,-205.7778 111.375,-215.7778 114.8751,-205.7778 107.8751,-205.7778"/>
</g>
</g>
</svg>
