<?xml version="1.0" encoding="UTF-8" standalone="no"?>
<!DOCTYPE svg PUBLIC "-//W3C//DTD SVG 1.1//EN"
 "http://www.w3.org/Graphics/SVG/1.1/DTD/svg11.dtd">
<!-- Generated by graphviz version 2.40.1 (20161225.0304)
 -->
<!-- Title: dependencies Pages: 1 -->
<svg width="3214pt" height="284pt"
 viewBox="0.00 0.00 3214.00 284.00" xmlns="http://www.w3.org/2000/svg" xmlns:xlink="http://www.w3.org/1999/xlink">
<g id="graph0" class="graph" transform="scale(1 1) rotate(0) translate(4 280)">
<title>dependencies</title>
<polygon fill="#ffffff" stroke="transparent" points="-4,4 -4,-280 3210,-280 3210,4 -4,4"/>
<text text-anchor="start" x="1582.0091" y="-42.4" font-family="sans-serif" font-weight="bold" font-size="14.00" fill="#000000">Legend</text>
<polygon fill="#ffffb3" stroke="transparent" points="1369,-10 1369,-30 1389,-30 1389,-10 1369,-10"/>
<text text-anchor="start" x="1392.629" y="-15.4" font-family="sans-serif" font-size="14.00" fill="#000000"> &#160;Declarations</text>
<polygon fill="#8dd3c7" stroke="transparent" points="1482,-10 1482,-30 1502,-30 1502,-10 1482,-10"/>
<text text-anchor="start" x="1505.7251" y="-15.4" font-family="sans-serif" font-size="14.00" fill="#000000"> &#160;Module</text>
<polygon fill="#80b1d3" stroke="transparent" points="1568,-10 1568,-30 1588,-30 1588,-10 1568,-10"/>
<text text-anchor="start" x="1591.7812" y="-15.4" font-family="sans-serif" font-size="14.00" fill="#000000"> &#160;Bootstrap</text>
<polygon fill="#fdb462" stroke="transparent" points="1665,-10 1665,-30 1685,-30 1685,-10 1665,-10"/>
<text text-anchor="start" x="1688.6732" y="-15.4" font-family="sans-serif" font-size="14.00" fill="#000000"> &#160;Providers</text>
<polygon fill="#fb8072" stroke="transparent" points="1761,-10 1761,-30 1781,-30 1781,-10 1761,-10"/>
<text text-anchor="start" x="1784.7258" y="-15.4" font-family="sans-serif" font-size="14.00" fill="#000000"> &#160;Exports</text>
<g id="clust1" class="cluster">
<title>cluster_CaptchaModule</title>
<polygon fill="none" stroke="#000000" stroke-dasharray="1,5" points="8,-70 8,-268 372,-268 372,-70 8,-70"/>
</g>
<g id="clust2" class="cluster">
<title>cluster_CaptchaModule_declarations</title>
<polygon fill="none" stroke="#000000" points="220,-78 220,-130 364,-130 364,-78 220,-78"/>
</g>
<g id="clust5" class="cluster">
<title>cluster_CaptchaModule_exports</title>
<polygon fill="none" stroke="#000000" points="129,-208 129,-260 275,-260 275,-208 129,-208"/>
</g>
<g id="clust7" class="cluster">
<title>cluster_CaptchaModule_providers</title>
<polygon fill="none" stroke="#000000" points="16,-78 16,-130 212,-130 212,-78 16,-78"/>
</g>
<g id="clust8" class="cluster">
<title>cluster_SharedCoreModule</title>
<polygon fill="none" stroke="#000000" stroke-dasharray="1,5" points="380,-70 380,-268 3198,-268 3198,-70 380,-70"/>
</g>
<g id="clust9" class="cluster">
<title>cluster_SharedCoreModule_declarations</title>
<polygon fill="none" stroke="#000000" points="420,-78 420,-130 3169,-130 3169,-78 420,-78"/>
</g>
<g id="clust27" class="cluster">
<title>cluster_SharedCoreModule_exports</title>
<polygon fill="none" stroke="#000000" points="388,-208 388,-260 3190,-260 3190,-208 388,-208"/>
</g>
<!-- CaptchaComponent -->
<g id="node1" class="node">
<title>CaptchaComponent</title>
<polygon fill="#ffffb3" stroke="#000000" points="355.7036,-122 228.2964,-122 228.2964,-86 355.7036,-86 355.7036,-122"/>
<text text-anchor="middle" x="292" y="-99.8" font-family="Times,serif" font-size="14.00" fill="#000000">CaptchaComponent</text>
</g>
<!-- CaptchaModule -->
<g id="node2" class="node">
<title>CaptchaModule</title>
<polygon fill="#8dd3c7" stroke="#000000" points="254.9216,-187 251.9216,-191 230.9216,-191 227.9216,-187 149.0784,-187 149.0784,-151 254.9216,-151 254.9216,-187"/>
<text text-anchor="middle" x="202" y="-164.8" font-family="Times,serif" font-size="14.00" fill="#000000">CaptchaModule</text>
</g>
<!-- CaptchaComponent&#45;&gt;CaptchaModule -->
<g id="edge1" class="edge">
<title>CaptchaComponent&#45;&gt;CaptchaModule</title>
<path fill="none" stroke="#000000" d="M241.5544,-122.1061C241.5544,-122.1061 241.5544,-140.991 241.5544,-140.991"/>
<polygon fill="#000000" stroke="#000000" points="238.0544,-140.9909 241.5544,-150.991 245.0544,-140.991 238.0544,-140.9909"/>
</g>
<!-- CaptchaComponent  -->
<g id="node3" class="node">
<title>CaptchaComponent </title>
<polygon fill="#fb8072" stroke="#000000" points="267.2037,-252 136.7963,-252 136.7963,-216 267.2037,-216 267.2037,-252"/>
<text text-anchor="middle" x="202" y="-229.8" font-family="Times,serif" font-size="14.00" fill="#000000">CaptchaComponent </text>
</g>
<!-- CaptchaModule&#45;&gt;CaptchaComponent  -->
<g id="edge2" class="edge">
<title>CaptchaModule&#45;&gt;CaptchaComponent </title>
<path fill="none" stroke="#000000" stroke-dasharray="5,2" d="M202,-187.1061C202,-187.1061 202,-205.991 202,-205.991"/>
<polygon fill="#000000" stroke="#000000" points="198.5001,-205.9909 202,-215.991 205.5001,-205.991 198.5001,-205.9909"/>
</g>
<!-- CaptchaDataService -->
<g id="node4" class="node">
<title>CaptchaDataService</title>
<ellipse fill="#fdb462" stroke="#000000" cx="114" cy="-104" rx="89.7229" ry="18"/>
<text text-anchor="middle" x="114" y="-99.8" font-family="Times,serif" font-size="14.00" fill="#000000">CaptchaDataService</text>
</g>
<!-- CaptchaDataService&#45;&gt;CaptchaModule -->
<g id="edge3" class="edge">
<title>CaptchaDataService&#45;&gt;CaptchaModule</title>
<path fill="none" stroke="#000000" d="M176.5755,-117.1537C176.5755,-117.1537 176.5755,-140.6938 176.5755,-140.6938"/>
<polygon fill="#000000" stroke="#000000" points="173.0756,-140.6938 176.5755,-150.6938 180.0756,-140.6939 173.0756,-140.6938"/>
</g>
<!-- CoreBreadcrumbComponent -->
<g id="node5" class="node">
<title>CoreBreadcrumbComponent</title>
<polygon fill="#ffffb3" stroke="#000000" points="3160.7366,-122 2983.2634,-122 2983.2634,-86 3160.7366,-86 3160.7366,-122"/>
<text text-anchor="middle" x="3072" y="-99.8" font-family="Times,serif" font-size="14.00" fill="#000000">CoreBreadcrumbComponent</text>
</g>
<!-- SharedCoreModule -->
<g id="node21" class="node">
<title>SharedCoreModule</title>
<polygon fill="#8dd3c7" stroke="#000000" points="1795.6345,-187 1792.6345,-191 1771.6345,-191 1768.6345,-187 1670.3655,-187 1670.3655,-151 1795.6345,-151 1795.6345,-187"/>
<text text-anchor="middle" x="1733" y="-164.8" font-family="Times,serif" font-size="14.00" fill="#000000">SharedCoreModule</text>
</g>
<!-- CoreBreadcrumbComponent&#45;&gt;SharedCoreModule -->
<g id="edge4" class="edge">
<title>CoreBreadcrumbComponent&#45;&gt;SharedCoreModule</title>
<path fill="none" stroke="#000000" d="M2991.7568,-122.1686C2991.7568,-141.0898 2991.7568,-168 2991.7568,-168 2991.7568,-168 1805.8526,-168 1805.8526,-168"/>
<polygon fill="#000000" stroke="#000000" points="1805.8526,-164.5001 1795.8526,-168 1805.8526,-171.5001 1805.8526,-164.5001"/>
</g>
<!-- DateComponent -->
<g id="node6" class="node">
<title>DateComponent</title>
<polygon fill="#ffffb3" stroke="#000000" points="2964.7591,-122 2857.2409,-122 2857.2409,-86 2964.7591,-86 2964.7591,-122"/>
<text text-anchor="middle" x="2911" y="-99.8" font-family="Times,serif" font-size="14.00" fill="#000000">DateComponent</text>
</g>
<!-- DateComponent&#45;&gt;SharedCoreModule -->
<g id="edge5" class="edge">
<title>DateComponent&#45;&gt;SharedCoreModule</title>
<path fill="none" stroke="#000000" d="M2864.2456,-122.2667C2864.2456,-140.5552 2864.2456,-166 2864.2456,-166 2864.2456,-166 1805.8378,-166 1805.8378,-166"/>
<polygon fill="#000000" stroke="#000000" points="1805.8378,-162.5001 1795.8378,-166 1805.8377,-169.5001 1805.8378,-162.5001"/>
</g>
<!-- DateFieldFormatDirective -->
<g id="node7" class="node">
<title>DateFieldFormatDirective</title>
<polygon fill="#ffffb3" stroke="#000000" points="2838.7268,-122 2675.2732,-122 2675.2732,-86 2838.7268,-86 2838.7268,-122"/>
<text text-anchor="middle" x="2757" y="-99.8" font-family="Times,serif" font-size="14.00" fill="#000000">DateFieldFormatDirective</text>
</g>
<!-- DateFieldFormatDirective&#45;&gt;SharedCoreModule -->
<g id="edge6" class="edge">
<title>DateFieldFormatDirective&#45;&gt;SharedCoreModule</title>
<path fill="none" stroke="#000000" d="M2680.7617,-122.002C2680.7617,-139.6754 2680.7617,-164 2680.7617,-164 2680.7617,-164 1805.9193,-164 1805.9193,-164"/>
<polygon fill="#000000" stroke="#000000" points="1805.9193,-160.5001 1795.9193,-164 1805.9192,-167.5001 1805.9193,-160.5001"/>
</g>
<!-- DatepickerComponent -->
<g id="node8" class="node">
<title>DatepickerComponent</title>
<polygon fill="#ffffb3" stroke="#000000" points="2657.2394,-122 2514.7606,-122 2514.7606,-86 2657.2394,-86 2657.2394,-122"/>
<text text-anchor="middle" x="2586" y="-99.8" font-family="Times,serif" font-size="14.00" fill="#000000">DatepickerComponent</text>
</g>
<!-- DatepickerComponent&#45;&gt;SharedCoreModule -->
<g id="edge7" class="edge">
<title>DatepickerComponent&#45;&gt;SharedCoreModule</title>
<path fill="none" stroke="#000000" d="M2518.2554,-122.0336C2518.2554,-139.0597 2518.2554,-162 2518.2554,-162 2518.2554,-162 1805.9333,-162 1805.9333,-162"/>
<polygon fill="#000000" stroke="#000000" points="1805.9334,-158.5001 1795.9333,-162 1805.9333,-165.5001 1805.9334,-158.5001"/>
</g>
<!-- DayValidationDirective -->
<g id="node9" class="node">
<title>DayValidationDirective</title>
<polygon fill="#ffffb3" stroke="#000000" points="2496.003,-122 2345.997,-122 2345.997,-86 2496.003,-86 2496.003,-122"/>
<text text-anchor="middle" x="2421" y="-99.8" font-family="Times,serif" font-size="14.00" fill="#000000">DayValidationDirective</text>
</g>
<!-- DayValidationDirective&#45;&gt;SharedCoreModule -->
<g id="edge8" class="edge">
<title>DayValidationDirective&#45;&gt;SharedCoreModule</title>
<path fill="none" stroke="#000000" d="M2447.5004,-122.027C2447.5004,-138.3976 2447.5004,-160 2447.5004,-160 2447.5004,-160 1805.7809,-160 1805.7809,-160"/>
<polygon fill="#000000" stroke="#000000" points="1805.781,-156.5001 1795.7809,-160 1805.7809,-163.5001 1805.781,-156.5001"/>
</g>
<!-- DropdownComponent -->
<g id="node10" class="node">
<title>DropdownComponent</title>
<polygon fill="#ffffb3" stroke="#000000" points="2327.7064,-122 2186.2936,-122 2186.2936,-86 2327.7064,-86 2327.7064,-122"/>
<text text-anchor="middle" x="2257" y="-99.8" font-family="Times,serif" font-size="14.00" fill="#000000">DropdownComponent</text>
</g>
<!-- DropdownComponent&#45;&gt;SharedCoreModule -->
<g id="edge9" class="edge">
<title>DropdownComponent&#45;&gt;SharedCoreModule</title>
<path fill="none" stroke="#000000" d="M2280.951,-122.2819C2280.951,-137.9478 2280.951,-158 2280.951,-158 2280.951,-158 1805.857,-158 1805.857,-158"/>
<polygon fill="#000000" stroke="#000000" points="1805.857,-154.5001 1795.857,-158 1805.8569,-161.5001 1805.857,-154.5001"/>
</g>
<!-- FileUploaderComponent -->
<g id="node11" class="node">
<title>FileUploaderComponent</title>
<polygon fill="#ffffb3" stroke="#000000" points="2168.6979,-122 2013.3021,-122 2013.3021,-86 2168.6979,-86 2168.6979,-122"/>
<text text-anchor="middle" x="2091" y="-99.8" font-family="Times,serif" font-size="14.00" fill="#000000">FileUploaderComponent</text>
</g>
<!-- FileUploaderComponent&#45;&gt;SharedCoreModule -->
<g id="edge10" class="edge">
<title>FileUploaderComponent&#45;&gt;SharedCoreModule</title>
<path fill="none" stroke="#000000" d="M2065.1337,-122.1871C2065.1337,-137.1824 2065.1337,-156 2065.1337,-156 2065.1337,-156 1805.8623,-156 1805.8623,-156"/>
<polygon fill="#000000" stroke="#000000" points="1805.8623,-152.5001 1795.8623,-156 1805.8622,-159.5001 1805.8623,-152.5001"/>
</g>
<!-- FormActionBarComponent -->
<g id="node12" class="node">
<title>FormActionBarComponent</title>
<polygon fill="#ffffb3" stroke="#000000" points="1994.9804,-122 1825.0196,-122 1825.0196,-86 1994.9804,-86 1994.9804,-122"/>
<text text-anchor="middle" x="1910" y="-99.8" font-family="Times,serif" font-size="14.00" fill="#000000">FormActionBarComponent</text>
</g>
<!-- FormActionBarComponent&#45;&gt;SharedCoreModule -->
<g id="edge11" class="edge">
<title>FormActionBarComponent&#45;&gt;SharedCoreModule</title>
<path fill="none" stroke="#000000" d="M1880.9199,-122.0511C1880.9199,-136.373 1880.9199,-154 1880.9199,-154 1880.9199,-154 1805.7314,-154 1805.7314,-154"/>
<polygon fill="#000000" stroke="#000000" points="1805.7314,-150.5001 1795.7314,-154 1805.7313,-157.5001 1805.7314,-150.5001"/>
</g>
<!-- FormSubmitBarComponent -->
<g id="node13" class="node">
<title>FormSubmitBarComponent</title>
<polygon fill="#ffffb3" stroke="#000000" points="1807.3327,-122 1634.6673,-122 1634.6673,-86 1807.3327,-86 1807.3327,-122"/>
<text text-anchor="middle" x="1721" y="-99.8" font-family="Times,serif" font-size="14.00" fill="#000000">FormSubmitBarComponent</text>
</g>
<!-- FormSubmitBarComponent&#45;&gt;SharedCoreModule -->
<g id="edge12" class="edge">
<title>FormSubmitBarComponent&#45;&gt;SharedCoreModule</title>
<path fill="none" stroke="#000000" d="M1733,-122.1061C1733,-122.1061 1733,-140.991 1733,-140.991"/>
<polygon fill="#000000" stroke="#000000" points="1729.5001,-140.9909 1733,-150.991 1736.5001,-140.991 1729.5001,-140.9909"/>
</g>
<!-- PageFrameworkComponent -->
<g id="node14" class="node">
<title>PageFrameworkComponent</title>
<polygon fill="#ffffb3" stroke="#000000" points="1616.5744,-122 1443.4256,-122 1443.4256,-86 1616.5744,-86 1616.5744,-122"/>
<text text-anchor="middle" x="1530" y="-99.8" font-family="Times,serif" font-size="14.00" fill="#000000">PageFrameworkComponent</text>
</g>
<!-- PageFrameworkComponent&#45;&gt;SharedCoreModule -->
<g id="edge13" class="edge">
<title>PageFrameworkComponent&#45;&gt;SharedCoreModule</title>
<path fill="none" stroke="#000000" d="M1611.9122,-122.0511C1611.9122,-136.373 1611.9122,-154 1611.9122,-154 1611.9122,-154 1660.328,-154 1660.328,-154"/>
<polygon fill="#000000" stroke="#000000" points="1660.328,-157.5001 1670.328,-154 1660.328,-150.5001 1660.328,-157.5001"/>
</g>
<!-- PageSectionComponent -->
<g id="node15" class="node">
<title>PageSectionComponent</title>
<polygon fill="#ffffb3" stroke="#000000" points="1425.0379,-122 1274.9621,-122 1274.9621,-86 1425.0379,-86 1425.0379,-122"/>
<text text-anchor="middle" x="1350" y="-99.8" font-family="Times,serif" font-size="14.00" fill="#000000">PageSectionComponent</text>
</g>
<!-- PageSectionComponent&#45;&gt;SharedCoreModule -->
<g id="edge14" class="edge">
<title>PageSectionComponent&#45;&gt;SharedCoreModule</title>
<path fill="none" stroke="#000000" d="M1419.1436,-122.1871C1419.1436,-137.1824 1419.1436,-156 1419.1436,-156 1419.1436,-156 1660.2408,-156 1660.2408,-156"/>
<polygon fill="#000000" stroke="#000000" points="1660.2408,-159.5001 1670.2408,-156 1660.2408,-152.5001 1660.2408,-159.5001"/>
</g>
<!-- PasswordComponent -->
<g id="node16" class="node">
<title>PasswordComponent</title>
<polygon fill="#ffffb3" stroke="#000000" points="1256.486,-122 1121.514,-122 1121.514,-86 1256.486,-86 1256.486,-122"/>
<text text-anchor="middle" x="1189" y="-99.8" font-family="Times,serif" font-size="14.00" fill="#000000">PasswordComponent</text>
</g>
<!-- PasswordComponent&#45;&gt;SharedCoreModule -->
<g id="edge15" class="edge">
<title>PasswordComponent&#45;&gt;SharedCoreModule</title>
<path fill="none" stroke="#000000" d="M1248.868,-122.0091C1248.868,-138.0494 1248.868,-159 1248.868,-159 1248.868,-159 1660.2045,-159 1660.2045,-159"/>
<polygon fill="#000000" stroke="#000000" points="1660.2046,-162.5001 1670.2045,-159 1660.2045,-155.5001 1660.2046,-162.5001"/>
</g>
<!-- PostalCodeComponent -->
<g id="node17" class="node">
<title>PostalCodeComponent</title>
<polygon fill="#ffffb3" stroke="#000000" points="1103.6066,-122 958.3934,-122 958.3934,-86 1103.6066,-86 1103.6066,-122"/>
<text text-anchor="middle" x="1031" y="-99.8" font-family="Times,serif" font-size="14.00" fill="#000000">PostalCodeComponent</text>
</g>
<!-- PostalCodeComponent&#45;&gt;SharedCoreModule -->
<g id="edge16" class="edge">
<title>PostalCodeComponent&#45;&gt;SharedCoreModule</title>
<path fill="none" stroke="#000000" d="M1093.5302,-122.0352C1093.5302,-138.7344 1093.5302,-161 1093.5302,-161 1093.5302,-161 1660.2281,-161 1660.2281,-161"/>
<polygon fill="#000000" stroke="#000000" points="1660.2282,-164.5001 1670.2281,-161 1660.2281,-157.5001 1660.2282,-164.5001"/>
</g>
<!-- ThumbnailComponent -->
<g id="node18" class="node">
<title>ThumbnailComponent</title>
<polygon fill="#ffffb3" stroke="#000000" points="940.2716,-122 797.7284,-122 797.7284,-86 940.2716,-86 940.2716,-122"/>
<text text-anchor="middle" x="869" y="-99.8" font-family="Times,serif" font-size="14.00" fill="#000000">ThumbnailComponent</text>
</g>
<!-- ThumbnailComponent&#45;&gt;SharedCoreModule -->
<g id="edge17" class="edge">
<title>ThumbnailComponent&#45;&gt;SharedCoreModule</title>
<path fill="none" stroke="#000000" d="M926.9162,-122.0225C926.9162,-139.3734 926.9162,-163 926.9162,-163 926.9162,-163 1660.0837,-163 1660.0837,-163"/>
<polygon fill="#000000" stroke="#000000" points="1660.0837,-166.5001 1670.0837,-163 1660.0837,-159.5001 1660.0837,-166.5001"/>
</g>
<!-- WizardProgressBarComponent -->
<g id="node19" class="node">
<title>WizardProgressBarComponent</title>
<polygon fill="#ffffb3" stroke="#000000" points="779.4468,-122 588.5532,-122 588.5532,-86 779.4468,-86 779.4468,-122"/>
<text text-anchor="middle" x="684" y="-99.8" font-family="Times,serif" font-size="14.00" fill="#000000">WizardProgressBarComponent</text>
</g>
<!-- WizardProgressBarComponent&#45;&gt;SharedCoreModule -->
<g id="edge18" class="edge">
<title>WizardProgressBarComponent&#45;&gt;SharedCoreModule</title>
<path fill="none" stroke="#000000" d="M775.6689,-122.2667C775.6689,-140.5552 775.6689,-166 775.6689,-166 775.6689,-166 1660.1868,-166 1660.1868,-166"/>
<polygon fill="#000000" stroke="#000000" points="1660.1869,-169.5001 1670.1868,-166 1660.1868,-162.5001 1660.1869,-169.5001"/>
</g>
<!-- YearValidateDirective -->
<g id="node20" class="node">
<title>YearValidateDirective</title>
<polygon fill="#ffffb3" stroke="#000000" points="570.2017,-122 427.7983,-122 427.7983,-86 570.2017,-86 570.2017,-122"/>
<text text-anchor="middle" x="499" y="-99.8" font-family="Times,serif" font-size="14.00" fill="#000000">YearValidateDirective</text>
</g>
<!-- YearValidateDirective&#45;&gt;SharedCoreModule -->
<g id="edge19" class="edge">
<title>YearValidateDirective&#45;&gt;SharedCoreModule</title>
<path fill="none" stroke="#000000" d="M565.0637,-122.1686C565.0637,-141.0898 565.0637,-168 565.0637,-168 565.0637,-168 1660.2067,-168 1660.2067,-168"/>
<polygon fill="#000000" stroke="#000000" points="1660.2067,-171.5001 1670.2067,-168 1660.2066,-164.5001 1660.2067,-171.5001"/>
</g>
<!-- CoreBreadcrumbComponent  -->
<g id="node22" class="node">
<title>CoreBreadcrumbComponent </title>
<polygon fill="#fb8072" stroke="#000000" points="3181.7366,-252 3000.2634,-252 3000.2634,-216 3181.7366,-216 3181.7366,-252"/>
<text text-anchor="middle" x="3091" y="-229.8" font-family="Times,serif" font-size="14.00" fill="#000000">CoreBreadcrumbComponent </text>
</g>
<!-- SharedCoreModule&#45;&gt;CoreBreadcrumbComponent  -->
<g id="edge20" class="edge">
<title>SharedCoreModule&#45;&gt;CoreBreadcrumbComponent </title>
<path fill="none" stroke="#000000" stroke-dasharray="5,2" d="M1795.7429,-171C2061.4776,-171 3080.625,-171 3080.625,-171 3080.625,-171 3080.625,-205.7778 3080.625,-205.7778"/>
<polygon fill="#000000" stroke="#000000" points="3077.1251,-205.7778 3080.625,-215.7778 3084.1251,-205.7778 3077.1251,-205.7778"/>
</g>
<!-- DateComponent  -->
<g id="node23" class="node">
<title>DateComponent </title>
<polygon fill="#fb8072" stroke="#000000" points="2982.7591,-252 2871.2409,-252 2871.2409,-216 2982.7591,-216 2982.7591,-252"/>
<text text-anchor="middle" x="2927" y="-229.8" font-family="Times,serif" font-size="14.00" fill="#000000">DateComponent </text>
</g>
<!-- SharedCoreModule&#45;&gt;DateComponent  -->
<g id="edge21" class="edge">
<title>SharedCoreModule&#45;&gt;DateComponent </title>
<path fill="none" stroke="#000000" stroke-dasharray="5,2" d="M1795.8807,-173C2040.8898,-173 2918.125,-173 2918.125,-173 2918.125,-173 2918.125,-205.698 2918.125,-205.698"/>
<polygon fill="#000000" stroke="#000000" points="2914.6251,-205.698 2918.125,-215.698 2921.6251,-205.698 2914.6251,-205.698"/>
</g>
<!-- DateFieldFormatDirective  -->
<g id="node24" class="node">
<title>DateFieldFormatDirective </title>
<polygon fill="#fb8072" stroke="#000000" points="2853.7268,-252 2686.2732,-252 2686.2732,-216 2853.7268,-216 2853.7268,-252"/>
<text text-anchor="middle" x="2770" y="-229.8" font-family="Times,serif" font-size="14.00" fill="#000000">DateFieldFormatDirective </text>
</g>
<!-- SharedCoreModule&#45;&gt;DateFieldFormatDirective  -->
<g id="edge22" class="edge">
<title>SharedCoreModule&#45;&gt;DateFieldFormatDirective </title>
<path fill="none" stroke="#000000" stroke-dasharray="5,2" d="M1795.8577,-175C2019.4045,-175 2762.625,-175 2762.625,-175 2762.625,-175 2762.625,-205.9775 2762.625,-205.9775"/>
<polygon fill="#000000" stroke="#000000" points="2759.1251,-205.9774 2762.625,-215.9775 2766.1251,-205.9775 2759.1251,-205.9774"/>
</g>
<!-- DatepickerComponent  -->
<g id="node25" class="node">
<title>DatepickerComponent </title>
<polygon fill="#fb8072" stroke="#000000" points="2668.2394,-252 2521.7606,-252 2521.7606,-216 2668.2394,-216 2668.2394,-252"/>
<text text-anchor="middle" x="2595" y="-229.8" font-family="Times,serif" font-size="14.00" fill="#000000">DatepickerComponent </text>
</g>
<!-- SharedCoreModule&#45;&gt;DatepickerComponent  -->
<g id="edge23" class="edge">
<title>SharedCoreModule&#45;&gt;DatepickerComponent </title>
<path fill="none" stroke="#000000" stroke-dasharray="5,2" d="M1795.6426,-177C1993.1188,-177 2589.625,-177 2589.625,-177 2589.625,-177 2589.625,-205.9648 2589.625,-205.9648"/>
<polygon fill="#000000" stroke="#000000" points="2586.1251,-205.9648 2589.625,-215.9648 2593.1251,-205.9649 2586.1251,-205.9648"/>
</g>
<!-- DayValidationDirective  -->
<g id="node26" class="node">
<title>DayValidationDirective </title>
<polygon fill="#fb8072" stroke="#000000" points="2504.0022,-252 2349.9978,-252 2349.9978,-216 2504.0022,-216 2504.0022,-252"/>
<text text-anchor="middle" x="2427" y="-229.8" font-family="Times,serif" font-size="14.00" fill="#000000">DayValidationDirective </text>
</g>
<!-- SharedCoreModule&#45;&gt;DayValidationDirective  -->
<g id="edge24" class="edge">
<title>SharedCoreModule&#45;&gt;DayValidationDirective </title>
<path fill="none" stroke="#000000" stroke-dasharray="5,2" d="M1795.9319,-179C1961.8881,-179 2398.7496,-179 2398.7496,-179 2398.7496,-179 2398.7496,-205.9909 2398.7496,-205.9909"/>
<polygon fill="#000000" stroke="#000000" points="2395.2497,-205.9909 2398.7496,-215.9909 2402.2497,-205.991 2395.2497,-205.9909"/>
</g>
<!-- DropdownComponent  -->
<g id="node27" class="node">
<title>DropdownComponent </title>
<polygon fill="#fb8072" stroke="#000000" points="2332.2065,-252 2187.7935,-252 2187.7935,-216 2332.2065,-216 2332.2065,-252"/>
<text text-anchor="middle" x="2260" y="-229.8" font-family="Times,serif" font-size="14.00" fill="#000000">DropdownComponent </text>
</g>
<!-- SharedCoreModule&#45;&gt;DropdownComponent  -->
<g id="edge25" class="edge">
<title>SharedCoreModule&#45;&gt;DropdownComponent </title>
<path fill="none" stroke="#000000" stroke-dasharray="5,2" d="M1795.7291,-181C1930.2397,-181 2234.299,-181 2234.299,-181 2234.299,-181 2234.299,-205.7604 2234.299,-205.7604"/>
<polygon fill="#000000" stroke="#000000" points="2230.7991,-205.7604 2234.299,-215.7604 2237.7991,-205.7604 2230.7991,-205.7604"/>
</g>
<!-- FileUploaderComponent  -->
<g id="node28" class="node">
<title>FileUploaderComponent </title>
<polygon fill="#fb8072" stroke="#000000" points="2169.1981,-252 2010.8019,-252 2010.8019,-216 2169.1981,-216 2169.1981,-252"/>
<text text-anchor="middle" x="2090" y="-229.8" font-family="Times,serif" font-size="14.00" fill="#000000">FileUploaderComponent </text>
</g>
<!-- SharedCoreModule&#45;&gt;FileUploaderComponent  -->
<g id="edge26" class="edge">
<title>SharedCoreModule&#45;&gt;FileUploaderComponent </title>
<path fill="none" stroke="#000000" stroke-dasharray="5,2" d="M1795.9579,-183C1904.8597,-183 2116.8663,-183 2116.8663,-183 2116.8663,-183 2116.8663,-205.8757 2116.8663,-205.8757"/>
<polygon fill="#000000" stroke="#000000" points="2113.3664,-205.8757 2116.8663,-215.8757 2120.3664,-205.8757 2113.3664,-205.8757"/>
</g>
<!-- FormActionBarComponent  -->
<g id="node29" class="node">
<title>FormActionBarComponent </title>
<polygon fill="#fb8072" stroke="#000000" points="1992.9811,-252 1819.0189,-252 1819.0189,-216 1992.9811,-216 1992.9811,-252"/>
<text text-anchor="middle" x="1906" y="-229.8" font-family="Times,serif" font-size="14.00" fill="#000000">FormActionBarComponent </text>
</g>
<!-- SharedCoreModule&#45;&gt;FormActionBarComponent  -->
<g id="edge27" class="edge">
<title>SharedCoreModule&#45;&gt;FormActionBarComponent </title>
<path fill="none" stroke="#000000" stroke-dasharray="5,2" d="M1795.8189,-185C1855.7091,-185 1936.8301,-185 1936.8301,-185 1936.8301,-185 1936.8301,-205.7542 1936.8301,-205.7542"/>
<polygon fill="#000000" stroke="#000000" points="1933.3302,-205.7542 1936.8301,-215.7542 1940.3302,-205.7542 1933.3302,-205.7542"/>
</g>
<!-- FormSubmitBarComponent  -->
<g id="node30" class="node">
<title>FormSubmitBarComponent </title>
<polygon fill="#fb8072" stroke="#000000" points="1800.8325,-252 1625.1675,-252 1625.1675,-216 1800.8325,-216 1800.8325,-252"/>
<text text-anchor="middle" x="1713" y="-229.8" font-family="Times,serif" font-size="14.00" fill="#000000">FormSubmitBarComponent </text>
</g>
<!-- SharedCoreModule&#45;&gt;FormSubmitBarComponent  -->
<g id="edge28" class="edge">
<title>SharedCoreModule&#45;&gt;FormSubmitBarComponent </title>
<path fill="none" stroke="#000000" stroke-dasharray="5,2" d="M1733,-187.1061C1733,-187.1061 1733,-205.991 1733,-205.991"/>
<polygon fill="#000000" stroke="#000000" points="1729.5001,-205.9909 1733,-215.991 1736.5001,-205.991 1729.5001,-205.9909"/>
</g>
<!-- PageFrameworkComponent  -->
<g id="node31" class="node">
<title>PageFrameworkComponent </title>
<polygon fill="#fb8072" stroke="#000000" points="1607.0749,-252 1430.9251,-252 1430.9251,-216 1607.0749,-216 1607.0749,-252"/>
<text text-anchor="middle" x="1519" y="-229.8" font-family="Times,serif" font-size="14.00" fill="#000000">PageFrameworkComponent </text>
</g>
<!-- SharedCoreModule&#45;&gt;PageFrameworkComponent  -->
<g id="edge29" class="edge">
<title>SharedCoreModule&#45;&gt;PageFrameworkComponent </title>
<path fill="none" stroke="#000000" stroke-dasharray="5,2" d="M1670.1422,-185C1609.0328,-185 1525.375,-185 1525.375,-185 1525.375,-185 1525.375,-205.7542 1525.375,-205.7542"/>
<polygon fill="#000000" stroke="#000000" points="1521.8751,-205.7542 1525.375,-215.7542 1528.8751,-205.7542 1521.8751,-205.7542"/>
</g>
<!-- PageSectionComponent  -->
<g id="node32" class="node">
<title>PageSectionComponent </title>
<polygon fill="#fb8072" stroke="#000000" points="1413.0372,-252 1258.9628,-252 1258.9628,-216 1413.0372,-216 1413.0372,-252"/>
<text text-anchor="middle" x="1336" y="-229.8" font-family="Times,serif" font-size="14.00" fill="#000000">PageSectionComponent </text>
</g>
<!-- SharedCoreModule&#45;&gt;PageSectionComponent  -->
<g id="edge30" class="edge">
<title>SharedCoreModule&#45;&gt;PageSectionComponent </title>
<path fill="none" stroke="#000000" stroke-dasharray="5,2" d="M1670.0479,-183C1559.9171,-183 1343.875,-183 1343.875,-183 1343.875,-183 1343.875,-205.8757 1343.875,-205.8757"/>
<polygon fill="#000000" stroke="#000000" points="1340.3751,-205.8757 1343.875,-215.8757 1347.3751,-205.8757 1340.3751,-205.8757"/>
</g>
<!-- PasswordComponent  -->
<g id="node33" class="node">
<title>PasswordComponent </title>
<polygon fill="#fb8072" stroke="#000000" points="1241.4869,-252 1102.5131,-252 1102.5131,-216 1241.4869,-216 1241.4869,-252"/>
<text text-anchor="middle" x="1172" y="-229.8" font-family="Times,serif" font-size="14.00" fill="#000000">PasswordComponent </text>
</g>
<!-- SharedCoreModule&#45;&gt;PasswordComponent  -->
<g id="edge31" class="edge">
<title>SharedCoreModule&#45;&gt;PasswordComponent </title>
<path fill="none" stroke="#000000" stroke-dasharray="5,2" d="M1670.2587,-180C1525.6782,-180 1181.375,-180 1181.375,-180 1181.375,-180 1181.375,-205.7181 1181.375,-205.7181"/>
<polygon fill="#000000" stroke="#000000" points="1177.8751,-205.718 1181.375,-215.7181 1184.8751,-205.7181 1177.8751,-205.718"/>
</g>
<!-- PostalCodeComponent  -->
<g id="node34" class="node">
<title>PostalCodeComponent </title>
<polygon fill="#fb8072" stroke="#000000" points="1084.1071,-252 935.8929,-252 935.8929,-216 1084.1071,-216 1084.1071,-252"/>
<text text-anchor="middle" x="1010" y="-229.8" font-family="Times,serif" font-size="14.00" fill="#000000">PostalCodeComponent </text>
</g>
<!-- SharedCoreModule&#45;&gt;PostalCodeComponent  -->
<g id="edge32" class="edge">
<title>SharedCoreModule&#45;&gt;PostalCodeComponent </title>
<path fill="none" stroke="#000000" stroke-dasharray="5,2" d="M1670.1602,-178C1496.2542,-178 1021.375,-178 1021.375,-178 1021.375,-178 1021.375,-205.973 1021.375,-205.973"/>
<polygon fill="#000000" stroke="#000000" points="1017.8751,-205.973 1021.375,-215.973 1024.8751,-205.973 1017.8751,-205.973"/>
</g>
<!-- ThumbnailComponent  -->
<g id="node35" class="node">
<title>ThumbnailComponent </title>
<polygon fill="#fb8072" stroke="#000000" points="918.2717,-252 771.7283,-252 771.7283,-216 918.2717,-216 918.2717,-252"/>
<text text-anchor="middle" x="845" y="-229.8" font-family="Times,serif" font-size="14.00" fill="#000000">ThumbnailComponent </text>
</g>
<!-- SharedCoreModule&#45;&gt;ThumbnailComponent  -->
<g id="edge33" class="edge">
<title>SharedCoreModule&#45;&gt;ThumbnailComponent </title>
<path fill="none" stroke="#000000" stroke-dasharray="5,2" d="M1670.0632,-175C1469.4049,-175 857.875,-175 857.875,-175 857.875,-175 857.875,-205.9775 857.875,-205.9775"/>
<polygon fill="#000000" stroke="#000000" points="854.3751,-205.9774 857.875,-215.9775 861.3751,-205.9775 854.3751,-205.9774"/>
</g>
<!-- WizardProgressBarComponent  -->
<g id="node36" class="node">
<title>WizardProgressBarComponent </title>
<polygon fill="#fb8072" stroke="#000000" points="754.4473,-252 559.5527,-252 559.5527,-216 754.4473,-216 754.4473,-252"/>
<text text-anchor="middle" x="657" y="-229.8" font-family="Times,serif" font-size="14.00" fill="#000000">WizardProgressBarComponent </text>
</g>
<!-- SharedCoreModule&#45;&gt;WizardProgressBarComponent  -->
<g id="edge34" class="edge">
<title>SharedCoreModule&#45;&gt;WizardProgressBarComponent </title>
<path fill="none" stroke="#000000" stroke-dasharray="5,2" d="M1670.1624,-173C1442.1047,-173 671.375,-173 671.375,-173 671.375,-173 671.375,-205.698 671.375,-205.698"/>
<polygon fill="#000000" stroke="#000000" points="667.8751,-205.698 671.375,-215.698 674.8751,-205.698 667.8751,-205.698"/>
</g>
<!-- YearValidateDirective  -->
<g id="node37" class="node">
<title>YearValidateDirective </title>
<polygon fill="#fb8072" stroke="#000000" points="542.2015,-252 395.7985,-252 395.7985,-216 542.2015,-216 542.2015,-252"/>
<text text-anchor="middle" x="469" y="-229.8" font-family="Times,serif" font-size="14.00" fill="#000000">YearValidateDirective </text>
</g>
<!-- SharedCoreModule&#45;&gt;YearValidateDirective  -->
<g id="edge35" class="edge">
<title>SharedCoreModule&#45;&gt;YearValidateDirective </title>
<path fill="none" stroke="#000000" stroke-dasharray="5,2" d="M1670.2499,-171C1417.1514,-171 484.875,-171 484.875,-171 484.875,-171 484.875,-205.7778 484.875,-205.7778"/>
<polygon fill="#000000" stroke="#000000" points="481.3751,-205.7778 484.875,-215.7778 488.3751,-205.7778 481.3751,-205.7778"/>
</g>
</g>
</svg>
