<?xml version="1.0" encoding="UTF-8" standalone="no"?>
<!DOCTYPE svg PUBLIC "-//W3C//DTD SVG 1.1//EN"
 "http://www.w3.org/Graphics/SVG/1.1/DTD/svg11.dtd">
<!-- Generated by graphviz version 2.40.1 (20161225.0304)
 -->
<!-- Title: dependencies Pages: 1 -->
<svg width="4246pt" height="284pt"
 viewBox="0.00 0.00 4246.00 284.00" xmlns="http://www.w3.org/2000/svg" xmlns:xlink="http://www.w3.org/1999/xlink">
<g id="graph0" class="graph" transform="scale(1 1) rotate(0) translate(4 280)">
<title>dependencies</title>
<polygon fill="#ffffff" stroke="transparent" points="-4,4 -4,-280 4242,-280 4242,4 -4,4"/>
<text text-anchor="start" x="2098.0091" y="-42.4" font-family="sans-serif" font-weight="bold" font-size="14.00" fill="#000000">Legend</text>
<polygon fill="#ffffb3" stroke="transparent" points="1885,-10 1885,-30 1905,-30 1905,-10 1885,-10"/>
<text text-anchor="start" x="1908.629" y="-15.4" font-family="sans-serif" font-size="14.00" fill="#000000"> &#160;Declarations</text>
<polygon fill="#8dd3c7" stroke="transparent" points="1998,-10 1998,-30 2018,-30 2018,-10 1998,-10"/>
<text text-anchor="start" x="2021.7251" y="-15.4" font-family="sans-serif" font-size="14.00" fill="#000000"> &#160;Module</text>
<polygon fill="#80b1d3" stroke="transparent" points="2084,-10 2084,-30 2104,-30 2104,-10 2084,-10"/>
<text text-anchor="start" x="2107.7812" y="-15.4" font-family="sans-serif" font-size="14.00" fill="#000000"> &#160;Bootstrap</text>
<polygon fill="#fdb462" stroke="transparent" points="2181,-10 2181,-30 2201,-30 2201,-10 2181,-10"/>
<text text-anchor="start" x="2204.6732" y="-15.4" font-family="sans-serif" font-size="14.00" fill="#000000"> &#160;Providers</text>
<polygon fill="#fb8072" stroke="transparent" points="2277,-10 2277,-30 2297,-30 2297,-10 2277,-10"/>
<text text-anchor="start" x="2300.7258" y="-15.4" font-family="sans-serif" font-size="14.00" fill="#000000"> &#160;Exports</text>
<g id="clust1" class="cluster">
<title>cluster_CaptchaModule</title>
<polygon fill="none" stroke="#000000" stroke-dasharray="1,5" points="8,-70 8,-268 372,-268 372,-70 8,-70"/>
</g>
<g id="clust2" class="cluster">
<title>cluster_CaptchaModule_declarations</title>
<polygon fill="none" stroke="#000000" points="220,-78 220,-130 364,-130 364,-78 220,-78"/>
</g>
<g id="clust5" class="cluster">
<title>cluster_CaptchaModule_exports</title>
<polygon fill="none" stroke="#000000" points="129,-208 129,-260 275,-260 275,-208 129,-208"/>
</g>
<g id="clust7" class="cluster">
<title>cluster_CaptchaModule_providers</title>
<polygon fill="none" stroke="#000000" points="16,-78 16,-130 212,-130 212,-78 16,-78"/>
</g>
<g id="clust8" class="cluster">
<title>cluster_SharedCoreModule</title>
<polygon fill="none" stroke="#000000" stroke-dasharray="1,5" points="380,-70 380,-268 4230,-268 4230,-70 380,-70"/>
</g>
<g id="clust9" class="cluster">
<title>cluster_SharedCoreModule_declarations</title>
<polygon fill="none" stroke="#000000" points="427,-78 427,-130 4182,-130 4182,-78 427,-78"/>
</g>
<g id="clust34" class="cluster">
<title>cluster_SharedCoreModule_exports</title>
<polygon fill="none" stroke="#000000" points="388,-208 388,-260 4222,-260 4222,-208 388,-208"/>
</g>
<!-- CaptchaComponent -->
<g id="node1" class="node">
<title>CaptchaComponent</title>
<polygon fill="#ffffb3" stroke="#000000" points="355.7036,-122 228.2964,-122 228.2964,-86 355.7036,-86 355.7036,-122"/>
<text text-anchor="middle" x="292" y="-99.8" font-family="Times,serif" font-size="14.00" fill="#000000">CaptchaComponent</text>
</g>
<!-- CaptchaModule -->
<g id="node2" class="node">
<title>CaptchaModule</title>
<polygon fill="#8dd3c7" stroke="#000000" points="254.9216,-187 251.9216,-191 230.9216,-191 227.9216,-187 149.0784,-187 149.0784,-151 254.9216,-151 254.9216,-187"/>
<text text-anchor="middle" x="202" y="-164.8" font-family="Times,serif" font-size="14.00" fill="#000000">CaptchaModule</text>
</g>
<!-- CaptchaComponent&#45;&gt;CaptchaModule -->
<g id="edge1" class="edge">
<title>CaptchaComponent&#45;&gt;CaptchaModule</title>
<path fill="none" stroke="#000000" d="M241.5544,-122.1061C241.5544,-122.1061 241.5544,-140.991 241.5544,-140.991"/>
<polygon fill="#000000" stroke="#000000" points="238.0544,-140.9909 241.5544,-150.991 245.0544,-140.991 238.0544,-140.9909"/>
</g>
<!-- CaptchaComponent  -->
<g id="node3" class="node">
<title>CaptchaComponent </title>
<polygon fill="#fb8072" stroke="#000000" points="267.2037,-252 136.7963,-252 136.7963,-216 267.2037,-216 267.2037,-252"/>
<text text-anchor="middle" x="202" y="-229.8" font-family="Times,serif" font-size="14.00" fill="#000000">CaptchaComponent </text>
</g>
<!-- CaptchaModule&#45;&gt;CaptchaComponent  -->
<g id="edge2" class="edge">
<title>CaptchaModule&#45;&gt;CaptchaComponent </title>
<path fill="none" stroke="#000000" stroke-dasharray="5,2" d="M202,-187.1061C202,-187.1061 202,-205.991 202,-205.991"/>
<polygon fill="#000000" stroke="#000000" points="198.5001,-205.9909 202,-215.991 205.5001,-205.991 198.5001,-205.9909"/>
</g>
<!-- CaptchaDataService -->
<g id="node4" class="node">
<title>CaptchaDataService</title>
<ellipse fill="#fdb462" stroke="#000000" cx="114" cy="-104" rx="89.7229" ry="18"/>
<text text-anchor="middle" x="114" y="-99.8" font-family="Times,serif" font-size="14.00" fill="#000000">CaptchaDataService</text>
</g>
<!-- CaptchaDataService&#45;&gt;CaptchaModule -->
<g id="edge3" class="edge">
<title>CaptchaDataService&#45;&gt;CaptchaModule</title>
<path fill="none" stroke="#000000" d="M176.5755,-117.1537C176.5755,-117.1537 176.5755,-140.6938 176.5755,-140.6938"/>
<polygon fill="#000000" stroke="#000000" points="173.0756,-140.6938 176.5755,-150.6938 180.0756,-140.6939 173.0756,-140.6938"/>
</g>
<!-- AddressComponent -->
<g id="node5" class="node">
<title>AddressComponent</title>
<polygon fill="#ffffb3" stroke="#000000" points="4173.7036,-122 4046.2964,-122 4046.2964,-86 4173.7036,-86 4173.7036,-122"/>
<text text-anchor="middle" x="4110" y="-99.8" font-family="Times,serif" font-size="14.00" fill="#000000">AddressComponent</text>
</g>
<!-- SharedCoreModule -->
<g id="node28" class="node">
<title>SharedCoreModule</title>
<polygon fill="#8dd3c7" stroke="#000000" points="2399.6345,-187 2396.6345,-191 2375.6345,-191 2372.6345,-187 2274.3655,-187 2274.3655,-151 2399.6345,-151 2399.6345,-187"/>
<text text-anchor="middle" x="2337" y="-164.8" font-family="Times,serif" font-size="14.00" fill="#000000">SharedCoreModule</text>
</g>
<!-- AddressComponent&#45;&gt;SharedCoreModule -->
<g id="edge4" class="edge">
<title>AddressComponent&#45;&gt;SharedCoreModule</title>
<path fill="none" stroke="#000000" d="M4055.8785,-122.1061C4055.8785,-141.3391 4055.8785,-169 4055.8785,-169 4055.8785,-169 2409.7019,-169 2409.7019,-169"/>
<polygon fill="#000000" stroke="#000000" points="2409.7019,-165.5001 2399.7019,-169 2409.7018,-172.5001 2409.7019,-165.5001"/>
</g>
<!-- ButtonGroupComponent -->
<g id="node6" class="node">
<title>ButtonGroupComponent</title>
<polygon fill="#ffffb3" stroke="#000000" points="4028.7176,-122 3873.2824,-122 3873.2824,-86 4028.7176,-86 4028.7176,-122"/>
<text text-anchor="middle" x="3951" y="-99.8" font-family="Times,serif" font-size="14.00" fill="#000000">ButtonGroupComponent</text>
</g>
<!-- ButtonGroupComponent&#45;&gt;SharedCoreModule -->
<g id="edge5" class="edge">
<title>ButtonGroupComponent&#45;&gt;SharedCoreModule</title>
<path fill="none" stroke="#000000" d="M3880.9332,-122.2222C3880.9332,-140.8285 3880.9332,-167 3880.9332,-167 3880.9332,-167 2409.9185,-167 2409.9185,-167"/>
<polygon fill="#000000" stroke="#000000" points="2409.9185,-163.5001 2399.9185,-167 2409.9184,-170.5001 2409.9185,-163.5001"/>
</g>
<!-- CityComponent -->
<g id="node7" class="node">
<title>CityComponent</title>
<polygon fill="#ffffb3" stroke="#000000" points="3855.9512,-122 3750.0488,-122 3750.0488,-86 3855.9512,-86 3855.9512,-122"/>
<text text-anchor="middle" x="3803" y="-99.8" font-family="Times,serif" font-size="14.00" fill="#000000">CityComponent</text>
</g>
<!-- CityComponent&#45;&gt;SharedCoreModule -->
<g id="edge6" class="edge">
<title>CityComponent&#45;&gt;SharedCoreModule</title>
<path fill="none" stroke="#000000" d="M3755.9466,-122.2667C3755.9466,-140.5552 3755.9466,-166 3755.9466,-166 3755.9466,-166 2409.8012,-166 2409.8012,-166"/>
<polygon fill="#000000" stroke="#000000" points="2409.8013,-162.5001 2399.8012,-166 2409.8012,-169.5001 2409.8013,-162.5001"/>
</g>
<!-- CoreBreadcrumbComponent -->
<g id="node8" class="node">
<title>CoreBreadcrumbComponent</title>
<polygon fill="#ffffb3" stroke="#000000" points="3731.7366,-122 3554.2634,-122 3554.2634,-86 3731.7366,-86 3731.7366,-122"/>
<text text-anchor="middle" x="3643" y="-99.8" font-family="Times,serif" font-size="14.00" fill="#000000">CoreBreadcrumbComponent</text>
</g>
<!-- CoreBreadcrumbComponent&#45;&gt;SharedCoreModule -->
<g id="edge7" class="edge">
<title>CoreBreadcrumbComponent&#45;&gt;SharedCoreModule</title>
<path fill="none" stroke="#000000" d="M3558.246,-122.002C3558.246,-139.6754 3558.246,-164 3558.246,-164 3558.246,-164 2409.6637,-164 2409.6637,-164"/>
<polygon fill="#000000" stroke="#000000" points="2409.6637,-160.5001 2399.6637,-164 2409.6636,-167.5001 2409.6637,-160.5001"/>
</g>
<!-- CountryComponent -->
<g id="node9" class="node">
<title>CountryComponent</title>
<polygon fill="#ffffb3" stroke="#000000" points="3536.7204,-122 3409.2796,-122 3409.2796,-86 3536.7204,-86 3536.7204,-122"/>
<text text-anchor="middle" x="3473" y="-99.8" font-family="Times,serif" font-size="14.00" fill="#000000">CountryComponent</text>
</g>
<!-- CountryComponent&#45;&gt;SharedCoreModule -->
<g id="edge8" class="edge">
<title>CountryComponent&#45;&gt;SharedCoreModule</title>
<path fill="none" stroke="#000000" d="M3422.6347,-122.0336C3422.6347,-139.0597 3422.6347,-162 3422.6347,-162 3422.6347,-162 2409.6637,-162 2409.6637,-162"/>
<polygon fill="#000000" stroke="#000000" points="2409.6637,-158.5001 2399.6637,-162 2409.6637,-165.5001 2409.6637,-158.5001"/>
</g>
<!-- DateComponent -->
<g id="node10" class="node">
<title>DateComponent</title>
<polygon fill="#ffffb3" stroke="#000000" points="3391.7591,-122 3284.2409,-122 3284.2409,-86 3391.7591,-86 3391.7591,-122"/>
<text text-anchor="middle" x="3338" y="-99.8" font-family="Times,serif" font-size="14.00" fill="#000000">DateComponent</text>
</g>
<!-- DateComponent&#45;&gt;SharedCoreModule -->
<g id="edge9" class="edge">
<title>DateComponent&#45;&gt;SharedCoreModule</title>
<path fill="none" stroke="#000000" d="M3293.492,-122.0352C3293.492,-138.7344 3293.492,-161 3293.492,-161 3293.492,-161 2409.7581,-161 2409.7581,-161"/>
<polygon fill="#000000" stroke="#000000" points="2409.7581,-157.5001 2399.7581,-161 2409.7581,-164.5001 2409.7581,-157.5001"/>
</g>
<!-- DateFieldFormatDirective -->
<g id="node11" class="node">
<title>DateFieldFormatDirective</title>
<polygon fill="#ffffb3" stroke="#000000" points="3265.7268,-122 3102.2732,-122 3102.2732,-86 3265.7268,-86 3265.7268,-122"/>
<text text-anchor="middle" x="3184" y="-99.8" font-family="Times,serif" font-size="14.00" fill="#000000">DateFieldFormatDirective</text>
</g>
<!-- DateFieldFormatDirective&#45;&gt;SharedCoreModule -->
<g id="edge10" class="edge">
<title>DateFieldFormatDirective&#45;&gt;SharedCoreModule</title>
<path fill="none" stroke="#000000" d="M3109.7617,-122.0091C3109.7617,-138.0494 3109.7617,-159 3109.7617,-159 3109.7617,-159 2409.9107,-159 2409.9107,-159"/>
<polygon fill="#000000" stroke="#000000" points="2409.9107,-155.5001 2399.9107,-159 2409.9107,-162.5001 2409.9107,-155.5001"/>
</g>
<!-- DatepickerComponent -->
<g id="node12" class="node">
<title>DatepickerComponent</title>
<polygon fill="#ffffb3" stroke="#000000" points="3084.2394,-122 2941.7606,-122 2941.7606,-86 3084.2394,-86 3084.2394,-122"/>
<text text-anchor="middle" x="3013" y="-99.8" font-family="Times,serif" font-size="14.00" fill="#000000">DatepickerComponent</text>
</g>
<!-- DatepickerComponent&#45;&gt;SharedCoreModule -->
<g id="edge11" class="edge">
<title>DatepickerComponent&#45;&gt;SharedCoreModule</title>
<path fill="none" stroke="#000000" d="M2947.2554,-122.2819C2947.2554,-137.9478 2947.2554,-158 2947.2554,-158 2947.2554,-158 2409.7246,-158 2409.7246,-158"/>
<polygon fill="#000000" stroke="#000000" points="2409.7246,-154.5001 2399.7246,-158 2409.7246,-161.5001 2409.7246,-154.5001"/>
</g>
<!-- DayValidationDirective -->
<g id="node13" class="node">
<title>DayValidationDirective</title>
<polygon fill="#ffffb3" stroke="#000000" points="2923.003,-122 2772.997,-122 2772.997,-86 2923.003,-86 2923.003,-122"/>
<text text-anchor="middle" x="2848" y="-99.8" font-family="Times,serif" font-size="14.00" fill="#000000">DayValidationDirective</text>
</g>
<!-- DayValidationDirective&#45;&gt;SharedCoreModule -->
<g id="edge12" class="edge">
<title>DayValidationDirective&#45;&gt;SharedCoreModule</title>
<path fill="none" stroke="#000000" d="M2776.8739,-122.1871C2776.8739,-137.1824 2776.8739,-156 2776.8739,-156 2776.8739,-156 2410.0232,-156 2410.0232,-156"/>
<polygon fill="#000000" stroke="#000000" points="2410.0232,-152.5001 2400.0232,-156 2410.0232,-159.5001 2410.0232,-152.5001"/>
</g>
<!-- DropdownComponent -->
<g id="node14" class="node">
<title>DropdownComponent</title>
<polygon fill="#ffffb3" stroke="#000000" points="2754.7064,-122 2613.2936,-122 2613.2936,-86 2754.7064,-86 2754.7064,-122"/>
<text text-anchor="middle" x="2684" y="-99.8" font-family="Times,serif" font-size="14.00" fill="#000000">DropdownComponent</text>
</g>
<!-- DropdownComponent&#45;&gt;SharedCoreModule -->
<g id="edge13" class="edge">
<title>DropdownComponent&#45;&gt;SharedCoreModule</title>
<path fill="none" stroke="#000000" d="M2709.2844,-122.1243C2709.2844,-136.7832 2709.2844,-155 2709.2844,-155 2709.2844,-155 2409.732,-155 2409.732,-155"/>
<polygon fill="#000000" stroke="#000000" points="2409.732,-151.5001 2399.732,-155 2409.732,-158.5001 2409.732,-151.5001"/>
</g>
<!-- FileUploaderComponent -->
<g id="node15" class="node">
<title>FileUploaderComponent</title>
<polygon fill="#ffffb3" stroke="#000000" points="2595.6979,-122 2440.3021,-122 2440.3021,-86 2595.6979,-86 2595.6979,-122"/>
<text text-anchor="middle" x="2518" y="-99.8" font-family="Times,serif" font-size="14.00" fill="#000000">FileUploaderComponent</text>
</g>
<!-- FileUploaderComponent&#45;&gt;SharedCoreModule -->
<g id="edge14" class="edge">
<title>FileUploaderComponent&#45;&gt;SharedCoreModule</title>
<path fill="none" stroke="#000000" d="M2544.283,-122.2458C2544.283,-136.1772 2544.283,-153 2544.283,-153 2544.283,-153 2409.7542,-153 2409.7542,-153"/>
<polygon fill="#000000" stroke="#000000" points="2409.7543,-149.5001 2399.7542,-153 2409.7542,-156.5001 2409.7543,-149.5001"/>
</g>
<!-- FormActionBarComponent -->
<g id="node16" class="node">
<title>FormActionBarComponent</title>
<polygon fill="#ffffb3" stroke="#000000" points="2421.9804,-122 2252.0196,-122 2252.0196,-86 2421.9804,-86 2421.9804,-122"/>
<text text-anchor="middle" x="2337" y="-99.8" font-family="Times,serif" font-size="14.00" fill="#000000">FormActionBarComponent</text>
</g>
<!-- FormActionBarComponent&#45;&gt;SharedCoreModule -->
<g id="edge15" class="edge">
<title>FormActionBarComponent&#45;&gt;SharedCoreModule</title>
<path fill="none" stroke="#000000" d="M2337,-122.1061C2337,-122.1061 2337,-140.991 2337,-140.991"/>
<polygon fill="#000000" stroke="#000000" points="2333.5001,-140.9909 2337,-150.991 2340.5001,-140.991 2333.5001,-140.9909"/>
</g>
<!-- FormSubmitBarComponent -->
<g id="node17" class="node">
<title>FormSubmitBarComponent</title>
<polygon fill="#ffffb3" stroke="#000000" points="2234.3327,-122 2061.6673,-122 2061.6673,-86 2234.3327,-86 2234.3327,-122"/>
<text text-anchor="middle" x="2148" y="-99.8" font-family="Times,serif" font-size="14.00" fill="#000000">FormSubmitBarComponent</text>
</g>
<!-- FormSubmitBarComponent&#45;&gt;SharedCoreModule -->
<g id="edge16" class="edge">
<title>FormSubmitBarComponent&#45;&gt;SharedCoreModule</title>
<path fill="none" stroke="#000000" d="M2175.2221,-122.2458C2175.2221,-136.1772 2175.2221,-153 2175.2221,-153 2175.2221,-153 2263.9892,-153 2263.9892,-153"/>
<polygon fill="#000000" stroke="#000000" points="2263.9892,-156.5001 2273.9892,-153 2263.9892,-149.5001 2263.9892,-156.5001"/>
</g>
<!-- PageFrameworkComponent -->
<g id="node18" class="node">
<title>PageFrameworkComponent</title>
<polygon fill="#ffffb3" stroke="#000000" points="2043.5744,-122 1870.4256,-122 1870.4256,-86 2043.5744,-86 2043.5744,-122"/>
<text text-anchor="middle" x="1957" y="-99.8" font-family="Times,serif" font-size="14.00" fill="#000000">PageFrameworkComponent</text>
</g>
<!-- PageFrameworkComponent&#45;&gt;SharedCoreModule -->
<g id="edge17" class="edge">
<title>PageFrameworkComponent&#45;&gt;SharedCoreModule</title>
<path fill="none" stroke="#000000" d="M1982.3457,-122.1243C1982.3457,-136.7832 1982.3457,-155 1982.3457,-155 1982.3457,-155 2264.0036,-155 2264.0036,-155"/>
<polygon fill="#000000" stroke="#000000" points="2264.0036,-158.5001 2274.0036,-155 2264.0036,-151.5001 2264.0036,-158.5001"/>
</g>
<!-- PageSectionComponent -->
<g id="node19" class="node">
<title>PageSectionComponent</title>
<polygon fill="#ffffb3" stroke="#000000" points="1852.0379,-122 1701.9621,-122 1701.9621,-86 1852.0379,-86 1852.0379,-122"/>
<text text-anchor="middle" x="1777" y="-99.8" font-family="Times,serif" font-size="14.00" fill="#000000">PageSectionComponent</text>
</g>
<!-- PageSectionComponent&#45;&gt;SharedCoreModule -->
<g id="edge18" class="edge">
<title>PageSectionComponent&#45;&gt;SharedCoreModule</title>
<path fill="none" stroke="#000000" d="M1848.1436,-122.1871C1848.1436,-137.1824 1848.1436,-156 1848.1436,-156 1848.1436,-156 2264.0914,-156 2264.0914,-156"/>
<polygon fill="#000000" stroke="#000000" points="2264.0914,-159.5001 2274.0914,-156 2264.0913,-152.5001 2264.0914,-159.5001"/>
</g>
<!-- PasswordComponent -->
<g id="node20" class="node">
<title>PasswordComponent</title>
<polygon fill="#ffffb3" stroke="#000000" points="1683.486,-122 1548.514,-122 1548.514,-86 1683.486,-86 1683.486,-122"/>
<text text-anchor="middle" x="1616" y="-99.8" font-family="Times,serif" font-size="14.00" fill="#000000">PasswordComponent</text>
</g>
<!-- PasswordComponent&#45;&gt;SharedCoreModule -->
<g id="edge19" class="edge">
<title>PasswordComponent&#45;&gt;SharedCoreModule</title>
<path fill="none" stroke="#000000" d="M1677.868,-122.2819C1677.868,-137.9478 1677.868,-158 1677.868,-158 1677.868,-158 2264.0982,-158 2264.0982,-158"/>
<polygon fill="#000000" stroke="#000000" points="2264.0983,-161.5001 2274.0982,-158 2264.0982,-154.5001 2264.0983,-161.5001"/>
</g>
<!-- PostalCodeComponent -->
<g id="node21" class="node">
<title>PostalCodeComponent</title>
<polygon fill="#ffffb3" stroke="#000000" points="1530.6066,-122 1385.3934,-122 1385.3934,-86 1530.6066,-86 1530.6066,-122"/>
<text text-anchor="middle" x="1458" y="-99.8" font-family="Times,serif" font-size="14.00" fill="#000000">PostalCodeComponent</text>
</g>
<!-- PostalCodeComponent&#45;&gt;SharedCoreModule -->
<g id="edge20" class="edge">
<title>PostalCodeComponent&#45;&gt;SharedCoreModule</title>
<path fill="none" stroke="#000000" d="M1522.9283,-122.0091C1522.9283,-138.0494 1522.9283,-159 1522.9283,-159 1522.9283,-159 2264.1361,-159 2264.1361,-159"/>
<polygon fill="#000000" stroke="#000000" points="2264.1361,-162.5001 2274.1361,-159 2264.1361,-155.5001 2264.1361,-162.5001"/>
</g>
<!-- ProvinceComponent -->
<g id="node22" class="node">
<title>ProvinceComponent</title>
<polygon fill="#ffffb3" stroke="#000000" points="1367.5954,-122 1236.4046,-122 1236.4046,-86 1367.5954,-86 1367.5954,-122"/>
<text text-anchor="middle" x="1302" y="-99.8" font-family="Times,serif" font-size="14.00" fill="#000000">ProvinceComponent</text>
</g>
<!-- ProvinceComponent&#45;&gt;SharedCoreModule -->
<g id="edge21" class="edge">
<title>ProvinceComponent&#45;&gt;SharedCoreModule</title>
<path fill="none" stroke="#000000" d="M1357.4972,-122.0352C1357.4972,-138.7344 1357.4972,-161 1357.4972,-161 1357.4972,-161 2264.2376,-161 2264.2376,-161"/>
<polygon fill="#000000" stroke="#000000" points="2264.2377,-164.5001 2274.2376,-161 2264.2376,-157.5001 2264.2377,-164.5001"/>
</g>
<!-- StreetComponent -->
<g id="node23" class="node">
<title>StreetComponent</title>
<polygon fill="#ffffb3" stroke="#000000" points="1217.986,-122 1104.014,-122 1104.014,-86 1217.986,-86 1217.986,-122"/>
<text text-anchor="middle" x="1161" y="-99.8" font-family="Times,serif" font-size="14.00" fill="#000000">StreetComponent</text>
</g>
<!-- StreetComponent&#45;&gt;SharedCoreModule -->
<g id="edge22" class="edge">
<title>StreetComponent&#45;&gt;SharedCoreModule</title>
<path fill="none" stroke="#000000" d="M1204.7227,-122.0336C1204.7227,-139.0597 1204.7227,-162 1204.7227,-162 1204.7227,-162 2264.1049,-162 2264.1049,-162"/>
<polygon fill="#000000" stroke="#000000" points="2264.1049,-165.5001 2274.1049,-162 2264.1049,-158.5001 2264.1049,-165.5001"/>
</g>
<!-- ThumbnailComponent -->
<g id="node24" class="node">
<title>ThumbnailComponent</title>
<polygon fill="#ffffb3" stroke="#000000" points="1086.2716,-122 943.7284,-122 943.7284,-86 1086.2716,-86 1086.2716,-122"/>
<text text-anchor="middle" x="1015" y="-99.8" font-family="Times,serif" font-size="14.00" fill="#000000">ThumbnailComponent</text>
</g>
<!-- ThumbnailComponent&#45;&gt;SharedCoreModule -->
<g id="edge23" class="edge">
<title>ThumbnailComponent&#45;&gt;SharedCoreModule</title>
<path fill="none" stroke="#000000" d="M1082.3214,-122.002C1082.3214,-139.6754 1082.3214,-164 1082.3214,-164 1082.3214,-164 2264.351,-164 2264.351,-164"/>
<polygon fill="#000000" stroke="#000000" points="2264.3511,-167.5001 2274.351,-164 2264.351,-160.5001 2264.3511,-167.5001"/>
</g>
<!-- ToggleComponent -->
<g id="node25" class="node">
<title>ToggleComponent</title>
<polygon fill="#ffffb3" stroke="#000000" points="925.4902,-122 804.5098,-122 804.5098,-86 925.4902,-86 925.4902,-122"/>
<text text-anchor="middle" x="865" y="-99.8" font-family="Times,serif" font-size="14.00" fill="#000000">ToggleComponent</text>
</g>
<!-- ToggleComponent&#45;&gt;SharedCoreModule -->
<g id="edge24" class="edge">
<title>ToggleComponent&#45;&gt;SharedCoreModule</title>
<path fill="none" stroke="#000000" d="M919.6797,-122.2667C919.6797,-140.5552 919.6797,-166 919.6797,-166 919.6797,-166 2264.2707,-166 2264.2707,-166"/>
<polygon fill="#000000" stroke="#000000" points="2264.2708,-169.5001 2274.2707,-166 2264.2707,-162.5001 2264.2708,-169.5001"/>
</g>
<!-- WizardProgressBarComponent -->
<g id="node26" class="node">
<title>WizardProgressBarComponent</title>
<polygon fill="#ffffb3" stroke="#000000" points="786.4468,-122 595.5532,-122 595.5532,-86 786.4468,-86 786.4468,-122"/>
<text text-anchor="middle" x="691" y="-99.8" font-family="Times,serif" font-size="14.00" fill="#000000">WizardProgressBarComponent</text>
</g>
<!-- WizardProgressBarComponent&#45;&gt;SharedCoreModule -->
<g id="edge25" class="edge">
<title>WizardProgressBarComponent&#45;&gt;SharedCoreModule</title>
<path fill="none" stroke="#000000" d="M779.1142,-122.2222C779.1142,-140.8285 779.1142,-167 779.1141,-167 779.1141,-167 2263.9995,-167 2263.9995,-167"/>
<polygon fill="#000000" stroke="#000000" points="2263.9996,-170.5001 2273.9995,-167 2263.9995,-163.5001 2263.9996,-170.5001"/>
</g>
<!-- YearValidateDirective -->
<g id="node27" class="node">
<title>YearValidateDirective</title>
<polygon fill="#ffffb3" stroke="#000000" points="577.2017,-122 434.7983,-122 434.7983,-86 577.2017,-86 577.2017,-122"/>
<text text-anchor="middle" x="506" y="-99.8" font-family="Times,serif" font-size="14.00" fill="#000000">YearValidateDirective</text>
</g>
<!-- YearValidateDirective&#45;&gt;SharedCoreModule -->
<g id="edge26" class="edge">
<title>YearValidateDirective&#45;&gt;SharedCoreModule</title>
<path fill="none" stroke="#000000" d="M568.5637,-122.1061C568.5637,-141.3391 568.5637,-169 568.5637,-169 568.5637,-169 2264.3204,-169 2264.3204,-169"/>
<polygon fill="#000000" stroke="#000000" points="2264.3204,-172.5001 2274.3204,-169 2264.3203,-165.5001 2264.3204,-172.5001"/>
</g>
<!-- AddressComponent  -->
<g id="node29" class="node">
<title>AddressComponent </title>
<polygon fill="#fb8072" stroke="#000000" points="4214.2037,-252 4083.7963,-252 4083.7963,-216 4214.2037,-216 4214.2037,-252"/>
<text text-anchor="middle" x="4149" y="-229.8" font-family="Times,serif" font-size="14.00" fill="#000000">AddressComponent </text>
</g>
<!-- SharedCoreModule&#45;&gt;AddressComponent  -->
<g id="edge27" class="edge">
<title>SharedCoreModule&#45;&gt;AddressComponent </title>
<path fill="none" stroke="#000000" stroke-dasharray="5,2" d="M2399.7144,-170C2716.8192,-170 4128.625,-170 4128.625,-170 4128.625,-170 4128.625,-205.8314 4128.625,-205.8314"/>
<polygon fill="#000000" stroke="#000000" points="4125.1251,-205.8313 4128.625,-215.8314 4132.1251,-205.8314 4125.1251,-205.8313"/>
</g>
<!-- ButtonGroupComponent  -->
<g id="node30" class="node">
<title>ButtonGroupComponent </title>
<polygon fill="#fb8072" stroke="#000000" points="4065.2177,-252 3906.7823,-252 3906.7823,-216 4065.2177,-216 4065.2177,-252"/>
<text text-anchor="middle" x="3986" y="-229.8" font-family="Times,serif" font-size="14.00" fill="#000000">ButtonGroupComponent </text>
</g>
<!-- SharedCoreModule&#45;&gt;ButtonGroupComponent  -->
<g id="edge28" class="edge">
<title>SharedCoreModule&#45;&gt;ButtonGroupComponent </title>
<path fill="none" stroke="#000000" stroke-dasharray="5,2" d="M2399.9233,-172C2699.5945,-172 3967.625,-172 3967.625,-172 3967.625,-172 3967.625,-205.7333 3967.625,-205.7333"/>
<polygon fill="#000000" stroke="#000000" points="3964.1251,-205.7333 3967.625,-215.7333 3971.1251,-205.7333 3964.1251,-205.7333"/>
</g>
<!-- CityComponent  -->
<g id="node31" class="node">
<title>CityComponent </title>
<polygon fill="#fb8072" stroke="#000000" points="3888.4502,-252 3779.5498,-252 3779.5498,-216 3888.4502,-216 3888.4502,-252"/>
<text text-anchor="middle" x="3834" y="-229.8" font-family="Times,serif" font-size="14.00" fill="#000000">CityComponent </text>
</g>
<!-- SharedCoreModule&#45;&gt;CityComponent  -->
<g id="edge29" class="edge">
<title>SharedCoreModule&#45;&gt;CityComponent </title>
<path fill="none" stroke="#000000" stroke-dasharray="5,2" d="M2399.6749,-173C2681.4897,-173 3817.625,-173 3817.625,-173 3817.625,-173 3817.625,-205.698 3817.625,-205.698"/>
<polygon fill="#000000" stroke="#000000" points="3814.1251,-205.698 3817.625,-215.698 3821.1251,-205.698 3814.1251,-205.698"/>
</g>
<!-- CoreBreadcrumbComponent  -->
<g id="node32" class="node">
<title>CoreBreadcrumbComponent </title>
<polygon fill="#fb8072" stroke="#000000" points="3761.7366,-252 3580.2634,-252 3580.2634,-216 3761.7366,-216 3761.7366,-252"/>
<text text-anchor="middle" x="3671" y="-229.8" font-family="Times,serif" font-size="14.00" fill="#000000">CoreBreadcrumbComponent </text>
</g>
<!-- SharedCoreModule&#45;&gt;CoreBreadcrumbComponent  -->
<g id="edge30" class="edge">
<title>SharedCoreModule&#45;&gt;CoreBreadcrumbComponent </title>
<path fill="none" stroke="#000000" stroke-dasharray="5,2" d="M2399.7367,-175C2661.8888,-175 3656.125,-175 3656.125,-175 3656.125,-175 3656.125,-205.9775 3656.125,-205.9775"/>
<polygon fill="#000000" stroke="#000000" points="3652.6251,-205.9774 3656.125,-215.9775 3659.6251,-205.9775 3652.6251,-205.9774"/>
</g>
<!-- CountryComponent  -->
<g id="node33" class="node">
<title>CountryComponent </title>
<polygon fill="#fb8072" stroke="#000000" points="3562.2205,-252 3431.7795,-252 3431.7795,-216 3562.2205,-216 3562.2205,-252"/>
<text text-anchor="middle" x="3497" y="-229.8" font-family="Times,serif" font-size="14.00" fill="#000000">CountryComponent </text>
</g>
<!-- SharedCoreModule&#45;&gt;CountryComponent  -->
<g id="edge31" class="edge">
<title>SharedCoreModule&#45;&gt;CountryComponent </title>
<path fill="none" stroke="#000000" stroke-dasharray="5,2" d="M2399.8981,-177C2639.8297,-177 3484.125,-177 3484.125,-177 3484.125,-177 3484.125,-205.9648 3484.125,-205.9648"/>
<polygon fill="#000000" stroke="#000000" points="3480.6251,-205.9648 3484.125,-215.9648 3487.6251,-205.9649 3480.6251,-205.9648"/>
</g>
<!-- DateComponent  -->
<g id="node34" class="node">
<title>DateComponent </title>
<polygon fill="#fb8072" stroke="#000000" points="3413.7591,-252 3302.2409,-252 3302.2409,-216 3413.7591,-216 3413.7591,-252"/>
<text text-anchor="middle" x="3358" y="-229.8" font-family="Times,serif" font-size="14.00" fill="#000000">DateComponent </text>
</g>
<!-- SharedCoreModule&#45;&gt;DateComponent  -->
<g id="edge32" class="edge">
<title>SharedCoreModule&#45;&gt;DateComponent </title>
<path fill="none" stroke="#000000" stroke-dasharray="5,2" d="M2399.8062,-178C2620.4924,-178 3347.125,-178 3347.125,-178 3347.125,-178 3347.125,-205.973 3347.125,-205.973"/>
<polygon fill="#000000" stroke="#000000" points="3343.6251,-205.973 3347.125,-215.973 3350.6251,-205.973 3343.6251,-205.973"/>
</g>
<!-- DateFieldFormatDirective  -->
<g id="node35" class="node">
<title>DateFieldFormatDirective </title>
<polygon fill="#fb8072" stroke="#000000" points="3284.7268,-252 3117.2732,-252 3117.2732,-216 3284.7268,-216 3284.7268,-252"/>
<text text-anchor="middle" x="3201" y="-229.8" font-family="Times,serif" font-size="14.00" fill="#000000">DateFieldFormatDirective </text>
</g>
<!-- SharedCoreModule&#45;&gt;DateFieldFormatDirective  -->
<g id="edge33" class="edge">
<title>SharedCoreModule&#45;&gt;DateFieldFormatDirective </title>
<path fill="none" stroke="#000000" stroke-dasharray="5,2" d="M2399.8426,-180C2597.2077,-180 3191.625,-180 3191.625,-180 3191.625,-180 3191.625,-205.7181 3191.625,-205.7181"/>
<polygon fill="#000000" stroke="#000000" points="3188.1251,-205.718 3191.625,-215.7181 3195.1251,-205.7181 3188.1251,-205.718"/>
</g>
<!-- DatepickerComponent  -->
<g id="node36" class="node">
<title>DatepickerComponent </title>
<polygon fill="#fb8072" stroke="#000000" points="3099.2394,-252 2952.7606,-252 2952.7606,-216 3099.2394,-216 3099.2394,-252"/>
<text text-anchor="middle" x="3026" y="-229.8" font-family="Times,serif" font-size="14.00" fill="#000000">DatepickerComponent </text>
</g>
<!-- SharedCoreModule&#45;&gt;DatepickerComponent  -->
<g id="edge34" class="edge">
<title>SharedCoreModule&#45;&gt;DatepickerComponent </title>
<path fill="none" stroke="#000000" stroke-dasharray="5,2" d="M2399.9039,-181C2568.646,-181 3018.625,-181 3018.625,-181 3018.625,-181 3018.625,-205.7604 3018.625,-205.7604"/>
<polygon fill="#000000" stroke="#000000" points="3015.1251,-205.7604 3018.625,-215.7604 3022.1251,-205.7604 3015.1251,-205.7604"/>
</g>
<!-- DayValidationDirective  -->
<g id="node37" class="node">
<title>DayValidationDirective </title>
<polygon fill="#fb8072" stroke="#000000" points="2935.0022,-252 2780.9978,-252 2780.9978,-216 2935.0022,-216 2935.0022,-252"/>
<text text-anchor="middle" x="2858" y="-229.8" font-family="Times,serif" font-size="14.00" fill="#000000">DayValidationDirective </text>
</g>
<!-- SharedCoreModule&#45;&gt;DayValidationDirective  -->
<g id="edge35" class="edge">
<title>SharedCoreModule&#45;&gt;DayValidationDirective </title>
<path fill="none" stroke="#000000" stroke-dasharray="5,2" d="M2399.6494,-183C2536.9311,-183 2852.125,-183 2852.125,-183 2852.125,-183 2852.125,-205.8757 2852.125,-205.8757"/>
<polygon fill="#000000" stroke="#000000" points="2848.6251,-205.8757 2852.125,-215.8757 2855.6251,-205.8757 2848.6251,-205.8757"/>
</g>
<!-- DropdownComponent  -->
<g id="node38" class="node">
<title>DropdownComponent </title>
<polygon fill="#fb8072" stroke="#000000" points="2763.2065,-252 2618.7935,-252 2618.7935,-216 2763.2065,-216 2763.2065,-252"/>
<text text-anchor="middle" x="2691" y="-229.8" font-family="Times,serif" font-size="14.00" fill="#000000">DropdownComponent </text>
</g>
<!-- SharedCoreModule&#45;&gt;DropdownComponent  -->
<g id="edge36" class="edge">
<title>SharedCoreModule&#45;&gt;DropdownComponent </title>
<path fill="none" stroke="#000000" stroke-dasharray="5,2" d="M2399.6554,-184C2494.5954,-184 2663.9656,-184 2663.9656,-184 2663.9656,-184 2663.9656,-205.9489 2663.9656,-205.9489"/>
<polygon fill="#000000" stroke="#000000" points="2660.4657,-205.9488 2663.9656,-215.9489 2667.4657,-205.9489 2660.4657,-205.9488"/>
</g>
<!-- FileUploaderComponent  -->
<g id="node39" class="node">
<title>FileUploaderComponent </title>
<polygon fill="#fb8072" stroke="#000000" points="2600.1981,-252 2441.8019,-252 2441.8019,-216 2600.1981,-216 2600.1981,-252"/>
<text text-anchor="middle" x="2521" y="-229.8" font-family="Times,serif" font-size="14.00" fill="#000000">FileUploaderComponent </text>
</g>
<!-- SharedCoreModule&#45;&gt;FileUploaderComponent  -->
<g id="edge37" class="edge">
<title>SharedCoreModule&#45;&gt;FileUploaderComponent </title>
<path fill="none" stroke="#000000" stroke-dasharray="5,2" d="M2399.9882,-186C2443.2748,-186 2492.967,-186 2492.967,-186 2492.967,-186 2492.967,-205.8533 2492.967,-205.8533"/>
<polygon fill="#000000" stroke="#000000" points="2489.4671,-205.8532 2492.967,-215.8533 2496.4671,-205.8533 2489.4671,-205.8532"/>
</g>
<!-- FormActionBarComponent  -->
<g id="node40" class="node">
<title>FormActionBarComponent </title>
<polygon fill="#fb8072" stroke="#000000" points="2423.9811,-252 2250.0189,-252 2250.0189,-216 2423.9811,-216 2423.9811,-252"/>
<text text-anchor="middle" x="2337" y="-229.8" font-family="Times,serif" font-size="14.00" fill="#000000">FormActionBarComponent </text>
</g>
<!-- SharedCoreModule&#45;&gt;FormActionBarComponent  -->
<g id="edge38" class="edge">
<title>SharedCoreModule&#45;&gt;FormActionBarComponent </title>
<path fill="none" stroke="#000000" stroke-dasharray="5,2" d="M2337,-187.1061C2337,-187.1061 2337,-205.991 2337,-205.991"/>
<polygon fill="#000000" stroke="#000000" points="2333.5001,-205.9909 2337,-215.991 2340.5001,-205.991 2333.5001,-205.9909"/>
</g>
<!-- FormSubmitBarComponent  -->
<g id="node41" class="node">
<title>FormSubmitBarComponent </title>
<polygon fill="#fb8072" stroke="#000000" points="2231.8325,-252 2056.1675,-252 2056.1675,-216 2231.8325,-216 2231.8325,-252"/>
<text text-anchor="middle" x="2144" y="-229.8" font-family="Times,serif" font-size="14.00" fill="#000000">FormSubmitBarComponent </text>
</g>
<!-- SharedCoreModule&#45;&gt;FormSubmitBarComponent  -->
<g id="edge39" class="edge">
<title>SharedCoreModule&#45;&gt;FormSubmitBarComponent </title>
<path fill="none" stroke="#000000" stroke-dasharray="5,2" d="M2274.1019,-186C2209.5609,-186 2118.5279,-186 2118.5279,-186 2118.5279,-186 2118.5279,-205.8533 2118.5279,-205.8533"/>
<polygon fill="#000000" stroke="#000000" points="2115.028,-205.8532 2118.5279,-215.8533 2122.028,-205.8533 2115.028,-205.8532"/>
</g>
<!-- PageFrameworkComponent  -->
<g id="node42" class="node">
<title>PageFrameworkComponent </title>
<polygon fill="#fb8072" stroke="#000000" points="2038.0749,-252 1861.9251,-252 1861.9251,-216 2038.0749,-216 2038.0749,-252"/>
<text text-anchor="middle" x="1950" y="-229.8" font-family="Times,serif" font-size="14.00" fill="#000000">PageFrameworkComponent </text>
</g>
<!-- SharedCoreModule&#45;&gt;PageFrameworkComponent  -->
<g id="edge40" class="edge">
<title>SharedCoreModule&#45;&gt;PageFrameworkComponent </title>
<path fill="none" stroke="#000000" stroke-dasharray="5,2" d="M2274.1924,-184C2159.1723,-184 1926.4043,-184 1926.4043,-184 1926.4043,-184 1926.4043,-205.9489 1926.4043,-205.9489"/>
<polygon fill="#000000" stroke="#000000" points="1922.9044,-205.9488 1926.4043,-215.9489 1929.9044,-205.9489 1922.9044,-205.9488"/>
</g>
<!-- PageSectionComponent  -->
<g id="node43" class="node">
<title>PageSectionComponent </title>
<polygon fill="#fb8072" stroke="#000000" points="1844.0372,-252 1689.9628,-252 1689.9628,-216 1844.0372,-216 1844.0372,-252"/>
<text text-anchor="middle" x="1767" y="-229.8" font-family="Times,serif" font-size="14.00" fill="#000000">PageSectionComponent </text>
</g>
<!-- SharedCoreModule&#45;&gt;PageSectionComponent  -->
<g id="edge41" class="edge">
<title>SharedCoreModule&#45;&gt;PageSectionComponent </title>
<path fill="none" stroke="#000000" stroke-dasharray="5,2" d="M2274.2018,-183C2127.1598,-183 1772.875,-183 1772.875,-183 1772.875,-183 1772.875,-205.8757 1772.875,-205.8757"/>
<polygon fill="#000000" stroke="#000000" points="1769.3751,-205.8757 1772.875,-215.8757 1776.3751,-205.8757 1769.3751,-205.8757"/>
</g>
<!-- PasswordComponent  -->
<g id="node44" class="node">
<title>PasswordComponent </title>
<polygon fill="#fb8072" stroke="#000000" points="1672.4869,-252 1533.5131,-252 1533.5131,-216 1672.4869,-216 1672.4869,-252"/>
<text text-anchor="middle" x="1603" y="-229.8" font-family="Times,serif" font-size="14.00" fill="#000000">PasswordComponent </text>
</g>
<!-- SharedCoreModule&#45;&gt;PasswordComponent  -->
<g id="edge42" class="edge">
<title>SharedCoreModule&#45;&gt;PasswordComponent </title>
<path fill="none" stroke="#000000" stroke-dasharray="5,2" d="M2274.104,-181C2097.5854,-181 1610.375,-181 1610.375,-181 1610.375,-181 1610.375,-205.7604 1610.375,-205.7604"/>
<polygon fill="#000000" stroke="#000000" points="1606.8751,-205.7604 1610.375,-215.7604 1613.8751,-205.7604 1606.8751,-205.7604"/>
</g>
<!-- PostalCodeComponent  -->
<g id="node45" class="node">
<title>PostalCodeComponent </title>
<polygon fill="#fb8072" stroke="#000000" points="1515.1071,-252 1366.8929,-252 1366.8929,-216 1515.1071,-216 1515.1071,-252"/>
<text text-anchor="middle" x="1441" y="-229.8" font-family="Times,serif" font-size="14.00" fill="#000000">PostalCodeComponent </text>
</g>
<!-- SharedCoreModule&#45;&gt;PostalCodeComponent  -->
<g id="edge43" class="edge">
<title>SharedCoreModule&#45;&gt;PostalCodeComponent </title>
<path fill="none" stroke="#000000" stroke-dasharray="5,2" d="M2274.301,-180C2072.1143,-180 1450.375,-180 1450.375,-180 1450.375,-180 1450.375,-205.7181 1450.375,-205.7181"/>
<polygon fill="#000000" stroke="#000000" points="1446.8751,-205.718 1450.375,-215.7181 1453.8751,-205.7181 1446.8751,-205.718"/>
</g>
<!-- ProvinceComponent  -->
<g id="node46" class="node">
<title>ProvinceComponent </title>
<polygon fill="#fb8072" stroke="#000000" points="1348.096,-252 1213.904,-252 1213.904,-216 1348.096,-216 1348.096,-252"/>
<text text-anchor="middle" x="1281" y="-229.8" font-family="Times,serif" font-size="14.00" fill="#000000">ProvinceComponent </text>
</g>
<!-- SharedCoreModule&#45;&gt;ProvinceComponent  -->
<g id="edge44" class="edge">
<title>SharedCoreModule&#45;&gt;ProvinceComponent </title>
<path fill="none" stroke="#000000" stroke-dasharray="5,2" d="M2274.0065,-178C2048.1575,-178 1292.375,-178 1292.375,-178 1292.375,-178 1292.375,-205.973 1292.375,-205.973"/>
<polygon fill="#000000" stroke="#000000" points="1288.8751,-205.973 1292.375,-215.973 1295.8751,-205.973 1288.8751,-205.973"/>
</g>
<!-- StreetComponent  -->
<g id="node47" class="node">
<title>StreetComponent </title>
<polygon fill="#fb8072" stroke="#000000" points="1195.987,-252 1078.013,-252 1078.013,-216 1195.987,-216 1195.987,-252"/>
<text text-anchor="middle" x="1137" y="-229.8" font-family="Times,serif" font-size="14.00" fill="#000000">StreetComponent </text>
</g>
<!-- SharedCoreModule&#45;&gt;StreetComponent  -->
<g id="edge45" class="edge">
<title>SharedCoreModule&#45;&gt;StreetComponent </title>
<path fill="none" stroke="#000000" stroke-dasharray="5,2" d="M2274.0132,-177C2028.5906,-177 1149.875,-177 1149.875,-177 1149.875,-177 1149.875,-205.9648 1149.875,-205.9648"/>
<polygon fill="#000000" stroke="#000000" points="1146.3751,-205.9648 1149.875,-215.9648 1153.3751,-205.9649 1146.3751,-205.9648"/>
</g>
<!-- ThumbnailComponent  -->
<g id="node48" class="node">
<title>ThumbnailComponent </title>
<polygon fill="#fb8072" stroke="#000000" points="1060.2717,-252 913.7283,-252 913.7283,-216 1060.2717,-216 1060.2717,-252"/>
<text text-anchor="middle" x="987" y="-229.8" font-family="Times,serif" font-size="14.00" fill="#000000">ThumbnailComponent </text>
</g>
<!-- SharedCoreModule&#45;&gt;ThumbnailComponent  -->
<g id="edge46" class="edge">
<title>SharedCoreModule&#45;&gt;ThumbnailComponent </title>
<path fill="none" stroke="#000000" stroke-dasharray="5,2" d="M2273.9493,-175C2009.3028,-175 1001.875,-175 1001.875,-175 1001.875,-175 1001.875,-205.9775 1001.875,-205.9775"/>
<polygon fill="#000000" stroke="#000000" points="998.3751,-205.9774 1001.875,-215.9775 1005.3751,-205.9775 998.3751,-205.9774"/>
</g>
<!-- ToggleComponent  -->
<g id="node49" class="node">
<title>ToggleComponent </title>
<polygon fill="#fb8072" stroke="#000000" points="896.4912,-252 771.5088,-252 771.5088,-216 896.4912,-216 896.4912,-252"/>
<text text-anchor="middle" x="834" y="-229.8" font-family="Times,serif" font-size="14.00" fill="#000000">ToggleComponent </text>
</g>
<!-- SharedCoreModule&#45;&gt;ToggleComponent  -->
<g id="edge47" class="edge">
<title>SharedCoreModule&#45;&gt;ToggleComponent </title>
<path fill="none" stroke="#000000" stroke-dasharray="5,2" d="M2274.0711,-173C1991.1143,-173 850.375,-173 850.375,-173 850.375,-173 850.375,-205.698 850.375,-205.698"/>
<polygon fill="#000000" stroke="#000000" points="846.8751,-205.698 850.375,-215.698 853.8751,-205.698 846.8751,-205.698"/>
</g>
<!-- WizardProgressBarComponent  -->
<g id="node50" class="node">
<title>WizardProgressBarComponent </title>
<polygon fill="#fb8072" stroke="#000000" points="754.4473,-252 559.5527,-252 559.5527,-216 754.4473,-216 754.4473,-252"/>
<text text-anchor="middle" x="657" y="-229.8" font-family="Times,serif" font-size="14.00" fill="#000000">WizardProgressBarComponent </text>
</g>
<!-- SharedCoreModule&#45;&gt;WizardProgressBarComponent  -->
<g id="edge48" class="edge">
<title>SharedCoreModule&#45;&gt;WizardProgressBarComponent </title>
<path fill="none" stroke="#000000" stroke-dasharray="5,2" d="M2274.124,-172C1970.9818,-172 674.875,-172 674.875,-172 674.875,-172 674.875,-205.7333 674.875,-205.7333"/>
<polygon fill="#000000" stroke="#000000" points="671.3751,-205.7333 674.875,-215.7333 678.3751,-205.7333 671.3751,-205.7333"/>
</g>
<!-- YearValidateDirective  -->
<g id="node51" class="node">
<title>YearValidateDirective </title>
<polygon fill="#fb8072" stroke="#000000" points="542.2015,-252 395.7985,-252 395.7985,-216 542.2015,-216 542.2015,-252"/>
<text text-anchor="middle" x="469" y="-229.8" font-family="Times,serif" font-size="14.00" fill="#000000">YearValidateDirective </text>
</g>
<!-- SharedCoreModule&#45;&gt;YearValidateDirective  -->
<g id="edge49" class="edge">
<title>SharedCoreModule&#45;&gt;YearValidateDirective </title>
<path fill="none" stroke="#000000" stroke-dasharray="5,2" d="M2274.1676,-170C1950.7113,-170 488.375,-170 488.375,-170 488.375,-170 488.375,-205.8314 488.375,-205.8314"/>
<polygon fill="#000000" stroke="#000000" points="484.8751,-205.8313 488.375,-215.8314 491.8751,-205.8314 484.8751,-205.8313"/>
</g>
</g>
</svg>
