<?xml version="1.0" encoding="UTF-8" standalone="no"?>
<!DOCTYPE svg PUBLIC "-//W3C//DTD SVG 1.1//EN"
 "http://www.w3.org/Graphics/SVG/1.1/DTD/svg11.dtd">
<!-- Generated by graphviz version 2.40.1 (20161225.0304)
 -->
<!-- Title: dependencies Pages: 1 -->
<svg width="504pt" height="284pt"
 viewBox="0.00 0.00 504.00 284.00" xmlns="http://www.w3.org/2000/svg" xmlns:xlink="http://www.w3.org/1999/xlink">
<g id="graph0" class="graph" transform="scale(1 1) rotate(0) translate(4 280)">
<title>dependencies</title>
<polygon fill="#ffffff" stroke="transparent" points="-4,4 -4,-280 500,-280 500,4 -4,4"/>
<text text-anchor="start" x="227.0091" y="-42.4" font-family="sans-serif" font-weight="bold" font-size="14.00" fill="#000000">Legend</text>
<polygon fill="#ffffb3" stroke="transparent" points="14,-10 14,-30 34,-30 34,-10 14,-10"/>
<text text-anchor="start" x="37.629" y="-15.4" font-family="sans-serif" font-size="14.00" fill="#000000"> &#160;Declarations</text>
<polygon fill="#8dd3c7" stroke="transparent" points="127,-10 127,-30 147,-30 147,-10 127,-10"/>
<text text-anchor="start" x="150.7251" y="-15.4" font-family="sans-serif" font-size="14.00" fill="#000000"> &#160;Module</text>
<polygon fill="#80b1d3" stroke="transparent" points="213,-10 213,-30 233,-30 233,-10 213,-10"/>
<text text-anchor="start" x="236.7812" y="-15.4" font-family="sans-serif" font-size="14.00" fill="#000000"> &#160;Bootstrap</text>
<polygon fill="#fdb462" stroke="transparent" points="310,-10 310,-30 330,-30 330,-10 310,-10"/>
<text text-anchor="start" x="333.6732" y="-15.4" font-family="sans-serif" font-size="14.00" fill="#000000"> &#160;Providers</text>
<polygon fill="#fb8072" stroke="transparent" points="406,-10 406,-30 426,-30 426,-10 406,-10"/>
<text text-anchor="start" x="429.7258" y="-15.4" font-family="sans-serif" font-size="14.00" fill="#000000"> &#160;Exports</text>
<g id="clust1" class="cluster">
<title>cluster_ReCaptchaModule</title>
<polygon fill="none" stroke="#000000" stroke-dasharray="1,5" points="52,-70 52,-268 444,-268 444,-70 52,-70"/>
</g>
<g id="clust2" class="cluster">
<title>cluster_ReCaptchaModule_declarations</title>
<polygon fill="none" stroke="#000000" points="280,-78 280,-130 436,-130 436,-78 280,-78"/>
</g>
<g id="clust5" class="cluster">
<title>cluster_ReCaptchaModule_exports</title>
<polygon fill="none" stroke="#000000" points="181,-208 181,-260 341,-260 341,-208 181,-208"/>
</g>
<g id="clust7" class="cluster">
<title>cluster_ReCaptchaModule_providers</title>
<polygon fill="none" stroke="#000000" points="60,-78 60,-130 272,-130 272,-78 60,-78"/>
</g>
<!-- RecaptchaComponent -->
<g id="node1" class="node">
<title>RecaptchaComponent</title>
<polygon fill="#ffffb3" stroke="#000000" points="427.6331,-122 288.3669,-122 288.3669,-86 427.6331,-86 427.6331,-122"/>
<text text-anchor="middle" x="358" y="-99.8" font-family="Times,serif" font-size="14.00" fill="#000000">RecaptchaComponent</text>
</g>
<!-- ReCaptchaModule -->
<g id="node2" class="node">
<title>ReCaptchaModule</title>
<polygon fill="#8dd3c7" stroke="#000000" points="321.472,-187 318.472,-191 297.472,-191 294.472,-187 200.528,-187 200.528,-151 321.472,-151 321.472,-187"/>
<text text-anchor="middle" x="261" y="-164.8" font-family="Times,serif" font-size="14.00" fill="#000000">ReCaptchaModule</text>
</g>
<!-- RecaptchaComponent&#45;&gt;ReCaptchaModule -->
<g id="edge1" class="edge">
<title>RecaptchaComponent&#45;&gt;ReCaptchaModule</title>
<path fill="none" stroke="#000000" d="M304.8348,-122.1061C304.8348,-122.1061 304.8348,-140.991 304.8348,-140.991"/>
<polygon fill="#000000" stroke="#000000" points="301.3349,-140.9909 304.8348,-150.991 308.3349,-140.991 301.3349,-140.9909"/>
</g>
<!-- RecaptchaComponent  -->
<g id="node3" class="node">
<title>RecaptchaComponent </title>
<polygon fill="#fb8072" stroke="#000000" points="332.6327,-252 189.3673,-252 189.3673,-216 332.6327,-216 332.6327,-252"/>
<text text-anchor="middle" x="261" y="-229.8" font-family="Times,serif" font-size="14.00" fill="#000000">RecaptchaComponent </text>
</g>
<!-- ReCaptchaModule&#45;&gt;RecaptchaComponent  -->
<g id="edge2" class="edge">
<title>ReCaptchaModule&#45;&gt;RecaptchaComponent </title>
<path fill="none" stroke="#000000" stroke-dasharray="5,2" d="M261,-187.1061C261,-187.1061 261,-205.991 261,-205.991"/>
<polygon fill="#000000" stroke="#000000" points="257.5001,-205.9909 261,-215.991 264.5001,-205.991 257.5001,-205.9909"/>
</g>
<!-- RecaptchaDataService -->
<g id="node4" class="node">
<title>RecaptchaDataService</title>
<ellipse fill="#fdb462" stroke="#000000" cx="166" cy="-104" rx="98.3696" ry="18"/>
<text text-anchor="middle" x="166" y="-99.8" font-family="Times,serif" font-size="14.00" fill="#000000">RecaptchaDataService</text>
</g>
<!-- RecaptchaDataService&#45;&gt;ReCaptchaModule -->
<g id="edge3" class="edge">
<title>RecaptchaDataService&#45;&gt;ReCaptchaModule</title>
<path fill="none" stroke="#000000" d="M232.4744,-117.468C232.4744,-117.468 232.4744,-140.8642 232.4744,-140.8642"/>
<polygon fill="#000000" stroke="#000000" points="228.9745,-140.8641 232.4744,-150.8642 235.9745,-140.8642 228.9745,-140.8641"/>
</g>
</g>
</svg>
